<svg width="989" height="472" viewBox="0 0 989 472" fill="none" xmlns="http://www.w3.org/2000/svg">
<g clip-path="url(#clip0_230_2)">
<path d="M138.688 1857.35C113.225 1830.3 105.378 1813.06 116.902 1776.69C128.745 1733.99 167.538 1692.91 150.743 1646.61C150.571 1643.16 141.052 1629.89 142.791 1640.41C146.415 1650.3 142.539 1676.62 134.772 1674.3C112.229 1664.68 89.1678 1654.29 70.1429 1638.66C29.7431 1601.21 34.1774 1559.77 80.7772 1530.92C84.6539 1528.6 85.8753 1524.21 87.8004 1520.43C108.166 1483.05 159.346 1486.84 191.17 1506.59C242.602 1536.92 284.422 1580.77 326.588 1622.41C348.852 1643.79 338.908 1626.8 331.699 1611.03C323.707 1594.43 315.635 1577.85 307.47 1561.34C280.918 1508.49 255.148 1454.97 222.13 1406.04C215.704 1395.33 210.5 1383.95 203.105 1373.81C198.95 1366.47 189.55 1357.9 199.998 1351.34C212.359 1339.07 222.874 1325.02 234.782 1312.29C242.788 1300.57 219.315 1320.34 216.966 1322.33C175.53 1360.78 132.395 1397.74 94.7041 1439.96C81.6933 1458.05 75.7986 1480.49 61.8054 1498.22C46.7367 1521.13 46.7633 1518.32 24.2069 1505.31C13.068 1500.34 8.19563 1489.43 10.8907 1477.64C14.1567 1454.84 14.3691 1431.7 18.5644 1409.04C23.636 1388.28 28.588 1367.49 32.9427 1346.58C62.0178 1192.46 52.1004 1034.6 36.4874 879.165C30.8848 839.376 32.2656 799.029 28.0437 759.107C21.3126 705.594 14.8471 652.029 8.83289 598.423C5.84572 577.262 1.8761 556.234 -0.858817 535.033C-3.36804 520.369 0.0572484 513.978 6.52281 501.13C14.7674 487.301 30.6857 479.903 42.3025 469.07C48.2635 464.35 54.7556 460.479 61.8054 457.588C68.7621 450.826 63.4782 497.431 64.3677 500.295C63.664 552.839 59.1235 605.716 64.5004 658.088C68.324 695.027 73.4885 731.873 79.1442 768.56C86.7515 781.275 81.4543 750.714 81.5472 747.479C80.047 730.11 79.662 712.661 78.5202 695.292C78.3344 692.296 77.5776 687.575 81.5472 687.297C91.292 688.702 101.276 689.273 110.609 692.693C122.837 697.228 122.584 697.055 124.562 709.055C129.926 744.522 130.829 780.48 133.63 816.199C136.405 866.119 138.874 916.078 142.499 965.957C145.473 994.742 146.92 1025.14 159.984 1051.32C161.895 1054.9 165.307 1051.62 167.206 1049.91C171.614 1045.43 173.379 1047.79 177.827 1051.22C187.134 1055.06 189.776 1064.95 191.86 1073.69C203.198 1118.94 223.551 1161.72 233.441 1207.39C235.659 1218.84 242.907 1226.35 251.896 1214.72C273.217 1190.58 293.955 1163.96 306.793 1134.49L306.979 1134.65C298.27 1137.23 261.415 1199.91 256.848 1182.26C244.74 1137.54 230.454 1093.37 217.483 1048.97C197.861 986.562 177.668 924.63 156.067 862.857C148.725 843.486 149.588 822.723 148.858 802.41C147.119 768.269 148.088 733.875 143.295 699.972C138.33 670.922 112.654 653.103 94.3987 632.26C68.3771 600.346 81.4809 553.516 80.1798 515.476C82.6757 464.218 84.2689 412.906 86.3267 361.621C87.3357 348.508 113.915 338.604 125.213 343.536C133.896 346.877 136.631 357.882 141.808 364.922C149.734 378.963 157.501 393.097 165.334 407.191C194.396 459.935 221.639 513.633 249.001 567.278C303.023 671.214 274.864 656.417 305.08 565.104C311.48 546.727 321.158 529.782 328.367 511.75C333.014 497.696 294.685 442.553 283.838 431.654C281.966 433.02 283.719 435.061 284.21 436.719C293.942 459.458 307.47 480.221 318.821 502.124C320.64 512.453 311.599 522.53 308.984 532.5C307.497 536.133 304.682 546.793 300.221 539.793C294.712 530.061 289.945 519.918 284.661 510.053C257.458 460.134 233.269 408.239 203.158 360.043C202.162 358.757 201.326 357.325 200.49 355.933C199.295 353.387 202.176 351.04 204.114 349.714C215.837 341.216 227.48 332.584 239.097 323.939C242.403 321.844 243.664 326.511 245.164 328.567C262.676 358.744 279.988 389.027 297.725 419.071C321.211 458.715 344.803 498.306 368.594 537.751C371.05 541.198 372.126 544.778 370.055 548.795C358.159 595.122 356.951 643.291 356.287 690.864C353.287 702.505 301.536 706.907 293.61 724.263C291.207 727.047 289.122 737.269 284.768 731.595C251.55 657.067 215.97 583.534 176.778 511.936C166.755 493.798 156.904 475.541 145.884 457.973C144.676 456.05 143.773 453.823 141.543 452.749C140.985 452.444 140.043 452.921 139.897 453.412C152.549 500.507 172.516 545.865 186.589 592.656C206.238 653.421 221.015 715.552 238.128 776.98C243.146 790.517 242.629 789.363 252.984 795.409C257.777 797.518 265.039 805.672 269.102 799.069C284.794 776.33 298.389 752.172 312.728 728.572C323.8 711.773 352.065 709.943 369.948 702.584C486.09 669.225 613.702 655.715 731.754 686.435C754.377 690.095 778.261 721.452 800.619 713.205C827.53 702.531 848.639 682.232 870.797 664.266C910.48 630.284 944.481 586.676 951.132 533.548C952.712 521.283 955.155 507.362 950.548 495.667C946.114 514.309 944.826 535.205 937.192 553.714C916.999 607.479 874.953 652.89 824.901 680.31C817.214 685.547 814.877 691.261 806.766 683.054C773.336 655.887 741.327 627.115 707.14 600.876C668.626 572.966 678.278 582.075 681.092 537.976C683.163 492.114 683.615 445.894 680.057 400.138C677.176 399.289 677.468 416.406 676.897 419.469C676.1 441.532 673.817 463.435 670.471 485.246C664.961 524.386 655.124 562.784 640.4 599.497C630.894 625.246 617.366 609.866 605.404 595.917C588.968 577.912 573.474 559.111 558.406 539.965C489.9 454.181 466.786 413.29 535.252 543.439C618.932 689.829 651.805 629.939 480.46 661.787C476.026 661.973 469.853 665.314 466.242 662.039C458.754 651.671 449.766 642.177 444.03 630.669C414.265 579.503 380.158 530.856 348.985 480.513C309.395 418.289 274.173 353.453 238.712 288.83C215.426 244.678 193.294 197.808 186.908 147.915C190.161 117.884 198.365 57.3841 233.933 51.1525C244.434 51.0464 254.259 69.4231 261.415 76.5033C273.669 91.9498 284.011 109.001 296.769 123.957C296.769 123.93 296.597 124.142 296.597 124.142C297.447 121.464 296.663 118.971 295.76 116.479C288.551 96.4181 281.714 76.1984 273.576 56.4825C269.447 43.0116 257.206 29.4478 261.388 14.9824H312.794C330.823 46.8964 355.53 75.0316 374.356 106.561C385.203 123.042 396.05 139.509 406.883 156.003C412.804 163.362 403.325 168.188 396.793 168.427C381.99 169.302 367.16 169.978 352.795 165.006C351.933 164.794 350.685 164.489 349.994 165.032C349.875 165.563 349.676 166.411 349.941 166.65C378.578 194.029 417.265 200.911 453.908 211.266C484.019 219.791 514.952 224.724 543.815 237.372C556.998 241.443 562.269 253.641 563.849 266.29C568.403 282.479 570.819 299.066 573.474 315.626C580.245 354.925 584.879 395.311 592.778 434.054C595.393 394.304 591.49 353.175 594.278 312.974C594.039 286.815 597.783 230.359 571.549 216.304C494.732 190.145 525.427 218.094 494.387 143.619C489.555 134.643 497.959 129.035 503.88 123.532C526.011 103.366 548.502 83.5968 571.655 64.5969L571.987 64.2919L571.709 64.7693C556.042 70.2717 541.824 80.0964 527.684 88.8207C524.976 90.266 519.36 95.1054 518.006 90.0273C517.369 78.4126 511.222 64.9284 519.187 54.6793C526.463 44.2579 539.075 41.1818 550.387 37.0053C567.832 30.9858 585.715 26.5574 603.837 23.1101C614.153 20.3655 625.916 20.8959 635.076 14.9824H641.011C666.342 62.0512 685.978 113.999 721.187 154.744C772.805 216.013 824.503 277.414 876.015 338.564L875.829 338.683C854.135 290.965 817.44 251.016 785.616 209.648C741.539 153.298 698.033 93.9254 665.333 30.7604L665.2 30.7339C687.982 44.4302 712.159 56.5886 731.635 74.9653C765.237 127.457 797.273 181.46 837.102 229.855C897.27 304.475 958.859 379.679 1035.45 438.217C1058.22 453.61 1075.45 475.315 1097.73 491.305C1102.84 495.999 1113.4 500.228 1104.3 506.818C1058.54 555.067 1006.72 600.73 964.103 650.438C966.533 652.068 969.268 647.812 971.339 646.791C981.495 638.399 991.598 629.953 1001.74 621.547C1005.58 618.325 1010.46 613.432 1013.08 620.486C1018.04 632.764 1025.82 643.49 1032.58 654.747C1039.45 667.966 1125.49 792.956 1090.79 718.986C1077.84 688.132 1064.17 657.359 1046.3 628.985C1044.45 619.624 1026.55 602.626 1033.68 594.737C1061.5 570.036 1090.25 546.369 1116.78 520.236C1119.79 517.757 1122.99 512.201 1127.22 516.219C1133.77 521.721 1140.33 527.21 1146.75 532.885C1174.72 559.376 1204.88 583.242 1233.52 608.99C1250.66 622.369 1264.73 639.234 1282.03 652.453C1299.69 666.693 1314.19 684.606 1332.39 698.183C1335.06 700.065 1338.48 697.97 1339.48 695.159C1345.92 678.97 1344.76 666.852 1330.95 655.529C1319.28 643.53 1307 632.18 1294.92 620.605C1209.42 547.589 1129.76 461.606 1024.47 416.724C1009.75 409.074 1003.31 391.877 992.886 379.613C928.536 286.762 854.308 201.348 786.957 110.751C761.069 75.9332 818.104 115.179 826.494 121.331C842.744 129.883 881.91 170.548 897.137 165.351C911.25 160.843 925.708 157.568 940.046 154.12C957.545 148.777 939.648 138.488 932.917 132.283C927.952 129.035 924.221 124.089 919.535 120.668C912.989 117.897 908.688 112.156 902.846 108.47C897.974 105.434 898.439 98.3936 902.886 95.0657C914.423 83.7559 923.677 70.4043 935.148 59.0415C937.285 56.3764 940.724 57.8084 943.405 58.6172C948.769 58.4978 952.659 61.3352 956.483 64.6234C968.697 75.1642 981.004 85.5989 993.311 96.0203C997.347 100.197 1009.55 107.98 1000.63 96.7363C979.464 73.6924 955.713 53.1943 933.7 31.0388C931.483 23.6006 958.102 18.4297 962.47 23.1101C1000.19 47.1218 1037.22 72.3533 1074.65 96.9086C1081.59 101.218 1088.13 109.451 1097.2 107.211C1107.77 104.798 1118.63 103.644 1128.8 99.4278C1173.58 86.3016 1219.25 76.6226 1264.71 65.9891C1290.08 60.8447 1315.34 53.3799 1341.08 50.7149C1347.95 51.2188 1356.42 61.3485 1355.22 68.2828C1353.43 75.7873 1360.71 82.019 1357.85 89.2848C1356.4 94.6811 1359.95 100.17 1359.03 105.739C1358.97 106.495 1360.57 107.052 1361.44 106.733C1371.53 102.013 1368.25 65.0079 1380.05 55.1964C1398.65 39.3389 1423.1 25.9077 1448.26 30.0179C1452.3 30.7737 1456.04 30.5483 1459.81 28.8379C1472.72 22.9907 1486.42 21.6383 1500.37 22.2217C1507.08 23.2427 1527.39 21.8903 1516.17 32.4841C1511.33 39.8029 1498.14 47.8112 1501.79 57.6493C1506.73 67.8055 1515.43 75.2835 1522.27 84.1006C1526.69 87.8794 1542.91 111.692 1547.92 104.426C1549.61 80.8787 1544.11 56.5488 1539.92 33.2398C1545.21 22.951 1575.28 59.426 1579.37 64.7162C1588.81 74.2758 1596.04 94.5618 1609.96 96.5772C1629.95 98.4466 1649.88 100.966 1669.53 104.784C1683.02 105.739 1696.42 107.25 1709.71 109.73C1713.54 110.95 1721.53 110.313 1719.26 104.665C1711.37 94.111 1701.85 84.9492 1695.1 73.5599C1688.74 67.2884 1683.96 59.7177 1678.16 53.0087C1676.16 48.6863 1666.11 44.0855 1670.58 38.9013C1698.95 31.7018 1730.32 37.1777 1758.16 45.0932C1766.67 48.7261 1777.42 50.0122 1783.62 57.278C1793.78 70.6297 1804.31 83.7691 1814.01 97.4125C1834.48 126.847 1855.17 156.083 1874.63 186.233C1889.79 209.754 1903.11 234.376 1920.99 256.081C1947.65 287.106 1971.48 324.973 1998.98 352.989C1975.19 304.992 1943.62 259.594 1915.95 213.255C1897.89 184.152 1877.91 156.335 1857.9 128.571C1846.29 109.558 1822.36 90.9687 1829.48 66.4929C1835.84 55.74 1845.7 38.6892 1860.19 41.6061C1877.99 47.082 1891.97 62.2103 1908.82 68.7999C1902.87 53.8705 1885.09 54.918 1890.39 45.4512C1893.67 42.2691 1894.29 50.2509 1898.46 46.4058L1898.3 46.5649C1907.66 47.3339 1915.24 53.4993 1923.14 58.0205C1937.18 67.832 1952.83 75.1111 1966.94 84.7503C2000.94 107.98 2034.6 131.554 2063.42 161.254C2071.32 169.501 2067.98 182.866 2069.99 193.34C2074.55 227.137 2075.1 272.959 2111.04 289.201C2154.44 304.263 2168.08 303.693 2203.02 337.927C2222.34 359.712 2234.43 387.343 2248.98 412.455C2265.75 445.96 2283.02 479.346 2297.66 513.845C2385.81 728.333 2416.88 964.221 2398.74 1194.79C2398.41 1201.33 2396.7 1207.82 2397.81 1214.36C2397.89 1215.14 2399.56 1215.87 2400.25 1215.46C2409.77 1209.12 2417.33 1200.04 2426.12 1192.67C2435.99 1187.15 2417.61 1113.66 2465.26 1149.39C2488.5 1169.67 2511.63 1190.92 2539.78 1204.24C2549.43 1210.18 2545.02 1183.56 2544.29 1179.77C2540.48 1069.67 2529.47 959.62 2521.2 849.638C2516.17 805.977 2512.73 761.971 2510.53 718.018C2507.61 674.197 2507.85 629.674 2518.1 586.888C2522.86 562.359 2532.22 538.878 2543.27 516.563C2548.76 509.165 2552.85 500.812 2558.83 493.758C2562.9 488.905 2561.57 484.212 2554.72 483.973C2502.71 480.566 2451.63 466.551 2405.1 443.109C2396.86 440.962 2399.56 453.717 2399.21 458.543C2401.64 516.762 2398.34 574.995 2400.69 633.214C2401.2 652.638 2401.13 672.036 2400.25 691.447C2401.25 701.378 2395.38 724.965 2405.37 729.699C2410.6 736.076 2394.37 742.971 2389.53 737.561C2360.17 705.249 2360.57 657.504 2353.08 616.773C2348.97 582.831 2341.87 549.326 2335.52 515.715C2325.46 474.917 2322.63 432.251 2309.55 392.315C2306.99 378.46 2299.39 366.725 2291.39 355.615C2284.98 339.505 2274.32 323.184 2277.59 305.311C2300.48 242.994 2393.91 264.447 2388.47 236.961C2384.65 232.056 2377.67 229.841 2376.12 223.398C2375.2 220.839 2372.28 218.731 2370.37 216.768C2346.25 192.2 2326.24 163.521 2307.84 134.471C2301.11 118.878 2269.51 86.2751 2292.74 75.1774C2297.76 70.9214 2308.63 70.0993 2308.41 62.1308C2308.3 56.0052 2315.54 57.9675 2319.07 60.0624C2356.43 80.6268 2392.29 105.036 2424.17 133.317C2448.47 154.014 2469.7 177.88 2494.41 198.259C2510.47 212.393 2526.13 227.004 2542.6 240.661C2555.27 253.827 2580.71 266.807 2584.38 285.144C2583.61 293.537 2589.91 301.041 2587.49 309.315C2586 318.609 2593.31 337.728 2579.79 340.513C2575.94 340.619 2572.65 342.183 2570.89 345.684C2568.16 351.902 2560.39 350.072 2556.07 354.435C2541.21 365.811 2522.68 357.537 2506.9 352.79C2500.03 349.542 2425.35 328.129 2429.48 340.181C2457.25 361.21 2490.57 374.164 2523.54 384.824C2568.36 396.584 2615.26 399.568 2661.4 396.969C2680.03 391.984 2709.42 391.559 2711.33 416.724C2710.84 424.746 2716.38 431.893 2714.77 439.861C2714.32 441.717 2714.35 443.825 2714.69 445.721C2716.1 454.777 2716.42 464.549 2710.69 472.213C2705.78 474.307 2700.3 474.626 2696.86 479.253C2695.68 480.711 2693.86 481.998 2692.08 482.554C2683.21 485.259 2676.6 493.413 2666.71 492.379C2657.43 492.578 2646.32 487.42 2640.04 496.821C2580.81 574.73 2595.72 680.973 2602.57 772.604C2610.58 845.528 2615.24 918.703 2621.62 991.786C2624.85 1055.49 2628.78 1119.24 2631.24 1182.92C2636.16 1241.65 2616.94 1233.9 2674.5 1241.46C2691.82 1245.33 2711.7 1243.31 2727.24 1252.39C2742.94 1268.58 2713.8 1283.32 2702.45 1291.85C2689.56 1303.42 2634.04 1333.32 2633.16 1345.57C2632.31 1373.83 2631.43 1402.15 2631.36 1430.39C2631.77 1434.68 2636.51 1434.87 2639.89 1435.23C2648.04 1436.45 2656.1 1438.02 2663.9 1440.82C2691.11 1449.29 2709.18 1471.28 2720.86 1496.26C2722.47 1499.16 2723.32 1502.37 2722.9 1505.76L2722.95 1505.71C2705.12 1480.4 2688.1 1459.9 2654.83 1455.59C2647.94 1455.35 2634.78 1450.74 2630.92 1458.06C2626.1 1522.83 2624.82 1588.09 2618.52 1652.86C2605.36 1807.18 2585.72 1964.6 2523.05 2107.53C2534.68 2035.13 2547.85 1962.89 2553.29 1889.66C2559.34 1806.04 2561.28 1722.09 2561.3 1638.31C2560.47 1585.75 2561.89 1532.96 2557.78 1480.56C2558.47 1468.06 2508.89 1499.21 2502.39 1501.68C2457.94 1527.11 2414.5 1552.12 2372.85 1582.2C2350.83 1599.17 2328.02 1614.42 2302.9 1626.29C2296.95 1630.36 2286.49 1628.69 2286.05 1620.21C2304.12 1552.17 2372.27 1509.56 2423.83 1466.6C2430.88 1461.01 2430.63 1461.85 2430.5 1452.57C2430.39 1445.66 2430.03 1438.75 2429.81 1431.86C2427.62 1362.83 2426.05 1293.65 2430.05 1224.66C2429.85 1222.1 2431.21 1215.05 2427.35 1215.74C2418.24 1223.7 2394.09 1239.84 2393.38 1251.34C2391.59 1268.63 2386.22 1286.03 2392.51 1303C2400.49 1337.88 2413.82 1373.02 2416.96 1408.38C2402.99 1439.91 2374.09 1369.6 2366.52 1393.93C2352.83 1438.79 2329.15 1498.8 2285.65 1521.66C2274.61 1527.83 2259.83 1523.08 2254.81 1511.4C2241.63 1466.11 2241.87 1417.58 2234.42 1371.04C2229.18 1333.24 2225.26 1295.28 2220.27 1257.45C2217.85 1235.88 2215.38 1214.32 2211.39 1192.97C2210.72 1190.34 2210.88 1181.29 2207.26 1182.57C2199.56 1284.63 2193.86 1387.35 2186.73 1489.63C2186.74 1500.42 2181.65 1519.47 2167.33 1511.57C2160.88 1507.17 2159.62 1498.66 2157.6 1491.66C2151.72 1467.7 2146.31 1443.63 2141.88 1419.36C2140.42 1417 2134.1 1362 2130.69 1374.13C2130.04 1442.24 2135.7 1512.91 2120.8 1579.44C2118.94 1585.81 2112.62 1593.38 2108.75 1582.51C2102.2 1566.34 2096.72 1549.8 2090.96 1533.33C2081.18 1505.74 2070.52 1478.46 2059.48 1451.36C2036.39 1393.87 2006 1339.96 1972.85 1287.88C1963.7 1273.12 1953.87 1258.61 1943.22 1244.87C1939.01 1240.1 1937.64 1234.61 1938.65 1228.36C1942.43 1200.96 1940.87 1172.97 1935.4 1145.92C1932.89 1131.68 1929.61 1117.57 1927.13 1103.32C1928.04 1097.22 1943.15 1106.05 1946.14 1107.77C2027.84 1163.45 2066.78 1260.34 2091.89 1352.41C2112.89 1432.03 2113.02 1453.1 2111.11 1353.05C2110.02 1316.24 2109.62 1279.37 2107.87 1242.56C2106.69 1213.41 2072.48 1176.43 2054.55 1153.24C2019.73 1114.06 1990.83 1070.36 1963.76 1025.64C1945.77 993.549 1923.74 963.531 1909.63 929.469C1901.33 910.549 1893.87 891.39 1885.98 872.204C1884.31 860.749 1876.77 851.242 1875.92 839.495C1873.4 831.089 1870.48 822.802 1868.41 814.118C1864.05 801.535 1862.58 788.435 1861.77 775.309C1859.55 741.327 1848.49 708.843 1835.63 677.578C1816.34 628.468 1785.35 585.111 1759.42 539.607C1712.61 474.109 1660.18 407.218 1588.05 368.409L1588.2 368.21C1609.15 400.893 1641.18 425.913 1666.53 455.387C1704.6 497.59 1743.94 539.262 1775.78 586.517C1808.33 638.942 1838.32 695.73 1846.11 757.728C1855.16 851.759 1812.17 796.497 1772.87 765.033C1759.34 754.612 1720.52 716.811 1737.38 744.217C1768.75 796.802 1802.58 847.848 1834.3 900.154C1863.44 952.712 1889.71 1007.39 1908.65 1064.51C1921.8 1115.6 1933.11 1169.56 1925.92 1222.38C1923.94 1237.37 1916.64 1249.38 1901.58 1238.07C1897.36 1234.83 1895.05 1228 1889.97 1226.67C1887.42 1227.95 1888.88 1232.47 1888.72 1234.79C1891.55 1254.68 1897.81 1273.87 1903.84 1292.92C1918.24 1335.03 1936.43 1375.36 1955.47 1415.56C1977.79 1457.78 1999.83 1501.31 2032.31 1536.86C2110.33 1626.78 2215.33 1685.53 2309.62 1756.13C2378.36 1805.23 2429.37 1888.45 2370.4 1965.99C2354 1989.06 2335.11 2010.25 2317.61 2032.48C2305.9 2043.79 2309.76 2060.41 2312.95 2074.49C2321.38 2110.52 2345.14 2140.69 2353.65 2176.88C2367.44 2218.13 2374.14 2261.34 2377.99 2304.57C2387.14 2476.32 2359.83 2649.54 2308.4 2813.29C2289.73 2869.68 2267.62 2928.41 2234.88 2976.95C2249.91 2933.49 2269.1 2890.08 2279.21 2844.55C2302.26 2755.61 2314.79 2664.4 2323.53 2573.07C2329.04 2500.77 2334.1 2427.95 2324.61 2355.76C2318.3 2309.14 2305.86 2263.39 2288.75 2219.63C2278.64 2197.53 2268.9 2175.24 2257.85 2153.59C2250.96 2139.59 2242.66 2125.44 2241.64 2109.48C2236.27 2088.65 2246.77 2070.07 2260.81 2055.37C2294.6 2012.37 2339.91 1975.42 2359.28 1923.1C2394.48 1816.42 2063.66 1712.96 1995.07 1642.14C1960.76 1607.41 1926.42 1569.94 1907.32 1524.42C1884.52 1461.28 1860.03 1398.78 1834.8 1336.58C1825.36 1315.67 1819.97 1292.67 1807.53 1273.28C1798.56 1261.55 1791.54 1248.22 1782 1237.02C1782 1237.03 1782.12 1236.78 1782.12 1236.78C1833.83 1388.21 1904.45 1534.44 1951.97 1687.83C1962.18 1725.41 2021.55 1879.91 1979.16 1900.23C1970.93 1900.45 1966.69 1908.12 1959.57 1910.93C1949.34 1916.56 1937.59 1921.48 1925.73 1918.5C1876.97 1906.44 1835.79 1875.06 1790.43 1854.48C1742.41 1830.58 1695.47 1804.39 1646.07 1783.39C1626.9 1776.38 1608.31 1764.39 1587.56 1763.62C1554.9 1774.43 1626.02 1986.97 1634.13 2021.61C1636.67 2030.45 1639.39 2039.28 1642.43 2047.96C1644.2 2053.11 1650.37 2053.38 1654.87 2054.59C1698.88 2063.5 1740.08 2081.98 1781.26 2099.35C1781.43 2100.29 1781.58 2101.2 1781.74 2102.11C1781.74 2102.09 1781.55 2102.24 1781.55 2102.24C1781.46 2101.22 1781.37 2100.2 1781.27 2099.17C1791.93 2104.77 1804.36 2107.82 1813.44 2115.95C1813.44 2115.93 1813.27 2116.09 1813.27 2116.09C1818.08 2114.89 1822.12 2118.21 1826.07 2120.36C1826.05 2120.35 1825.26 2120.12 1825.26 2120.12C1832.39 2123.25 1838.92 2127.26 1846.13 2130.31C1850.58 2132.45 1854.33 2138.46 1859.71 2137.11L1859.5 2137.08C1904.76 2168.37 1951.61 2200.46 1991.34 2237.93C1989.43 2237.37 1987.52 2236.81 1985.61 2236.26L1985.64 2236.38C1984.91 2235.65 1984.18 2234.92 1983.44 2234.19L1983.67 2234.35C1982.89 2234.35 1982.12 2234.35 1981.33 2234.35L1981.44 2234.11C1978.9 2232.24 1976.37 2230.37 1973.85 2228.5L1973.61 2228.61C1973.61 2227.84 1973.61 2227.06 1973.61 2226.29L1973.77 2226.45C1973 2226.45 1972.21 2226.45 1971.44 2226.45L1971.55 2226.22C1903.49 2176.34 1827.38 2136.17 1747.27 2109.44C1720.28 2100.71 1692.57 2094.52 1664.28 2092.07C1661.92 2091.84 1658.4 2091.83 1657.83 2094.68C1673.22 2151.59 1693.2 2207.67 1708.93 2264.68C1710.44 2271.82 1714.12 2276.79 1721.37 2278.42C1746.66 2285.9 1770.44 2297.51 1795.37 2306.04C1867.5 2338.43 1939.69 2372.88 2001.91 2422.49C2057.17 2465.57 2115.15 2522.73 2122.06 2595.96C2119.63 2751.3 1938.15 2806.4 1808.99 2815.87C1803.95 2816.28 1796.65 2815.65 1796.81 2822.4C1795.97 2835.21 1795.98 2848.06 1795.05 2860.85C1793.29 2890.74 1789.37 2920.47 1784.1 2949.94C1753.96 3089.44 1669.1 3264.32 1558.34 3355.3V3355.28C1666.99 3246.76 1751.6 3079.19 1772.35 2927.02C1776.11 2894.68 1778.63 2862.17 1778.1 2829.56C1778.68 2820.51 1775.42 2816.52 1766.14 2817.96C1631.93 2820.71 1475.12 2792.66 1391.56 2677.91C1462.24 2742.32 1541.26 2772.18 1636.89 2780.01C1665.4 2783.12 1694.02 2784.5 1722.68 2784.62C1737.2 2784.88 1751.67 2784.18 1766.15 2783.82C1770.48 2783.82 1775.66 2782.64 1775.44 2777.43C1772.47 2706.23 1760.27 2635.47 1748.79 2565.2C1735.64 2499.87 1724.7 2432.28 1699.85 2370.4C1693.57 2362.04 1681.65 2361.73 1672.69 2357.56C1651.8 2348.84 1630.02 2342.43 1608.39 2335.61C1533.23 2313.6 1457.12 2295.15 1380.38 2279.44C1321.18 2268.53 1261.76 2258.81 1202.93 2245.83C1089.44 2223.3 978.242 2186.5 875.192 2133.77C852.688 2122.25 830.543 2109.56 811.16 2093.3C805.836 2089.34 801.322 2084.82 798.813 2078.39C792.865 2072.9 793.118 2065.4 792.44 2058.27C794.591 2048.19 802.637 2039.84 805.133 2029.58C808.266 2022.01 802.849 2015.11 800.805 2007.98C795.866 1991.62 805.743 1989.96 819.83 1992.75C874.262 1996.94 928.894 2000.69 983.46 2003.3C1004.48 2004.1 1015.55 1989.27 1016.78 1969.73C1019.19 1963.39 1046.27 1970.82 1053.04 1970.07C1081.93 1972.33 1110.38 1978.35 1139.05 1982.4C1227.8 2000.09 1318.43 2023.08 1397.28 2068.71C1400.14 2069.82 1402.55 2073.69 1405.85 2072.58C1407.01 2068.81 1398.34 2064.46 1395.58 2061.9C1355.09 2033.29 1308.12 2015.88 1261 2001.5C1248.85 1996.79 1234.89 1995.65 1223.99 1988.33C1179.86 1952.32 1135.49 1915.75 1089.34 1882.74C1090.31 1882.74 1091.29 1884.44 1092.23 1885.02C1103.82 1907.65 1125.74 1925.71 1132.17 1951.27C1135.83 1963.78 1122.49 1974.48 1111.12 1967.83C1069.6 1936.93 1033.75 1898.4 990.709 1868.99C980.579 1861.62 985.199 1872.99 987.735 1878.06C993.842 1892.63 999.113 1907.49 1003.39 1922.71C1008.01 1938.98 1005.75 1956.13 1004.4 1972.7C1003.49 1981.82 998.608 1990.6 988.585 1991.08C926.186 1989.56 863.588 1984.8 801.601 1978.16C787.103 1977.49 773.575 1970.6 761.055 1963.78C754.019 1961.24 750.248 1947.51 742.495 1949.51C721.996 1957.85 728.263 2058.36 727.426 2081.53C726.298 2092.72 731.038 2112.57 722.435 2120.46C714.495 2125.24 707.751 2126.62 699.652 2120.92C688.142 2102.48 684.517 2078.81 677.255 2058.15C666.09 2014.82 668.519 1967.1 676.392 1924.49C676.605 1919.44 674.467 1911.74 678.251 1908.62C680.362 1866.56 691.78 1824.43 698.112 1782.53C693.705 1773.46 680.787 1797.96 677.906 1801.26C665.877 1820.94 654.951 1841.2 645.14 1862.08C640.174 1871.84 641.794 1883.88 634.107 1892.35C628.12 1899.87 623.473 1908.17 619.53 1916.91C616.981 1923.68 614.033 1923.81 611.551 1917.22C593.827 1872.98 570.394 1830.88 542.315 1792.46C536.513 1790.4 541.332 1799.5 542.315 1801.83C560.331 1846.5 581.347 1889.54 605.789 1931.04C621.574 1966.79 636.484 2003.06 650.849 2039.43C656.557 2046.78 666.01 2105.31 650.742 2102.98C586.299 2081.98 522.546 2058.38 456.736 2041.86C452.301 2041.21 437.671 2036.02 438.096 2040.64C557.861 2085.48 682.871 2117.76 797.087 2176.02C934.962 2249.16 1109.04 2362.56 1165.05 2514.33C1168.45 2523.7 1178.3 2544.8 1159.53 2524.07C1131.25 2494.21 1102.43 2464.67 1069.96 2439.26C1029.53 2408.77 986.421 2381.63 941.759 2357.75C884.552 2324.43 828.937 2288.58 768.331 2261.37C668.639 2214.99 562.601 2183.5 463.467 2135.57C422.005 2114.01 350.419 2084.8 353.234 2029.62C355.106 2023.03 355.955 2014 346.781 2013.68C272.885 2000.09 200.622 1979.69 127.457 1962.95C126.448 1962.82 125.054 1963.58 125.133 1964.28C125.2 1964.88 125.24 1965.7 125.638 1966.02C150.186 1986.04 179.646 1998.79 207.805 2012.83C237.053 2024.94 262.716 2044.65 292.494 2055.1C306.129 2058.88 319.751 2062.9 333.186 2067.33C348.268 2070.84 351.548 2090.95 366.709 2099.21C389.597 2115.96 415.38 2128.21 441.189 2139.75C523.051 2173.68 603.89 2212.94 686.628 2243.14C697.953 2247.62 709.251 2252.19 720.549 2256.76C726.988 2258.55 727.44 2265.8 729.02 2271.23C730.254 2277.06 733.507 2281.3 738.379 2284.6C787.037 2317.24 833.809 2352.59 879.719 2388.96C908.781 2403.42 825.445 2312.26 829.614 2306.65L829.428 2306.7C843.262 2313.64 857.136 2320.5 870.903 2327.53C882.972 2333.7 880.954 2332.6 887.18 2342.5C904.346 2369.84 920.305 2397.86 934.709 2426.75C939.622 2437.67 948.384 2444.95 957.664 2452.03C971.219 2464.03 984.735 2476.07 998.303 2488.06C1025.8 2511.62 1052.01 2536.65 1078.35 2561.48C1243.82 2722.96 1399.21 2909.3 1462.3 3135.83L1462.35 3135.67C1458.13 3133.18 1457.32 3128.18 1455.33 3124.08C1449.02 3109.24 1442.9 3094.32 1436.35 3079.58C1425.8 3055.8 1413.64 3032.82 1401.04 3010.06C1354.2 2925.4 1294.87 2847.9 1229.35 2776.85C1174.05 2714.9 1112.25 2659.32 1049.93 2604.57C1034.61 2591.09 1018.85 2578.11 1002.72 2565.58C991.678 2557.16 999.644 2575.94 1000.81 2580.42C1017.59 2636.09 1040.65 2704.16 1016.73 2760.39C983.619 2829.28 840.156 2742.59 790.051 2723.11C684.876 2670.86 574.855 2620.39 487.908 2539.9C482.943 2537.14 467.835 2511.3 464.94 2524.9C463.759 2542.19 461.874 2562.8 473.836 2576.97C486.913 2590.96 496.1 2607.93 509.668 2621.49C515.43 2629.66 522.214 2637.77 527.087 2646.43C528.972 2656.59 539.314 2665.86 532.026 2676C517.156 2704.43 496.857 2703.01 468.485 2697.9C432.068 2689.02 394.722 2682.31 368.156 2653.66C314.653 2610.3 268.066 2559.27 221.108 2509.12C182.726 2468.83 147.066 2426.03 114.539 2380.87C92.3143 2349.93 70.3022 2318.37 54.437 2283.59C50.8657 2276.27 41.7316 2249.91 46.4447 2251.55C74.6568 2309.14 123.633 2353.12 167.259 2399.08C243.2 2473.78 316.126 2560.83 418.38 2599.38C425.802 2601.46 428.829 2598.25 427.979 2590.9C427.13 2569.6 430.449 2548.97 437.711 2528.91C440.711 2515.91 450.841 2501.7 447.907 2488.43C439.676 2472.62 432.745 2456.22 429.586 2438.6C415.061 2362.99 466.202 2290.62 530.857 2255.92C539.713 2242.73 503.19 2235.25 495.157 2229.44C482.864 2223.86 470.663 2218.07 458.276 2212.7C368.05 2176.08 276.098 2142.4 179.938 2125.15C150.903 2119.95 63.133 2105.86 137.746 2145.53C145.393 2149.69 153.757 2151.36 162.334 2152.32C163.674 2152.58 165.082 2153.3 165.268 2154.65C163.648 2162.88 194.237 2153.88 200.383 2155.3C239.084 2122.5 420.319 2344.29 413.707 2388.99C414.252 2398.33 406.817 2403.96 403.033 2411.69C389.372 2440.14 352.437 2434.57 328.022 2425.26C268.61 2401.93 220.417 2359.45 170.246 2321.47C170.26 2321.47 170.352 2321.3 170.352 2321.3C228.543 2410.43 319.976 2475.43 413.84 2523.14C419.907 2525.63 415.672 2530.25 409.99 2527.38C377.078 2514.75 347.286 2495.18 317.706 2476.28C293.265 2460.11 269.009 2443.67 244.673 2427.32C206.212 2401.49 175.915 2365.88 147.504 2329.75C134.108 2310.71 86.8843 2249.56 102.072 2228.34C115.707 2207.95 103.878 2212.75 105.776 2201.37C111.286 2192.19 168.666 2240.98 178.225 2246.9C210.049 2270.85 242.642 2293.68 276.603 2314.58C286.002 2319.99 377.529 2382.73 374.741 2361.31C343.701 2295.35 295.92 2234.44 236.389 2191.81C214.018 2176.01 188.7 2175.8 164.099 2186.39C128.466 2198.06 97.5319 2169.23 70.6076 2149.92C53.0961 2135.17 32.3718 2123.32 19.0158 2104.36C11.8732 2093.83 30.7654 2079.37 32.3187 2066.11C34.2703 2056.31 32.9692 2046.17 45.0108 2043.13C58.6987 2038.86 52.3659 2034.27 41.7316 2034.09L41.5855 2034.3C55.9107 2017.74 77.9493 2027.18 96.8548 2025.69C140.746 2023.06 184.253 2030.56 227.135 2037.32C223.524 2031.83 209.916 2029.04 203.065 2025.22C188.82 2019.2 174.508 2013.3 160.316 2007.15C122.704 1990.49 86.8843 1968.62 59.6413 1937.39C41.8112 1917.26 27.0082 1893.49 22.4809 1866.69C20.7019 1857.21 30.0352 1858.38 28.2429 1853.49C1.90266 1820.06 -10.1788 1777.7 -8.67856 1735.42C-7.28455 1705.84 -2.46525 1676.54 2.72579 1647.42C5.76606 1635 5.69968 1619.54 18.6441 1613.04C33.0754 1601.97 47.7059 1617.87 52.9235 1631.14C55.7779 1638.25 62.2302 1645.07 57.9685 1653.12C35.5581 1697.11 11.3687 1721.06 21.2462 1775.22C26.8887 1803.95 53.282 1823.19 78.0025 1835.6C97.2266 1844.59 117.513 1856.03 138.927 1857.2L138.755 1857.37L138.688 1857.35ZM471.048 2463.43C475.163 2458.98 477.473 2451.86 484.868 2453.69C503.986 2427.62 666.262 2337.33 635.78 2305.59C615.069 2291.47 592.579 2280.45 571.191 2267.48C563.942 2263.6 556.414 2258.98 548.037 2261.97C464.144 2286.73 411.198 2389.45 453.085 2469.36C457.758 2481.8 463.998 2467.92 468.87 2463.33C469.6 2463.37 470.317 2463.39 471.048 2463.43ZM1759.94 161.121L1760.08 160.949C1760.08 160.949 1759.92 161.108 1759.94 161.121ZM961.435 832.335L961.567 832.097C961.621 833.237 962.112 834.059 963.253 834.417C975.786 850.142 992.767 862.472 1006.52 877.336C1043.36 917.086 1080.96 963.73 1091.49 1017.87C1091.49 1020.19 1088.28 1021.84 1086.34 1020.64C1082.79 1018.98 1080.88 1013.85 1076.42 1016.67C1076.08 1016.87 1075.01 1016.47 1074.73 1016.06C1045.02 946.852 975.494 866.609 902.116 844.427L902.315 844.281C952.725 893.153 1000.35 945.738 1037.32 1005.79C1069.8 1061.63 1092.42 1122.24 1118.13 1181.31C1120.94 1186 1125.54 1201.18 1129.65 1200.89C1128.52 1187.15 1122.79 1173.5 1120.03 1159.8C1107.49 1109.7 1094.78 1058.12 1098.88 1006.13C1098.95 984.281 1106.12 963.332 1106.41 941.561C1105.66 935.104 1099.14 930.623 1095.38 925.664C1086.17 918.398 1075.4 901.254 1063.87 900.008C1055.14 901.321 1048.61 894.797 1041.88 890.382C1015.39 872.47 990.789 850.009 963.293 834.417C963.174 833.277 962.444 832.693 961.435 832.375V832.335ZM1583.87 1698.41C1583.87 1698.41 1583.8 1698.65 1583.83 1698.68L1583.87 1698.96V1698.41ZM2371.05 1540.81C2371.75 1540.16 2372.44 1539.49 2373.14 1538.84C2392.21 1530.29 2409.96 1515.73 2428.79 1505.37C2432.64 1502.9 2431.75 1491.05 2425.72 1496.3C2410.24 1509.41 2392.87 1520.72 2378.57 1534.99C2375.24 1536.14 2373.48 1539.35 2370.62 1541.23L2371.05 1540.79V1540.81ZM1234.82 1743.59C1234.7 1743.83 1234.59 1744.05 1234.48 1744.29C1234.63 1744.09 1234.81 1743.9 1234.97 1743.71C1215.4 1704.27 1152.39 1551.35 1206.48 1526.82C1211.47 1525.76 1217.04 1530.72 1214.79 1535.75C1211.91 1542.73 1212.34 1549.92 1213.06 1557.15C1214.32 1569.94 1216.54 1582.56 1219.15 1595.13C1237.75 1677.47 1259.1 1761.08 1295.63 1837.25C1305.81 1851 1348.29 1923.27 1318.04 1927.66C1282.31 1897.35 1245.95 1867.6 1209.48 1838.15C1201.54 1831.29 1189.85 1833.38 1180.14 1831.44C1178.38 1831.44 1175.91 1831.08 1174.56 1832.18C1211 1870.38 1258.49 1902.16 1300.37 1935.93C1340.69 1966.15 1378.52 1999.44 1417.06 2031.73C1442.9 2053.14 1468.68 2074.65 1494.21 2096.43C1509.6 2109.37 1525.86 2121.34 1536.38 2138.86C1541.05 2147.37 1546.48 2157.05 1535.93 2163.75C1532.29 2166.81 1537.32 2171.57 1533.56 2174.6C1530.68 2177.49 1527.24 2179.64 1527.85 2184.27C1524.63 2201.27 1503.32 2206.89 1488.07 2205.96C1474.98 2206.62 1466.2 2196.52 1456.1 2190.04C1427.9 2170.57 1396.09 2157.31 1364.9 2143.5C1289.74 2115.91 1211.97 2094.68 1132.63 2082.31C1082.73 2073.25 1032.18 2069.67 981.814 2064.29C965.298 2060.88 948.411 2060.68 932.2 2056.96C913.361 2057.46 892.531 2049.56 874.886 2053.45C876.015 2057.03 879.573 2058.95 882.6 2060.68C897.921 2069.78 914.596 2076.08 930.859 2083.24C993.975 2110.02 1059.92 2129.14 1126.38 2145.51C1255.74 2175.04 1388.03 2189.88 1517.07 2221.08C1562.56 2230.44 1607.33 2242.85 1651.74 2256.33C1654.9 2257.19 1658.06 2258.23 1661.43 2257.86C1664.84 2257.02 1664.07 2253.02 1663.45 2250.4C1659.22 2236.56 1654.15 2222.99 1649.64 2209.24C1588.5 2035.12 1643.4 2116.05 1532.1 2078.92C1519.33 2073.15 1505.86 2070.64 1492.21 2068.14C1465.7 2056.49 1459.76 2023.2 1448.45 1999.26C1438.77 1972.99 1435.32 1944.79 1426.2 1918.52C1402.87 1859.99 1381.24 1800.36 1351.69 1744.59C1301.87 1638.07 1239.64 1535.65 1159.17 1449.12C1132.83 1420.71 1104.06 1393.94 1071.34 1373.03C1061.33 1367.7 1044.78 1352.28 1035.58 1354.06C1033.67 1358.1 1037.31 1362.21 1038.48 1366.04C1048.39 1386.82 1057.09 1408.19 1068.69 1428.15C1089.35 1469.31 1111.64 1509.64 1133.42 1550.22C1154.18 1588.74 1174.32 1627.6 1193.76 1666.8C1204.67 1688.58 1215.29 1710.49 1226.55 1732.08C1227.44 1733.79 1228.33 1735.64 1230.39 1736.37C1230.37 1739.45 1233.68 1740.84 1234.81 1743.57L1234.82 1743.59ZM474.433 912.1L474.632 911.291C477.712 929.642 483.713 923.37 474.433 912.1ZM304.987 1351.42L305.293 1352.15L304.815 1351.56C307.165 1345.86 280.971 1258.86 277.333 1292.77C285.923 1312.37 293.583 1333.52 304.987 1351.42ZM724.147 1331.87L724.214 1332.13L723.948 1332.09C718.425 1317.62 705.64 1306.43 697.488 1293.2C671.759 1258.86 650.278 1220.63 627.774 1184.87C625.836 1185.99 626.672 1188.31 626.805 1190.1C629.394 1204.67 632.156 1219.21 634.598 1233.8C635.607 1239.86 638.196 1244.91 642.02 1249.64C655.628 1265.63 666.767 1283.9 681.743 1298.65C695.855 1309.44 707.539 1325.11 724.16 1331.87H724.147ZM1255.9 457.23L1256.01 457.005C1264.73 470.688 1280.44 479.942 1292.56 490.841C1323.82 519.878 1354.8 549.14 1386.28 577.978C1388.43 579.821 1392.44 583.215 1394.36 579.304C1396.43 572.396 1398.46 565.488 1400.38 558.541C1401.52 554.987 1398.12 552.627 1395.58 550.758C1372.23 533.72 1348.97 516.55 1325.47 499.711C1302.98 484.808 1280.89 467.439 1255.9 457.243V457.23ZM492.794 1406.91L492.887 1407.13H492.608C482.545 1378.82 460.573 1354.86 450.23 1326.13C425.589 1269.36 405.98 1210.56 393.514 1149.88C369.311 1049.34 466.958 1084.4 512.496 1125C577.948 1179.49 574.032 1185.83 544.12 1104.29C542.248 1098.89 527.923 1074.84 522.108 1083.34C520.502 1095.59 528.866 1109.34 527.525 1120.56C522.971 1116.68 523.688 1112.08 516.267 1113.05C489.449 1094.79 462.285 1073.73 428.736 1069.95C406.485 1066.68 380.025 1076.58 374.608 1100.39C368.714 1115.45 378.658 1131.32 374.104 1146.16C369.165 1159.13 361.465 1170.67 354.867 1182.81C350.764 1191.6 356.022 1201.71 357.402 1210.7C360.735 1222.75 363.456 1234.95 366.218 1247.14C373.653 1286.33 384.008 1232.92 388.615 1221.93C390.009 1217.4 392.359 1215.06 394.483 1220.74C417.995 1286.62 445.929 1354.61 492.807 1406.91H492.794ZM1427.99 1461.13L1428.07 1460.94C1373.2 1513.35 1293.44 1467.35 1243.48 1429.95C1187.8 1389.51 1130.61 1351.06 1076.41 1308.63C1056.98 1288.77 1036.25 1270.11 1016.09 1250.77C1008.45 1246.75 978.973 1209.19 977.127 1221.1C981.057 1234.32 988.505 1246.28 991.957 1259.72C997.732 1278.88 1001.04 1298.85 1002.29 1318.81C1002.56 1322.54 1000.4 1331.62 1006.45 1330.81C1017 1328.92 1019.77 1321.24 1022.96 1312.12C1028.03 1301.56 1040.19 1297.87 1048.82 1306.54C1105.46 1348.85 1163.41 1389.8 1222.59 1428.57C1255.45 1447.33 1277.08 1479.9 1300.43 1508.75C1371.74 1601.72 1429.56 1704.49 1475.02 1812.45C1494.27 1857.86 1511.79 1904.05 1526.5 1951.13C1534.83 1969 1533.1 1990.85 1543.55 2007.48C1554.71 2020.95 1570.84 2029.66 1587.32 2034.84C1595.14 2035.77 1587.89 2019.56 1587.2 2016C1571.31 1966.52 1557.86 1916.35 1542.98 1866.59C1534.57 1831.56 1518.61 1796.34 1521.97 1759.76C1521.66 1749.9 1533.76 1742.42 1529.67 1737.61C1474.09 1699.97 1437.06 1641.35 1398.58 1587.6C1384.74 1565.68 1369.84 1544.36 1357.76 1521.36C1352.53 1511.92 1343.63 1503.09 1341.83 1492.35C1342.78 1489.65 1347.52 1490.81 1349.81 1490.87C1359.6 1492.93 1369.5 1492.45 1379.36 1492.33C1402.13 1494 1420.1 1475.94 1422.91 1483.37C1444.72 1534.5 1463.94 1586.74 1488.08 1636.87C1503.48 1667.22 1517.42 1699.29 1540.43 1724.81C1544.21 1728.84 1548.55 1734.08 1554.51 1730.31C1559.59 1727.32 1565.25 1724.64 1567.05 1718.5C1571.69 1705.64 1578.6 1692.78 1590.13 1684.86C1626.63 1654.3 1705.31 1704.75 1742.45 1720.87C1770.68 1733.51 1798.39 1747.26 1825.74 1761.74C1841.63 1770.45 1858.38 1777.41 1874.13 1786.37C1895.17 1797.39 1885.27 1781.1 1882.13 1768.49C1862.26 1706.12 1841.14 1644.23 1817.85 1583.05C1770.75 1460.59 1722.39 1337.91 1664.63 1219.89C1645.63 1180.06 1620.95 1143.43 1599.12 1105.25C1589.48 1089.65 1579.49 1074.08 1570.54 1058.03C1565.71 1046.81 1568.49 1033.82 1569.3 1022C1570.31 1014.51 1571.49 1007.02 1574.4 999.953C1575.2 998.68 1574.34 996.095 1572.7 996.957C1549.58 1038.48 1554.57 1119.63 1565.33 1165.44C1592.91 1276.32 1644.78 1379.55 1691.83 1483.14C1692.87 1485.2 1694.74 1492.6 1690.54 1489.22C1637.36 1408.11 1592.64 1320.99 1558.99 1230.13C1541.25 1183.68 1528.45 1135.46 1520.31 1086.47C1514.26 1067.11 1502.4 1049.86 1497.56 1029.85C1492.23 1012.88 1486.96 1064.97 1484.97 1067.97C1481.1 1081.07 1479.6 1101.24 1464.57 1106.2C1458.29 1107.04 1460.13 1110.08 1462 1114.47C1499.06 1197.51 1624.49 1421.17 1589.59 1502.12C1584.44 1512.84 1576.7 1523.73 1565.45 1528.46C1546.14 1534.57 1522.52 1532.88 1506.39 1519.66C1475.39 1498.67 1453.63 1467.13 1436.86 1434.48C1399.8 1357.32 1364.97 1278.52 1341.5 1195.23C1332.37 1173.67 1327.94 1150.65 1321.67 1128.19C1314.46 1094.7 1307 1060.06 1311.69 1025.71C1314.85 997.023 1342.76 988.922 1336.11 978.991C1328.99 970.386 1321 962.497 1313.67 954.051C1301.14 938.26 1314.7 915.256 1313.31 896.574C1313.85 881.777 1316.1 867.1 1317.12 852.356C1318 837.891 1319.26 823.492 1321.81 809.225C1322.59 805.566 1321 802.118 1320.15 798.631C1315.42 787.003 1301.14 782.681 1292.15 774.62C1281.29 768.428 1282.75 779.592 1282.38 787.361C1282.16 796.616 1280.69 805.685 1278.67 814.701C1276.83 822.908 1273.61 830.293 1267.47 836.273C1262.58 840.118 1262.22 846.721 1258.84 851.507C1253.74 856.639 1248.61 861.783 1243.22 866.596C1225.39 887.107 1172.86 874.485 1179.82 888.672C1183.2 895.089 1186.51 901.546 1193.04 905.524C1204.18 913.811 1209.69 927.573 1216.82 939.082C1241.54 992.25 1249.44 1053.07 1268.81 1108.54C1291.06 1178.15 1319.51 1245.36 1349.41 1311.99C1365.57 1350.11 1383.66 1387.44 1399.42 1425.76C1404.49 1436.82 1408.55 1448.34 1413.76 1459.32C1416.76 1465.47 1423.07 1460.98 1427.99 1461.16V1461.13ZM1019.97 2715.67C1017.25 2659.93 996.59 2595.69 970.595 2544.46C962.324 2530.05 946.632 2522.06 934.271 2511.55C893.779 2478.96 850.816 2449.54 808.757 2419C793.131 2406.85 776.257 2396.58 759.807 2385.67C756.687 2383.03 755.413 2388.69 752.997 2386.53C747.208 2377.4 739.627 2370.57 730.148 2365.35C708.933 2351.52 688.168 2336.95 666.554 2323.74C657.447 2317.23 653.305 2320.25 648.193 2329.49C640.918 2340.94 632.222 2351.21 622.623 2360.76C599.602 2383.42 572.983 2401.93 547.307 2421.39C532.172 2432.58 456.59 2488.73 478.257 2507.16C550.533 2584.79 653.159 2624.12 746.173 2670.97C797.685 2695.24 848.852 2720.2 900.244 2744.73C954.411 2767.42 1019.68 2811.12 1019.97 2715.67ZM2228.29 1124.31C2235.68 1221.87 2253.9 1318.15 2267.07 1415.03C2272.24 1434.97 2271.01 1533.41 2299.38 1476.37C2306.95 1460.98 2313.1 1445.01 2317.7 1428.49C2319.3 1416.51 2338.17 1371.05 2328.81 1364.19C2322.02 1360.21 2314.57 1357.34 2307.49 1353.87C2303.76 1351.39 2301.37 1355.42 2301.4 1358.56C2297.7 1373.07 2299.18 1430.96 2276.76 1412.75C2272.52 1406.88 2274.26 1398.51 2273.74 1391.64C2274.28 1375.54 2275.28 1359.45 2275.87 1343.34C2274.21 1334.11 2256.9 1330.44 2268.78 1316.8C2271.7 1313.44 2277.83 1312.6 2278.35 1307.54C2278.94 1302.31 2279.63 1297.1 2280.06 1291.85C2283.98 1249.68 2289.78 1207.24 2303.91 1167.15C2311.9 1144.95 2322.16 1122.57 2341.81 1108.34C2350.46 1094.81 2342.33 1072.77 2343.15 1057.1C2340.84 1033.31 2342.01 1008.85 2336.62 985.527C2310.71 716.36 2215.7 443.202 2022.52 247.462C1987.53 212.393 1947.69 178 1904.8 154.425C1910.24 170.376 1924.33 184.046 1932.56 199.293C1941.57 213.454 1950.29 227.786 1959.04 242.106C1966.48 259.064 2064.35 401.013 2013.24 394.927C2005.75 392.633 2001.2 385.924 1996.39 380.236C1987.23 368.595 1978.17 356.874 1969.05 345.193C1965.89 341.428 1963.3 337.105 1959.48 333.963C1959.04 333.857 1957.25 333.963 1957.64 335.077C1961.37 345.71 1969.72 355.482 1969.25 367.123C1967.62 373.898 1971.6 385.341 1962.85 388.046C1954.64 388.629 1948.24 398.109 1939.95 393.8C1932.09 390.737 1927.22 383.511 1921.96 377.319C1911.65 364.485 1901.07 351.889 1889.95 339.744C1883.42 334.52 1876.38 320.267 1867.77 326.458C1866.35 327.917 1865.91 330.091 1866.96 331.908C1875.35 347.195 1886.06 361.077 1894.47 376.351C1922.94 421.02 1942.37 471.006 1965.92 517.902C1970.27 519.149 1971.36 501.462 1978.01 495.628C1997.58 467.227 2026.25 447.153 2049.07 421.922C2052.92 417.653 2056.13 404.831 2062.73 407.364C2064.91 409.485 2067.32 410.798 2070.36 411.434C2079.31 414.166 2074.63 427.875 2082.09 432.913C2084.94 436.175 2082.96 441.386 2085.5 444.979C2097.3 464.668 2081.98 481.759 2080.6 501.912C2079.11 515.423 2076.59 558.448 2088.69 566.469C2157.38 587.432 2206.13 633.188 2230.62 700.927C2244.72 743.872 2264.84 785.704 2268.63 831.248C2269.15 851.746 2272.8 876.368 2257.33 892.331C2256.87 893.458 2257.71 895.01 2258.68 895.686C2266.69 901.48 2273.81 908.414 2281.68 914.328C2294.16 923.715 2304.07 935.635 2315.03 946.507C2324.65 955.39 2322.03 969.259 2326.31 980.569C2327.41 1021.35 2327.65 1017.65 2297.76 1046.56C2284.14 1056.49 2279.27 1074.07 2265.04 1083.03C2237.89 1103.64 2228.14 1080.94 2228.26 1124.29L2228.29 1124.31ZM400.046 1810.37C399.926 1810.37 399.807 1810.37 399.701 1810.37C400.285 1799.91 399.063 1788.79 406.286 1780.21C439.715 1729.33 471.592 1677.4 502.818 1625.19C506.694 1619.01 528.574 1656.22 531.468 1660.19C536.845 1663.68 541.571 1681.43 546.895 1679.04C565.708 1661.16 586.246 1670.29 559.534 1648.84C513.213 1592.83 552.564 1601.43 544.824 1570.78C523.343 1504.95 651.459 1539.94 682.3 1548.09C724.652 1561.42 765.675 1579.22 804.429 1600.82C841.616 1619.82 878.869 1638.72 914.994 1659.69C922.11 1662.65 951.902 1685.17 955.182 1678.05C909.445 1627.53 860.508 1578.9 819.259 1524.72C813.523 1515.3 779.709 1481.42 794.445 1473.29C804.442 1469.96 814.864 1468.11 824.954 1465.09C835.257 1463.72 879.44 1443.79 883.051 1451C905.674 1478.36 926.996 1506.77 946.897 1536.19C989.156 1596.59 1030.07 1657.86 1068.53 1720.74C1101.23 1772.66 1087.44 1769.18 1140.64 1807.02C1146.07 1810.6 1150.5 1816.22 1156.95 1817.86C1166.27 1818.35 1192.56 1827.71 1186.61 1816.86C1129.39 1732.05 1066.14 1651.49 1005.03 1569.47C974.844 1529.17 944.813 1488.74 915.18 1448.03C913.826 1444.8 907.931 1439.91 912.803 1437.19C920.57 1434.47 928.337 1431.79 936.143 1429.17C938.918 1428.24 941.374 1428.96 943.233 1431.24C965.325 1458.65 988.133 1485.5 1010.77 1512.49C1055.96 1566.04 1102.38 1618.65 1150.52 1669.58C1168.69 1685.06 1124.47 1618.76 1123.9 1615.2C1100.4 1574.82 1077.95 1533.83 1055.17 1493.05C1034.3 1456.51 1012.93 1420.01 997.838 1380.61C991.612 1367.54 984.695 1389.22 977.512 1390.97C964.156 1401.6 948.849 1409.64 933.86 1417.76C912.697 1425.84 889.278 1427.18 868.394 1436.17C853.405 1441.01 838.018 1444.92 822.843 1449.27C793.197 1456.39 759.821 1463.49 730.679 1451.1C718.465 1445.26 705.189 1442.27 692.523 1437.61C682.712 1433.81 675.25 1425.61 666.568 1419.83C661.217 1416.82 659.106 1410.71 653.915 1407.58C645.538 1402.76 629.832 1380.02 620.499 1389.11C605.709 1404.17 592.871 1420.87 580.272 1437.76C576.249 1444.3 568.443 1450.61 567.301 1458.03C571.191 1458.36 574.324 1452.28 577.404 1449.9C583.445 1443.38 589.353 1436.74 595.367 1430.2C597.106 1428.68 599.084 1425.64 601.594 1426.16C627.881 1449.68 651.685 1481.88 689.536 1486.01C699.533 1487.85 698.789 1476.5 705.268 1476.63C713.035 1478.03 720.602 1480.44 728.595 1480.59C732.511 1480.47 734.051 1484.05 732.896 1487.41C726.71 1517.18 695.656 1532.75 667.71 1536.51C634.93 1539.8 603.811 1521.51 578.466 1502.46C539.792 1472.17 553.732 1519.23 542.806 1539.73C529.264 1569.8 512.536 1598.12 494.387 1625.62C470.158 1666.05 444.057 1705.1 416.508 1743.27C394.178 1773.86 375.538 1810.23 343.914 1832.16C302.478 1860.36 255.772 1875.46 205.508 1875.02C204.273 1875.06 204.393 1876.76 205.296 1877.13C221.533 1881.28 237.982 1884.73 254.206 1888.93C313.683 1901.98 368.156 1929.3 423.957 1952.72C485.041 1983.69 544.983 2017.04 602.51 2054.21C604.275 2055.82 610.422 2058.91 609.387 2054.35C596.27 2039.8 578.426 2029.74 562.11 2019.03C518.55 1991.01 472.003 1968.56 426.253 1944.59C422.403 1938.23 454.758 1924.98 459.444 1919.43C467.184 1911.54 491.493 1906.17 485.041 1891.85C476.478 1864.22 475.615 1834.77 468.923 1806.65C468.671 1805 467.211 1802.03 465.418 1802.89C462.298 1805.85 465.272 1811.25 465.14 1815.07C468.313 1833.23 469.72 1851.62 472.11 1869.88C473.411 1879.37 472.256 1889.86 463.626 1895.59C456.842 1901.55 447.867 1903.66 440.937 1909.2C431.604 1915.34 419.735 1909.8 412.326 1902.92C395.027 1889.04 400.603 1831.89 400.072 1810.34L400.046 1810.37ZM1802.46 2781.46C1895.85 2772.7 1997.12 2741.3 2055.39 2663.48C2079.98 2632.83 2064.72 2613.17 2048.41 2583.69C2018.76 2542.52 1977.38 2510.78 1934.95 2483.1C1917.47 2469.63 1897.53 2459.89 1878.27 2449.3C1835.83 2425.17 1791.54 2403.48 1746.17 2385.76C1742.97 2385.57 1742.24 2388.97 1742.8 2391.49C1747.45 2418.38 1754.12 2444.89 1759.08 2471.72C1769.8 2528.92 1778.33 2586.56 1785.08 2644.35C1789.4 2682.58 1793.33 2720.87 1795.28 2759.3C1796.9 2766.37 1791.76 2781.57 1802.46 2781.47V2781.46ZM1961.57 712.913C1959.55 689.816 1981.8 707.994 1991.36 713.099C2001.93 719.808 2012.2 726.928 2021.73 735.095C2023.27 736.514 2026.39 737.959 2027.5 735.387C2027.67 721.942 2022.16 708.259 2023.57 694.444C2024.42 683.929 2025.76 673.508 2029.75 663.617C2031.24 659.957 2032.65 656.179 2032.12 652.161C2031.89 646.142 2025.49 643.53 2021.69 639.751C2012.04 630.934 2009.84 617.105 2005.84 605.251C2000.31 594.499 1987.88 606.538 1984.07 613.034C1977.34 622.289 1963.4 618.073 1955.56 612.425C1948.73 607.665 1947.9 598.012 1944.69 590.813C1937.1 567.583 1924.71 546.449 1911.47 526.057C1866.18 455.679 1805.73 397.022 1757.19 329.044C1742.21 307.697 1697.39 254.582 1697.67 231.883C1696.69 228.9 1697.06 226.156 1698.54 223.331C1701.43 212.791 1686.06 211.452 1683.12 199.89C1680.21 192.147 1689.11 186.459 1692.92 180.771C1697.51 171.37 1653.42 173.041 1645.76 170.27C1631.1 167.976 1616.17 169.023 1601.47 166.796C1600.05 166.517 1597.79 167.419 1597.74 168.944C1609.64 188.209 1626.05 205.22 1638.86 224.18C1646.21 233.236 1685.94 297.077 1650.05 262.564C1600.77 217.338 1544.04 181.036 1495.37 135.147C1487.08 129.923 1465.83 101.642 1459.18 107.927C1451.36 117.698 1446.68 129.592 1439.99 140.066C1429.52 156.507 1413.29 175.175 1414.66 195.501C1417.04 219.261 1426.92 241.151 1437.16 262.445C1448.65 281.259 1453.88 308.228 1475.49 318.039C1501.45 329.959 1503.88 338.166 1523.99 312.205C1528.56 303.985 1519.45 292.29 1533.76 289.838C1594.7 284.852 1651.96 315.082 1701.39 347.606C1775.48 393.256 1827.51 464.854 1864.83 542.113C1894.33 601.181 1918.43 663.272 1933.01 727.71C1948.06 786.009 1966.11 843.274 1992.54 897.582C2005.32 930.358 2013.73 964.671 2026.87 997.354C2039.39 1030.28 2056.19 1061.33 2071.21 1093.14C2074.53 1099.94 2077.99 1106.66 2081.48 1113.38C2082.35 1114.46 2083.28 1116.66 2084.9 1116.31C2086.19 1115.42 2085.18 1112.98 2085.14 1111.7C2074.28 1065.93 2060.42 1020.98 2043.56 977.082C2035.37 954.886 2020.09 935.661 2013.54 912.856C2007.34 887.651 1999.07 863.003 1988.37 839.296C1982 827.549 1980.06 814.515 1977.88 801.522C1974.64 792.492 1972.9 783.118 1971.62 773.691C1968.24 753.22 1962.07 734.193 1961.61 712.887L1961.57 712.913ZM616.012 740.955C558.326 741.844 501.118 750.435 444.575 761.268C431.577 763.389 388.31 767.685 390.354 782.654C392.877 795.051 410.614 793.672 420.133 798.074C488.479 810.498 552.06 839.946 611.83 874.538C620.632 878.595 614.432 872.297 611.537 869.937C589.021 849.691 565.031 830.996 543.802 809.371C542.514 807.886 540.775 806.467 538.876 807.104C534.044 813.322 543.271 821.025 541.77 827.31C512.244 814.767 484.377 792.506 453.151 781.037C452.155 780.056 452.301 778.544 453.656 778.093C468.605 774.049 483.647 770.364 498.915 767.858C544.744 760.327 591.278 756.057 637.599 761.056C659.04 761.639 680.521 763.708 700.183 773.082C707.724 775.972 712.398 781.315 716.951 787.68C724.174 796.218 731.409 804.757 738.632 813.309C753.342 831.831 770.335 848.736 782.988 868.784C843.727 965.016 926.412 1044.86 1003.79 1127.57C1037.11 1165.09 1078.23 1198.48 1099.77 1244.59C1107.12 1261.36 1116.33 1278.19 1131.82 1288.73C1162.07 1310.45 1167.95 1277.22 1176.27 1289.54C1228.3 1354.59 1290.97 1415.82 1366.47 1452.85C1371.58 1454.27 1377.45 1458.32 1382.28 1455.49C1382.19 1454.61 1381.94 1453.25 1381.36 1452.99C1366.02 1447.86 1352.01 1439.47 1339.57 1429.18C1319.19 1410.63 1294.7 1394.26 1280.15 1370.5C1265.71 1339.29 1252.41 1307.65 1238.86 1275.86C1236.16 1265.83 1228.14 1252.11 1225.1 1242.26C1220.34 1228.04 1215.13 1213.91 1209.3 1199.96C1195.22 1159.4 1181.56 1118.41 1170.97 1076.79C1166.04 1056.74 1160.74 1036.72 1155.2 1016.82C1151.64 1006.85 1148.95 992.727 1136 992.303C1134.28 992.104 1131.84 993.47 1131.17 995.14C1111.67 1079.51 1151.72 1175.61 1169.63 1258.1C1173.07 1268.17 1166.47 1277.67 1157.88 1282.66C1142.63 1287.63 1128.09 1268.39 1120.7 1257.07C1109.97 1236.66 1102.4 1214.65 1087.04 1196.97C1033.34 1132.45 971.644 1074.93 923.81 1005.63C901.705 980.9 879.745 956.08 855.729 933.062C835.894 913.108 822.379 888.102 803.247 867.67C791.896 854.941 803.925 837.678 807.31 823.903C810.244 817.233 804.124 808.416 812.488 804.266C830.663 789.058 855.237 790.305 875.311 801.561C899.527 814.873 923.504 828.808 947.826 841.855C954.783 842.651 929.107 820.097 927.527 816.12C915.817 798.777 936.409 800.381 946.008 808.323C962.364 817.644 1074.26 899.531 1002.39 838.05C991.585 825.719 975.069 820.88 963.386 809.729C947.322 798.91 929.12 791.312 914.383 778.451C904.506 771.822 896.301 763.244 887.393 755.527C880.409 749.574 871.952 737.455 862.566 737.482C855.928 737.826 851.321 742.48 846.834 746.842C829.827 761.652 812.421 780.135 788.298 780.52C774.743 781.872 763.551 772.67 751.483 767.897C709.596 746.935 662.372 741.645 616.025 740.916L616.012 740.955ZM1437.78 785.187C1437.78 785.187 1437.7 785.187 1437.66 785.187C1437.66 793.089 1436.65 801.389 1442.99 807.369C1449.23 814.171 1456.12 820.283 1462.66 826.78C1468.32 832.415 1470.79 832.759 1477.22 828.132C1523.02 799.679 1566.28 767.367 1610.14 736.05C1618.41 730.097 1626.6 723.958 1635.43 718.906C1641.77 714.027 1645.89 718.972 1652.77 721.054C1656.81 722.526 1658.02 726.782 1658.88 730.574C1660.9 740.067 1667.75 747.412 1670.38 756.667C1675.47 771.265 1679.97 786.049 1687.44 799.692C1723.71 867.577 1762.3 934.136 1797.32 1002.71C1819.6 1043 1840.34 1084.17 1863.2 1124.14C1868.13 1130.65 1871.75 1119.53 1869.77 1115.09C1864.53 1097.45 1859.48 1079.73 1854.88 1061.9C1840.83 1011.53 1825.3 961.529 1805.65 913.042C1799.58 898.112 1792.92 883.421 1786.2 868.77C1777.58 852.356 1771.74 833.502 1757.69 820.72C1719.83 786.062 1684.2 749.03 1649.78 710.991C1630.79 688.305 1610.09 667.13 1591.69 643.914C1579.94 630.669 1569.68 615.898 1556.05 604.469C1555.87 604.297 1554.65 604.761 1554.54 605.119C1554.86 628.441 1562.93 651.71 1567.09 674.754C1569.89 688.875 1574.35 702.916 1575.53 717.249C1574.55 733.292 1557.35 731.581 1548.21 722.208C1489.58 685.812 1502.74 624.198 1480.09 568.352C1466.8 538.904 1446.21 513.554 1429.07 486.32C1418.1 470.343 1424.01 489.847 1425.48 496.9C1428.35 510.782 1429.74 524.85 1430.65 538.971C1431.26 548.437 1430.58 547.112 1438.23 553.86C1442.42 557.56 1446.55 561.338 1450.59 565.21C1462.68 575.989 1462.12 590.799 1444.8 594.127C1438.4 599.908 1442.05 612.478 1440.62 620.499C1437.54 643.344 1463 661.19 1472.76 680.813C1487.63 703.963 1501.29 728.585 1507.68 755.527C1511.62 767.964 1500.35 775.309 1495.05 785.028C1483.92 802.118 1461.73 786.168 1452.1 775.097C1438.66 760.446 1437.71 771.53 1437.8 785.174L1437.78 785.187ZM2202.82 1114.05C2203.71 1098.28 2200.92 1081.84 2210.35 1067.92C2220.65 1051.49 2230.45 1034.7 2239.36 1017.56C2241.22 1012.84 2238.32 1008.5 2234.53 1005.71C2228.91 1001.86 2226.45 995.485 2221.99 990.619C2215.95 984.533 2210.15 978.275 2205.42 971.102C2174.07 933.447 2141.63 896.733 2109.94 859.33C2096.77 845.369 2064.4 794.017 2083.51 849.187C2089.79 870.149 2095.47 891.854 2096.29 913.797C2097.22 948.018 2099 982.067 2104.33 1015.97C2110.76 1070.52 2115.19 1125.26 2121.39 1179.84C2136.14 1223.89 2138.91 1271.4 2147.75 1317.06C2156.37 1357.66 2159.46 1402.89 2171.26 1441.17C2173 1440.52 2173.03 1438.57 2173.22 1437.02C2174.98 1416.37 2176.71 1395.73 2178.29 1375.07C2182.83 1320.33 2185.96 1265.5 2187.45 1210.58C2188.13 1191.54 2190.26 1172.46 2188.17 1153.44C2185.91 1130.22 2180.66 1127.6 2202.82 1114.03V1114.05ZM245.138 1785.07C245.138 1785.07 245.138 1784.99 245.138 1784.94C277.877 1784.54 312.874 1784.28 342.347 1768.27C359.181 1758.12 384.845 1742.41 381.14 1719.75C380.543 1716.9 380.078 1713.52 382.734 1711.55C409.923 1687.17 401.891 1645.52 395.638 1613.68C392.412 1611.2 393.633 1619.94 393.302 1621.74C391.642 1643.18 396.634 1692.59 374.197 1702.66C363.191 1705.27 350.472 1683.79 342.294 1677.12C329.748 1663.61 316.91 1650.38 303.753 1637.46C263.18 1599.33 220.895 1558.77 167.365 1540.08C146.017 1532.88 115.628 1532.49 104.17 1555.64C96.8415 1567.99 135.25 1580.24 144.158 1581.42C172.623 1590.18 209.531 1589.15 225.091 1619.47C233.906 1647.29 237.092 1678.59 227.799 1706.7C220.683 1728.54 207.579 1748.24 201.167 1770.33C200.808 1784.73 234.743 1785.79 245.138 1785.05V1785.07ZM588.344 1597.94C554.529 1599.66 656.345 1662.71 663.408 1668.2C731.821 1710.97 804.96 1745.51 874.847 1785.75C879.241 1786.82 907.201 1809.62 902.899 1796.32C899.302 1786.33 894.217 1777.16 887.725 1768.77C886.344 1766.15 882.361 1763.74 883.078 1760.6C884.167 1757.51 907.586 1764.23 910.095 1766.14C932.532 1780.62 948.304 1803.44 962.576 1825.61C971.857 1841.08 969.839 1838.24 983.035 1846.14C1006.52 1860.2 1029.12 1875.53 1050.47 1892.66C1056.86 1896.71 1104.22 1940.35 1084.27 1915.25C1052.63 1880.42 1022.36 1844.31 991.612 1808.82C947.747 1775.46 901.559 1744.61 854.467 1716.03C807.549 1685.78 757.962 1659.38 706.928 1636.87C669.409 1619.11 629.978 1602.25 588.33 1597.94H588.344ZM2453.85 1324.69C2454.4 1360.83 2455.92 1396.97 2454.87 1433.13C2453.49 1440.25 2458.05 1442.28 2462.87 1436.79C2491.86 1415.18 2521.41 1394.23 2550.01 1372.11C2557.5 1365.15 2551.9 1353.7 2553.24 1344.72C2553.52 1337.14 2552.57 1329.65 2551.45 1322.18C2552.15 1296.29 2550.17 1270.34 2547.91 1244.51C2549.12 1233.59 2541.39 1229.58 2532.7 1225.6C2510.85 1214.51 2490.96 1200.64 2473.19 1183.72C2469.15 1180.02 2465.06 1174.36 2461.76 1182.42C2449.64 1228.5 2455.11 1277.45 2453.85 1324.69ZM1580.4 451.927C1581.15 463.528 1579.55 468.513 1572.03 458.026C1554.35 433.112 1533.46 410.201 1518.81 383.312C1517.95 381.138 1514.83 376.696 1513 380.196C1512.76 386.773 1516.72 392.832 1519.78 398.401C1545.23 439.583 1575.77 477.304 1606.05 514.999C1674.94 601.3 1743.49 688.397 1820.2 768.043C1844.63 790.517 1812.72 723.653 1810.27 717.819C1797.96 693.078 1783.77 669.278 1767.98 646.606C1721.49 579.331 1664.71 520.342 1609.34 460.412C1598.55 450.561 1573.31 412.216 1580.4 451.94V451.927ZM1412.46 524.744C1410.2 500.891 1389.37 413.33 1371.02 401.106C1320.69 374.946 1274.21 338.882 1218.15 325.305C1212.57 326.445 1217.71 332.823 1218.73 335.939C1226.85 351.716 1233.39 368.237 1238.26 385.301C1245.14 403.24 1229.46 413.595 1238.51 417.215C1299.12 444.183 1353.07 483.35 1404.27 525.049C1407.09 527.436 1412.82 532.023 1412.44 524.744H1412.46ZM1660.82 940.62C1658.23 947.435 1662.72 956.159 1664.12 963.253C1668.05 976.154 1672.7 988.802 1677.61 1001.36C1712.17 1085.05 1747.94 1170.47 1798.08 1245.85C1799.79 1246.58 1801.08 1244.54 1800.96 1242.99C1799.18 1225.22 1802.63 1205.2 1808.16 1188.88C1835.07 1139.97 1842.5 1175.65 1786.34 1105.77C1741.38 1053.33 1700.46 996.121 1660.82 940.62ZM1557.42 1445.37C1547.25 1350.56 1503.96 1262.66 1462.04 1178.2C1443.03 1142.91 1424.63 1107.2 1403.69 1073C1402.31 1070.64 1397.76 1067.02 1397.07 1072.07C1406.56 1125.61 1426.77 1176.98 1444.23 1228.39C1464.37 1282.13 1486.19 1335.59 1514.29 1385.81C1519.41 1392.08 1552.1 1464.94 1557.42 1445.37ZM2045.18 666.865C2051.54 713.987 2094.62 760.088 2130.32 789.218C2168.78 821.131 2206.81 853.549 2245.37 885.331C2262.09 894.718 2240.2 862.327 2237.67 858.601C2218.54 831.712 2205.25 801.548 2188.48 773.28C2175.67 751.881 2156.12 735.387 2139.43 717.037C2122.9 699.535 2106.26 680.363 2083.03 671.877C2071.93 667.939 2061 662.821 2049.39 660.74C2046.32 660.421 2045.3 664.677 2045.17 666.865H2045.18ZM571.961 1741.21C574.43 1751.22 576.422 1762.84 583.87 1770.54C596.084 1782.5 607.847 1794.92 619.835 1807.1C628 1816.7 635.05 1826.93 638.449 1839.28C638.688 1841.11 640.825 1843.35 642.511 1841.69C662.665 1809.55 675.516 1762.33 716.726 1751.85C721.665 1750.85 719.806 1748.93 716.912 1746.56C713.712 1742.1 709.211 1739.56 704.339 1737.36C667.909 1719.71 632.833 1699.4 598.513 1677.93C591.689 1673.06 586.326 1673.33 587.534 1683.17C589.671 1691.48 588.915 1699.98 589.432 1708.46C587.773 1720.87 572.306 1727.98 571.948 1741.21H571.961ZM733.573 1293.25C733.188 1313.29 738.353 1332.42 747.872 1349.93C752.466 1360.51 752.399 1360.57 761.294 1367.67C790.051 1393.66 829.561 1376.48 861.703 1367.12C880.874 1359.52 902.793 1358.31 920.61 1347.86C931.085 1339.39 920.105 1316.92 916.547 1306.28C911.396 1291.51 895.81 1253.47 883.383 1246.55C875.922 1255.64 879.347 1274.9 876.466 1286.66C874.727 1301.37 872.231 1315.95 869.217 1330.44C867.518 1337.15 872.311 1342.12 875.67 1347.27C878.219 1355.32 824.078 1359.52 816.364 1360.84C808.346 1360.7 788.67 1361.26 789.055 1350.05C791.763 1337.85 795.335 1325.92 798.641 1314.01C800.194 1307.65 799.809 1301.58 796.344 1295.93C787.435 1282.14 779.708 1267.46 769.778 1254.38C764.879 1249.97 753.488 1260.7 747.752 1262.35C735.472 1267.79 732.392 1280.91 733.613 1293.22L733.573 1293.25ZM1360.97 878.993C1354.48 890.409 1358.34 905.67 1354.36 918.332C1352.83 924.762 1354.88 930.636 1359.64 935.475C1375.08 949.782 1376.16 960.018 1399.18 961.158C1421.91 965.348 1438.89 980.86 1447.2 1002.23C1454.46 1018.58 1456.49 1036.43 1459.32 1053.9C1461.85 1065.97 1462.89 1099.26 1471.52 1066.66C1479.98 1030.78 1489.45 993.297 1479.58 956.955C1480.43 943.457 1493.07 951.346 1494.88 943.683C1497.35 934.773 1500.68 926.221 1504.94 918.027C1505.6 916.37 1506.76 914.102 1505.44 912.498C1501.18 907.871 1494.96 908.109 1490.3 911.543C1476.41 920.413 1461.61 927.64 1447.07 935.343C1425.03 947.687 1392.81 945.062 1377.78 923.41C1371.43 910.045 1366.65 896.044 1363.16 881.658C1362.64 880.664 1362.38 878.86 1360.97 879.006V878.993ZM741.592 1887.94C740.743 1893.48 743.823 1896.5 749.319 1891.5C763.91 1880.26 778.461 1868.98 793.078 1857.77C808.08 1845.97 823.945 1835.35 838.376 1822.9C841.271 1819.35 858.424 1812.13 853.392 1807.57C816.749 1789.78 779.523 1772.89 742.429 1756.06C737.317 1755.75 740.49 1762.85 740.477 1765.8C743.677 1782.65 745.31 1799.65 744.911 1816.79C744.34 1841.49 743.172 1862.24 741.592 1887.94ZM520.143 1293.18C523.715 1311.07 535.597 1325.7 542.952 1342.08C546.948 1349.44 556.069 1365.17 564.327 1353.66C578.002 1335.12 586.631 1341.57 597.903 1327.38C602.775 1318.28 616.224 1310.46 613.648 1299.26C605.59 1274.44 582.356 1258.91 564.486 1241.28C561.486 1239.27 555.445 1231.82 552.564 1236.89C550.347 1273.77 526.728 1255.05 520.13 1293.17L520.143 1293.18ZM752.293 1230.18C741.42 1213.17 729.391 1193.97 710.977 1184.2C688.049 1174.33 666.116 1162.28 644.463 1149.99C634.346 1144.79 641.728 1160.16 643.626 1163.91C666.342 1211.38 694.302 1255.94 721.585 1300.84C722.275 1301.87 724.214 1304.12 725.143 1302.28C721.93 1279.29 723.271 1256.99 741.698 1240.59C745.19 1237.07 750.753 1235.16 752.28 1230.18H752.293ZM1342.98 253.84C1340.53 232.586 1333.44 209.807 1339.09 189.084C1335.93 167.79 1347.11 147.504 1350.01 126.834C1349.46 124.593 1346.71 125.336 1345.5 126.767C1339.27 134.829 1330.44 140.451 1324.05 148.459C1303.27 171.755 1281.62 194.321 1261.48 218.16C1257.83 224.564 1283.4 234.376 1288.07 238.818C1304.12 246.442 1320.76 252.567 1337.66 258.016C1340.46 258.958 1342.89 256.73 1342.98 253.827V253.84ZM869.908 1101.02C869.071 1068.12 823.029 1028.43 796.716 1011.38C793.941 1013.24 798.826 1016.5 800.154 1017.99C824.051 1041.31 857.282 1080.05 847.033 1115.65C840.129 1138.95 823.799 1157.63 808.319 1175.78C769.433 1223.75 742.508 1169.19 798.202 1246.66C801.429 1249.91 807.204 1261.46 812.169 1258.23C818.356 1242.88 820.52 1223.63 811.784 1208.81C806.713 1200.25 804.137 1197.62 813.351 1190.99C839.518 1166.89 869.868 1139.46 869.921 1101.04L869.908 1101.02ZM1144.1 194.48C1142.54 188.66 1125.21 196.96 1120.5 197.49C1081.6 210.006 1045.49 229.762 1011.83 252.713C1006.92 256.823 1013.7 261.543 1016.74 264.328C1027.78 272.614 1038.03 282.002 1049.63 289.48C1060.99 297.183 1070.37 307.79 1081.88 315.308C1093.92 322.746 1103.66 333.459 1117.33 338.285C1120.51 340.088 1127.65 339.253 1124.22 334.414C1108.56 312.046 1089.79 292.198 1071.99 271.58C1068.89 266.25 1047.54 248.523 1052.59 243.975C1081.7 225.082 1112.67 208.017 1144.12 194.48H1144.1ZM1575.34 920.546C1576.01 928.024 1572.21 951.863 1578.8 954.9C1584.69 955.536 1590.65 954.555 1596.44 956.332C1597.66 956.676 1599.27 955.748 1599.69 954.621C1607.98 931.432 1612.92 907.075 1621.57 884.031C1626.38 876.288 1622.26 872.364 1618.76 864.939C1612.27 858.23 1609.92 834.244 1598.68 837.838C1513.42 895.354 1587.94 838.249 1575.34 920.559V920.546ZM1550.24 688.636C1546.85 656.324 1541.05 624.212 1536.66 591.993C1535.6 584.78 1533.7 577.885 1529.08 571.932C1496.72 531.532 1472.59 484.968 1440.46 444.382C1438.28 441.717 1420.77 423.844 1423.26 432.609C1459.24 487.606 1503.43 541.238 1514.96 607.691C1522.21 635.243 1523.95 668.96 1546.23 689.087C1547.4 690.081 1549.67 690.559 1550.24 688.623V688.636ZM354.269 968.052C348.388 942.092 346.808 861.478 322.977 851.149C309.754 848.564 296.252 847.702 283.254 843.937C281.528 843.446 278.7 844.639 278.992 846.721C298.973 886.776 324.836 923.954 345.879 963.584C347.405 966.647 352.703 975.583 354.269 968.066V968.052ZM392.332 1424.86C393.527 1452.32 395.97 1483.37 415.234 1504.69C421.899 1511.98 428.139 1519.63 433.927 1527.65C459.564 1567.54 461.143 1538.92 476.597 1512.82C478.748 1506.19 489.395 1490.64 487.523 1485.12C479.584 1487.43 467.038 1520.39 459.418 1517.13C447.336 1504.65 436.051 1491.28 425.138 1477.77C417.902 1468.12 408.383 1459.4 406.233 1447.05C401.931 1423.08 401.334 1397.35 407.6 1373.69C408.808 1368.42 404.626 1369.34 402.821 1373.14C394.218 1388.87 393.036 1407.3 392.346 1424.86H392.332ZM885.932 1854.62C889.889 1870.12 871.527 1880.84 861.69 1890.84C841.895 1910.04 917.915 1893.72 926.319 1901.18C943.711 1907.03 927.222 1878.85 926.837 1871.55C921.221 1858.25 923.133 1837.9 908.9 1830.5C903.099 1828.7 876.692 1813.63 884.432 1830.19C886.344 1831.53 887.18 1832.85 886.463 1835.06C883.304 1842.06 886.423 1846.99 885.946 1854.64L885.932 1854.62ZM2556.72 1422.76C2556.72 1422.76 2556.78 1422.76 2556.81 1422.76C2555.47 1417.5 2558.14 1402.5 2553.24 1400.45C2521.28 1419.57 2492.88 1445.98 2462.28 1467.74C2452.82 1474.96 2453.68 1473.36 2453.61 1486.76C2453.51 1488.04 2454.71 1489.32 2455.88 1489.38C2486.09 1475.22 2515.59 1458.92 2547.74 1448.87C2561.79 1446.62 2556.11 1432.89 2556.72 1422.78V1422.76ZM588.968 999.171C588.662 1004.58 588.609 1007.88 593.495 1010.4C602.018 1015.36 610.343 1020.66 618.919 1025.52C661.058 1048.53 702.215 1073.41 746.611 1091.98C748.589 1092.63 753.674 1095.68 753.182 1091.94C702.64 1062.07 651.765 1031.38 609.891 989.717C597.571 981.324 625.557 942.821 623.3 927.971C622.225 926.009 620.539 928.462 619.941 929.615C610.462 952.513 593.176 974.854 588.941 999.171H588.968ZM1697.09 1076.75C1672.71 1022.97 1646.49 968.848 1632.26 911.782C1630.96 911.477 1629.64 913.996 1629.43 915.322C1625.05 931.471 1620.68 947.634 1616.32 963.783C1615.4 966.939 1614.59 970.373 1616.93 973.157C1642.71 1006.37 1668.66 1039.44 1692.55 1074.06C1693.76 1075.3 1695.85 1079.98 1697.1 1076.72L1697.09 1076.75ZM445.438 878.542C440.618 878.078 439.662 883.395 442.198 886.431C445.716 891.058 459.179 912.007 456.125 893.657C457.453 887.943 481.35 905.869 485.837 907.393C495.861 914.222 502.977 918.04 494.361 930.212C479.664 955.828 464.476 981.364 446.433 1004.79C441.056 1011.79 432.453 997.977 429.108 993.947C417.305 982.319 423.996 1002.66 425.523 1008.04C427.262 1014.98 430.82 1021.47 430.395 1028.92C430.316 1030.26 433.091 1031.71 434.285 1031.02C439.543 1027.13 448.146 1025.36 449.434 1018.06C466.215 987.768 490.67 961.078 509.137 931.378C519.214 919.18 512.337 908.693 499.857 902.488C482.664 893.18 464.715 882.308 445.438 878.555V878.542ZM117.539 1324.21C118.323 1337.93 146.455 1303.26 150.757 1300.44C159.346 1290.06 141.994 1272.4 139.286 1260.91C128.877 1236.41 116.451 1212.88 105.524 1188.61C100.24 1178.03 95.806 1167.03 91.5045 1156.06C88.2783 1152.67 87.0436 1159.16 87.7473 1161.52C90.4291 1177.77 98.0497 1192.68 103.692 1208.04C109.534 1226.52 122.85 1243.68 122.783 1263.46C121.164 1283.68 119.703 1304.08 117.526 1324.22L117.539 1324.21ZM1293.97 153.351C1268.78 155.513 1242.84 167.989 1217.12 172.484C1211.92 174.539 1192.02 176.488 1202.78 184.417C1210.84 190.131 1219.65 194.639 1227.66 200.394C1234.7 203.403 1245.88 217.246 1251.69 207.341C1265.05 189.137 1283.41 172.723 1293.98 153.338L1293.97 153.351ZM1553.09 972.096C1551.7 959.368 1551.25 946.6 1550.68 933.845C1547.42 927.812 1537.68 927.693 1531.92 924.338C1518.85 919.22 1510.13 961.396 1509.24 970.784C1508.94 978.354 1514.19 984.957 1516.53 991.958C1518.57 997.368 1524.66 995.021 1528.24 992.7C1536.09 986.217 1551.18 983.141 1553.09 972.11V972.096ZM2348.76 1244.06C2348.86 1244.06 2348.97 1244.05 2349.07 1244.03C2347.68 1226.33 2343.07 1209.08 2339.82 1191.65C2335.19 1167.32 2331.79 1190.19 2329.11 1200C2328.63 1207.27 2303.28 1298.99 2314.09 1290.33C2329.96 1279.04 2351.52 1266.55 2348.76 1244.06ZM2633.43 1285.02C2633.94 1289.91 2629.85 1313.14 2637.09 1311.88C2660.02 1297.98 2682.71 1283.04 2704.41 1267.33C2708.96 1261.52 2658.4 1261.46 2652.28 1258.94C2647.07 1258.33 2641.88 1257.28 2636.63 1257.29C2628.66 1260.59 2634.17 1277.76 2633.44 1285.02H2633.43ZM544.081 1234.94C545.023 1216.95 523.715 1210.9 512.855 1200C506.655 1195.08 503.309 1196.14 500.893 1203.7C497.335 1214.47 491.918 1225.71 496.897 1236.93C499.459 1242.93 501.118 1249.4 504.159 1255.16C508.009 1259.19 512.934 1252.08 516.731 1250.68C532.862 1241.86 540.177 1267.7 544.081 1234.94ZM1224.93 771.716C1222.19 753.18 1221.76 733.106 1210.26 717.063C1208.27 712.476 1189.26 691.063 1185.62 696.83C1186.84 715.618 1197.73 732.815 1199.29 751.854C1202.12 760.525 1199.4 778.597 1209.14 782.151C1216.17 783.476 1225.3 780.745 1224.93 771.703V771.716ZM2343.26 1301.99C2345.41 1279.69 2320.99 1307.15 2313.33 1310.5C2305.91 1315.82 2305.79 1315.95 2305.3 1324.98C2302.75 1334.23 2324.7 1338.74 2331.47 1341.62C2343.52 1340.98 2340.52 1311 2343.25 1301.99H2343.26ZM1398.56 988.219C1390.91 989.16 1407.24 1009.35 1408.38 1013.86C1416.17 1027.97 1423.95 1042.1 1431.75 1056.21C1441.72 1068.45 1425.3 1020.7 1424.06 1018.1C1419.07 1006.25 1411.82 991.892 1398.54 988.232L1398.56 988.219ZM1987.84 549.061C1987.53 552.15 1996.3 579.543 2000.13 568.153C1999.66 563.208 2000.33 558.448 2001.08 553.622C1998.93 547.562 2000.89 541.211 1999.5 535.139C1993.06 527.369 1987.06 542.391 1987.84 549.061ZM2375.22 1360.23C2374.87 1366.56 2380.47 1368.11 2384.35 1371.48C2392.49 1374.77 2382.36 1352.84 2381.81 1349.44C2376.95 1341.82 2375.68 1357.9 2375.22 1360.23ZM1554.46 899C1552.67 890.952 1546.35 900.472 1543.59 903.23C1541.83 906.982 1546.72 910.284 1549.59 911.954C1554.1 913.134 1553.03 901.785 1554.46 898.987V899ZM2447.69 1159.91C2445.01 1160.15 2443.73 1165.6 2447.03 1165.1C2450.16 1164.02 2450.47 1161.67 2447.69 1159.91ZM1247.76 1771.85C1247.8 1770.9 1247.02 1770.42 1246.41 1769.81C1246.07 1771.06 1246.33 1771.91 1247.43 1772.64C1247.54 1772.37 1247.65 1772.11 1247.75 1771.84L1247.76 1771.85ZM975.401 1212.96L974.817 1213.38L975.468 1213.69L975.415 1212.94L975.401 1212.96Z" fill="black"/>
<path d="M665.319 178.461L664.949 177.88L665.187 178.434L665.319 178.461Z" fill="black"/>
</g>
<defs>
<clipPath id="clip0_230_2">
<rect width="989" height="472" fill="white"/>
</clipPath>
</defs>
</svg>
