<svg width="913" height="474" viewBox="0 0 913 474" fill="none" xmlns="http://www.w3.org/2000/svg">
<g clip-path="url(#clip0_87_163)">
<path d="M63.0557 1859.82C37.5917 1832.77 29.7454 1815.53 41.2692 1779.16C53.1117 1736.46 91.9051 1695.38 75.1105 1649.08C74.938 1645.63 65.4188 1632.36 67.158 1642.88C70.7825 1652.77 66.9058 1679.09 59.1391 1676.77C36.596 1667.15 13.535 1656.76 -5.48993 1641.13C-45.8897 1603.68 -41.4555 1562.24 5.14439 1533.39C9.02107 1531.06 10.2425 1526.68 12.1676 1522.9C32.5334 1485.52 83.7136 1489.31 115.537 1509.06C166.969 1539.39 208.79 1583.24 250.955 1624.88C273.22 1646.26 263.276 1629.27 256.067 1613.49C248.074 1596.89 240.002 1580.32 231.837 1563.81C205.285 1510.96 179.515 1457.44 146.497 1408.51C140.072 1397.8 134.867 1386.42 127.472 1376.28C123.317 1368.94 113.917 1360.37 124.366 1353.81C136.726 1341.54 147.241 1327.49 159.15 1314.76C167.155 1303.04 143.683 1322.81 141.333 1324.8C99.8974 1363.25 56.7627 1400.21 19.0712 1442.43C6.06046 1460.51 0.165778 1482.96 -13.8275 1500.69C-28.8961 1523.6 -28.8695 1520.79 -51.426 1507.78C-62.5648 1502.81 -67.4372 1491.9 -64.7421 1480.11C-61.4761 1457.31 -61.2637 1434.17 -57.0684 1411.51C-51.9968 1390.75 -47.0448 1369.96 -42.6901 1349.05C-13.615 1194.93 -23.5324 1037.07 -39.1454 881.635C-44.748 841.845 -43.3672 801.499 -47.5891 761.576C-54.3202 708.064 -60.7858 654.498 -66.7999 600.893C-69.7871 579.732 -73.7567 558.703 -76.4916 537.503C-79.0009 522.838 -75.5756 516.448 -69.11 503.6C-60.8654 489.771 -44.9471 482.372 -33.3303 471.54C-27.3693 466.82 -20.8772 462.948 -13.8275 460.058C-6.87067 453.296 -12.1546 499.901 -11.2651 502.764C-11.9688 555.309 -16.5093 608.185 -11.1324 660.558C-7.30879 697.497 -2.1443 734.343 3.51141 771.03C11.1187 783.745 5.82148 753.184 5.91442 749.949C4.4142 732.579 4.02918 715.131 2.88742 697.762C2.70155 694.765 1.9448 690.045 5.91442 689.767C15.6592 691.172 25.643 691.742 34.9763 695.163C47.2037 699.698 46.9515 699.525 48.9297 711.524C54.2933 746.992 55.1961 782.95 57.9974 818.669C60.7721 868.588 63.2415 918.548 66.866 968.427C69.8398 997.212 71.287 1027.61 84.3509 1053.79C86.2626 1057.37 89.6746 1054.09 91.5731 1052.38C95.9809 1047.9 97.7466 1050.26 102.194 1053.69C111.501 1057.53 114.143 1067.42 116.227 1076.16C127.565 1121.41 147.918 1164.19 157.809 1209.86C160.026 1221.31 167.275 1228.82 176.263 1217.19C197.584 1193.04 218.322 1166.43 231.16 1136.96L231.346 1137.12C222.637 1139.7 185.782 1202.38 181.215 1184.73C169.107 1140.01 154.821 1095.84 141.851 1051.44C122.228 989.031 102.035 927.099 80.4343 865.327C73.0925 845.956 73.9555 825.192 73.2253 804.88C71.4861 770.738 72.4553 736.345 67.6625 702.442C62.6972 673.392 37.0208 655.572 18.7659 634.729C-7.25568 602.815 5.84804 555.985 4.54696 517.946C7.04291 466.687 8.63606 415.376 10.6939 364.091C11.7029 350.978 38.2821 341.073 49.5802 346.006C58.2629 349.347 60.9978 360.352 66.1756 367.392C74.1015 381.433 81.8682 395.567 89.7012 409.661C118.763 462.405 146.006 516.103 173.368 569.748C227.39 673.684 199.231 658.887 229.448 567.574C235.847 549.197 245.525 532.252 252.734 514.22C257.381 500.166 219.052 445.022 208.206 434.124C206.334 435.489 208.086 437.531 208.577 439.188C218.309 461.927 231.837 482.691 243.189 504.594C245.007 514.923 235.966 524.999 233.351 534.97C231.864 538.603 229.049 549.263 224.588 542.262C219.079 532.531 214.313 522.388 209.029 512.523C181.825 462.604 157.636 410.709 127.525 362.513C126.53 361.227 125.693 359.795 124.857 358.403C123.662 355.857 126.543 353.51 128.481 352.184C140.204 343.685 151.848 335.054 163.464 326.409C166.77 324.314 168.031 328.981 169.532 331.036C187.043 361.213 204.355 391.496 222.093 421.541C245.578 461.185 269.17 500.776 292.961 540.221C295.418 543.668 296.493 547.248 294.422 551.265C282.526 597.591 281.318 645.761 280.654 693.333C277.654 704.975 225.903 709.377 217.977 726.732C215.574 729.517 213.489 739.739 209.135 734.064C175.918 659.537 140.337 586.003 101.145 514.406C91.1218 496.268 81.2707 478.01 70.2514 460.442C69.0433 458.52 68.1405 456.292 65.9101 455.218C65.3525 454.913 64.4098 455.391 64.2638 455.881C76.9161 502.977 96.8837 548.335 110.957 595.125C130.606 655.89 145.382 718.021 162.495 779.449C167.514 792.987 166.996 791.833 177.351 797.879C182.144 799.987 189.406 808.141 193.469 801.539C209.161 778.8 222.756 754.642 237.095 731.041C248.167 714.243 276.432 712.413 294.316 705.054C410.457 671.695 538.069 658.184 656.122 688.905C678.744 692.564 702.629 723.921 724.986 715.674C751.897 705.001 773.006 684.702 795.164 666.736C834.847 632.754 868.848 589.146 875.499 536.018C877.079 523.753 879.522 509.831 874.915 498.137C870.481 516.779 869.193 537.675 861.559 556.184C841.366 609.949 799.32 655.36 749.268 682.779C741.581 688.017 739.245 693.731 731.133 685.524C697.703 658.357 665.694 629.585 631.507 603.346C592.993 575.436 602.645 584.545 605.459 540.446C607.53 494.584 607.982 448.364 604.424 402.607C601.543 401.759 601.835 418.876 601.264 421.939C600.467 444.001 598.184 465.905 594.838 487.716C589.329 526.856 579.491 565.253 564.767 601.967C555.262 627.716 541.733 612.335 529.771 598.387C513.335 580.382 497.841 561.581 482.773 542.435C414.267 456.65 391.153 415.76 459.619 545.909C543.3 692.299 576.172 632.409 404.828 664.257C400.393 664.442 394.22 667.784 390.609 664.509C383.121 654.14 374.133 644.647 368.397 633.138C338.632 581.973 304.525 533.326 273.352 482.982C233.762 420.759 198.54 355.923 163.079 291.3C139.793 247.148 117.661 200.278 111.275 150.385C114.528 120.354 122.733 59.8538 158.3 53.6222C168.801 53.5161 178.626 71.8928 185.782 78.973C198.036 94.4196 208.378 111.47 221.137 126.426C221.137 126.4 220.964 126.612 220.964 126.612C221.814 123.934 221.03 121.441 220.128 118.948C212.919 98.8878 206.081 78.6681 197.943 58.9522C193.814 45.4813 181.573 31.9175 185.755 17.4521H237.161C255.19 49.3661 279.898 77.5013 298.723 109.031C309.57 125.511 320.417 141.979 331.25 158.473C337.172 165.832 327.692 170.658 321.16 170.896C306.357 171.771 291.528 172.448 277.163 167.476C276.3 167.263 275.052 166.959 274.361 167.502C274.242 168.032 274.043 168.881 274.308 169.12C302.945 196.499 341.632 203.38 378.275 213.736C408.386 222.261 439.32 227.193 468.182 239.842C481.366 243.913 486.636 256.111 488.216 268.76C492.77 284.949 495.186 301.535 497.841 318.096C504.612 357.395 509.246 397.781 517.145 436.523C519.761 396.774 515.857 355.645 518.645 315.444C518.406 289.284 522.15 232.828 495.916 218.774C419.1 192.614 449.795 220.564 418.755 146.089C413.922 137.113 422.326 131.504 428.247 126.002C450.379 105.835 472.869 86.0665 496.023 67.0666L496.355 66.7617L496.076 67.239C480.41 72.7414 466.191 82.5662 452.052 91.2905C449.343 92.7357 443.727 97.5751 442.373 92.497C441.736 80.8823 435.589 67.3981 443.555 57.149C450.83 46.7276 463.443 43.6516 474.754 39.475C492.199 33.4555 510.082 29.0271 528.204 25.5798C538.52 22.8352 550.283 23.3656 559.444 17.4521H565.378C590.709 64.5209 610.345 116.469 645.554 157.213C697.172 218.482 748.87 279.884 800.382 341.033L800.196 341.153C778.503 293.434 741.807 253.486 709.984 212.118C665.906 155.768 622.4 96.3951 589.7 33.2301L589.567 33.2036C612.35 46.9 636.526 59.0583 656.002 77.435C689.605 129.927 721.64 183.93 761.469 232.324C821.637 306.945 883.226 382.149 959.817 440.687C982.586 456.08 999.819 477.785 1022.1 493.775C1027.21 498.469 1037.76 502.698 1028.67 509.288C982.905 557.537 931.087 603.2 888.47 652.907C890.9 654.538 893.635 650.282 895.706 649.261C905.862 640.868 915.966 632.422 926.109 624.016C929.946 620.794 934.831 615.902 937.447 622.956C942.412 635.233 950.192 645.96 956.95 657.216C963.813 670.435 1049.86 795.426 1015.15 721.455C1002.21 690.602 988.534 659.828 970.664 631.454C968.819 622.094 950.922 605.096 958.052 597.207C985.865 572.506 1014.62 548.839 1041.15 522.706C1044.16 520.226 1047.36 514.671 1051.58 518.688C1058.14 524.191 1064.7 529.68 1071.11 535.355C1099.09 561.846 1129.25 585.712 1157.89 611.46C1175.03 624.838 1189.1 641.704 1206.4 654.923C1224.06 669.163 1238.55 687.075 1256.76 700.652C1259.42 702.535 1262.85 700.44 1263.84 697.629C1270.28 681.44 1269.13 669.322 1255.32 657.999C1243.65 645.999 1231.37 634.65 1219.29 623.075C1133.79 550.059 1054.13 464.075 948.838 419.194C934.114 411.544 927.675 394.347 917.253 382.083C852.903 289.231 778.675 203.818 711.325 113.221C685.436 78.4029 742.471 117.649 750.861 123.801C767.112 132.353 806.277 173.018 821.505 167.82C835.617 163.312 850.075 160.037 864.414 156.59C881.912 151.247 864.015 140.958 857.284 134.753C852.319 131.504 848.588 126.559 843.902 123.138C837.357 120.367 833.055 114.626 827.213 110.94C822.341 107.904 822.806 100.863 827.253 97.5354C838.79 86.2256 848.044 72.874 859.515 61.5112C861.652 58.8462 865.091 60.2781 867.773 61.0869C873.136 60.9676 877.026 63.805 880.85 67.0931C893.064 77.6339 905.371 88.0686 917.678 98.49C921.714 102.667 933.915 110.449 924.993 99.206C903.831 76.1622 880.08 55.664 858.068 33.5086C855.85 26.0704 882.469 20.8994 886.837 25.5798C924.555 49.5915 961.583 74.823 999.022 99.3784C1005.95 103.687 1012.5 111.921 1021.57 109.68C1032.13 107.267 1042.99 106.114 1053.16 101.898C1097.94 88.7713 1143.61 79.0924 1189.07 68.4588C1214.44 63.3144 1239.71 55.8497 1265.45 53.1846C1272.31 53.6885 1280.79 63.8182 1279.59 70.7526C1277.8 78.2571 1285.07 84.4887 1282.22 91.7545C1280.77 97.1509 1284.32 102.64 1283.4 108.209C1283.33 108.964 1284.94 109.521 1285.8 109.203C1295.89 104.483 1292.61 67.4776 1304.42 57.6661C1323.02 41.8086 1347.47 28.3774 1372.63 32.4876C1376.67 33.2434 1380.41 33.018 1384.18 31.3076C1397.09 25.4605 1410.79 24.1081 1424.74 24.6915C1431.44 25.7124 1451.76 24.36 1440.54 34.9538C1435.69 42.2726 1422.51 50.281 1426.16 60.119C1431.1 70.2753 1439.8 77.7532 1446.63 86.5703C1451.05 90.3491 1467.28 114.162 1472.28 106.896C1473.98 83.3484 1468.47 59.0185 1464.29 35.7095C1469.57 25.4207 1499.65 61.8957 1503.73 67.186C1513.17 76.7456 1520.41 97.0315 1534.32 99.0469C1554.32 100.916 1574.24 103.436 1593.89 107.254C1607.38 108.209 1620.79 109.72 1634.08 112.2C1637.9 113.419 1645.9 112.783 1643.63 107.135C1635.74 96.5807 1626.22 87.4189 1619.46 76.0296C1613.1 69.7582 1608.32 62.1874 1602.52 55.4784C1600.53 51.1561 1590.48 46.5552 1594.94 41.371C1623.31 34.1715 1654.69 39.6474 1682.53 47.5629C1691.04 51.1958 1701.79 52.4819 1707.99 59.7478C1718.15 73.0994 1728.67 86.2389 1738.38 99.8822C1758.85 129.317 1779.54 158.552 1799 188.703C1814.16 212.224 1827.48 236.846 1845.36 258.55C1872.02 289.576 1895.85 327.443 1923.35 355.459C1899.55 307.462 1867.98 262.064 1840.32 215.724C1822.26 186.621 1802.28 158.804 1782.27 131.04C1770.65 112.027 1746.73 93.4384 1753.85 68.9626C1760.21 58.2097 1770.07 41.1589 1784.55 44.0758C1802.36 49.5517 1816.34 64.68 1833.19 71.2697C1827.24 56.3402 1809.46 57.3877 1814.76 47.9209C1818.04 44.7388 1818.66 52.7206 1822.83 48.8755L1822.67 49.0346C1832.03 49.8037 1839.61 55.969 1847.51 60.4903C1861.54 70.3018 1877.2 77.5809 1891.31 87.22C1925.31 110.449 1958.97 134.024 1987.79 163.723C1995.69 171.97 1992.34 185.335 1994.36 195.81C1998.91 229.606 1999.47 275.429 2035.41 291.671C2078.81 306.733 2092.45 306.163 2127.39 340.397C2146.71 362.181 2158.8 389.813 2173.35 414.925C2190.12 448.43 2207.39 481.816 2222.02 516.315C2310.18 730.803 2341.24 966.69 2323.11 1197.26C2322.78 1203.8 2321.06 1210.29 2322.18 1216.83C2322.26 1217.61 2323.93 1218.34 2324.62 1217.93C2334.14 1211.59 2341.69 1202.51 2350.48 1195.14C2360.36 1189.62 2341.97 1116.13 2389.62 1151.86C2412.87 1172.14 2436 1193.39 2464.14 1206.71C2473.79 1212.65 2469.39 1186.03 2468.66 1182.24C2464.85 1072.14 2453.84 962.09 2445.57 852.108C2440.54 808.446 2437.1 764.44 2434.89 720.487C2431.97 676.667 2432.21 632.144 2442.46 589.358C2447.23 564.829 2456.59 541.348 2467.63 519.033C2473.13 511.635 2477.22 503.282 2483.19 496.228C2487.27 491.375 2485.94 486.682 2479.09 486.443C2427.07 483.035 2376 469.021 2329.47 445.579C2321.22 443.431 2323.93 456.186 2323.57 461.012C2326 519.232 2322.71 577.465 2325.06 635.684C2325.56 655.108 2325.5 674.506 2324.62 693.917C2325.62 703.848 2319.75 727.435 2329.73 732.168C2334.96 738.546 2318.74 745.44 2313.89 740.031C2284.54 707.719 2284.94 659.974 2277.45 619.243C2273.34 585.301 2266.23 551.796 2259.89 518.184C2249.82 477.387 2247 434.72 2233.92 394.785C2231.36 380.929 2223.76 369.195 2215.76 358.084C2209.34 341.975 2198.68 325.653 2201.96 307.78C2224.85 245.464 2318.28 266.917 2312.83 239.431C2309.02 234.525 2302.04 232.311 2300.49 225.867C2299.57 223.308 2296.65 221.2 2294.74 219.238C2270.61 194.669 2250.61 165.991 2232.21 136.941C2225.47 121.348 2193.88 88.7448 2217.11 77.6472C2222.13 73.3911 2233 72.569 2232.78 64.6005C2232.67 58.4749 2239.91 60.4372 2243.44 62.5321C2280.8 83.0965 2316.66 107.506 2348.53 135.787C2372.84 156.484 2394.07 180.35 2418.78 200.729C2434.84 214.863 2450.49 229.474 2466.97 243.13C2479.64 256.296 2505.07 269.277 2508.75 287.614C2507.98 296.007 2514.27 303.511 2511.86 311.785C2510.37 321.079 2517.67 340.198 2504.16 342.983C2500.31 343.089 2497.01 344.653 2495.26 348.153C2492.53 354.372 2484.76 352.542 2480.43 356.904C2465.58 368.28 2447.04 360.007 2431.27 355.26C2424.39 352.012 2349.71 330.599 2353.84 342.651C2381.62 363.68 2414.94 376.633 2447.91 387.293C2492.73 399.054 2539.63 402.037 2585.77 399.439C2604.39 394.453 2633.79 394.029 2635.7 419.194C2635.21 427.216 2640.74 434.362 2639.14 442.331C2638.69 444.187 2638.71 446.295 2639.06 448.191C2640.47 457.247 2640.78 467.019 2635.06 474.682C2630.15 476.777 2624.67 477.095 2621.23 481.723C2620.05 483.181 2618.23 484.467 2616.45 485.024C2607.58 487.729 2600.97 495.883 2591.08 494.849C2581.8 495.048 2570.68 489.89 2564.41 499.291C2505.18 577.199 2520.09 683.442 2526.94 775.074C2534.94 847.997 2539.6 921.173 2545.99 994.255C2549.22 1057.96 2553.15 1121.71 2555.6 1185.39C2560.53 1244.12 2541.3 1236.37 2598.87 1243.93C2616.18 1247.8 2636.07 1245.78 2651.6 1254.86C2667.31 1271.05 2638.17 1285.79 2626.82 1294.32C2613.93 1305.89 2558.4 1335.79 2557.53 1348.04C2556.68 1376.29 2555.8 1404.62 2555.72 1432.86C2556.13 1437.15 2560.87 1437.34 2564.26 1437.7C2572.41 1438.92 2580.47 1440.49 2588.26 1443.29C2615.48 1451.76 2633.55 1473.75 2645.23 1498.73C2646.84 1501.63 2647.69 1504.84 2647.26 1508.23L2647.32 1508.18C2629.49 1482.87 2612.47 1462.37 2579.19 1458.06C2572.3 1457.82 2559.15 1453.21 2555.28 1460.53C2550.46 1525.3 2549.19 1590.56 2542.88 1655.33C2529.73 1809.65 2510.09 1967.07 2447.41 2110C2459.04 2037.6 2472.21 1965.36 2477.66 1892.13C2483.71 1808.51 2485.65 1724.56 2485.66 1640.78C2484.84 1588.22 2486.26 1535.43 2482.15 1483.03C2482.84 1470.53 2433.26 1501.68 2426.76 1504.15C2382.31 1529.58 2338.87 1554.59 2297.22 1584.67C2275.19 1601.64 2252.39 1616.89 2227.27 1628.76C2221.32 1632.83 2210.86 1631.16 2210.42 1622.68C2228.49 1554.64 2296.64 1512.03 2348.2 1469.07C2355.25 1463.48 2355 1464.32 2354.87 1455.04C2354.76 1448.13 2354.4 1441.22 2354.17 1434.33C2351.98 1365.3 2350.42 1296.12 2354.41 1227.13C2354.21 1224.57 2355.58 1217.52 2351.72 1218.21C2342.61 1226.17 2318.46 1242.31 2317.74 1253.81C2315.95 1271.1 2310.59 1288.49 2316.88 1305.47C2324.86 1340.35 2338.19 1375.49 2341.32 1410.85C2327.36 1442.38 2298.45 1372.07 2290.89 1396.4C2277.2 1441.26 2253.51 1501.27 2210.02 1524.13C2198.97 1530.3 2184.2 1525.55 2179.18 1513.87C2166 1468.58 2166.24 1420.05 2158.79 1373.51C2153.54 1335.71 2149.63 1297.75 2144.63 1259.92C2142.22 1238.35 2139.75 1216.79 2135.75 1195.44C2135.09 1192.81 2135.25 1183.76 2131.62 1185.04C2123.92 1287.1 2118.23 1389.82 2111.1 1492.1C2111.11 1502.89 2106.01 1521.94 2091.7 1514.04C2085.25 1509.64 2083.99 1501.13 2081.97 1494.13C2076.09 1470.17 2070.67 1446.1 2066.25 1421.83C2064.79 1419.47 2058.47 1364.47 2055.06 1376.6C2054.41 1444.71 2060.06 1515.38 2045.17 1581.91C2043.31 1588.28 2036.99 1595.85 2033.11 1584.98C2026.57 1568.81 2021.09 1552.27 2015.32 1535.8C2005.55 1508.21 1994.89 1480.93 1983.85 1453.83C1960.76 1396.34 1930.37 1342.43 1897.22 1290.35C1888.07 1275.59 1878.23 1261.08 1867.58 1247.34C1863.38 1242.57 1862.01 1237.08 1863.02 1230.83C1866.8 1203.43 1865.23 1175.44 1859.76 1148.39C1857.26 1134.15 1853.98 1120.04 1851.49 1105.79C1852.41 1099.69 1867.52 1108.52 1870.51 1110.24C1952.21 1165.92 1991.15 1262.81 2016.25 1354.88C2037.26 1434.5 2037.39 1455.57 2035.48 1355.52C2034.39 1318.71 2033.99 1281.84 2032.24 1245.03C2031.06 1215.88 1996.84 1178.9 1978.92 1155.71C1944.1 1116.53 1915.19 1072.83 1888.12 1028.11C1870.13 996.019 1848.11 966.001 1834 931.939C1825.7 913.019 1818.24 893.86 1810.35 874.674C1808.68 863.219 1801.14 853.712 1800.29 841.965C1797.76 833.559 1794.84 825.272 1792.77 816.587C1788.42 804.005 1786.94 790.905 1786.13 777.779C1783.92 743.796 1772.86 711.312 1759.99 680.048C1740.7 630.937 1709.72 587.581 1683.79 542.077C1636.98 476.578 1584.55 409.688 1512.42 370.879L1512.56 370.68C1533.51 403.363 1565.55 428.383 1590.89 457.857C1628.97 500.06 1668.31 541.732 1700.14 588.987C1732.7 641.412 1762.69 698.199 1770.48 760.198C1779.52 854.229 1736.53 798.966 1697.24 767.503C1683.71 757.082 1644.89 719.281 1661.75 746.687C1693.12 799.271 1726.95 850.318 1758.67 902.624C1787.81 955.182 1814.08 1009.86 1833.01 1066.98C1846.17 1118.07 1857.48 1172.03 1850.29 1224.85C1848.31 1239.84 1841.01 1251.85 1825.95 1240.54C1821.73 1237.3 1819.42 1230.47 1814.33 1229.14C1811.78 1230.42 1813.24 1234.94 1813.09 1237.26C1815.91 1257.15 1822.18 1276.34 1828.21 1295.39C1842.61 1337.5 1860.8 1377.83 1879.84 1418.03C1902.16 1460.25 1924.19 1503.78 1956.68 1539.33C2034.69 1629.25 2139.7 1688 2233.98 1758.6C2302.73 1807.7 2353.74 1890.92 2294.76 1968.46C2278.37 1991.53 2259.47 2012.72 2241.98 2034.95C2230.27 2046.26 2234.13 2062.88 2237.32 2076.96C2245.75 2112.99 2269.51 2143.16 2278.02 2179.35C2291.8 2220.6 2298.51 2263.81 2302.36 2307.04C2311.5 2478.79 2284.2 2652 2232.76 2815.76C2214.1 2872.15 2191.99 2930.88 2159.25 2979.42C2174.28 2935.96 2193.47 2892.55 2203.58 2847.02C2226.63 2758.08 2239.16 2666.87 2247.9 2575.54C2253.41 2503.24 2258.47 2430.42 2248.97 2358.23C2242.67 2311.61 2230.23 2265.86 2213.11 2222.1C2203.01 2200 2193.27 2177.71 2182.22 2156.06C2175.33 2142.06 2167.03 2127.91 2166.01 2111.95C2160.63 2091.12 2171.13 2072.54 2185.18 2057.84C2218.97 2014.84 2264.28 1977.89 2283.65 1925.57C2318.85 1818.89 1988.03 1715.43 1919.44 1644.61C1885.12 1609.88 1850.79 1572.41 1831.69 1526.89C1808.89 1463.75 1784.4 1401.25 1759.17 1339.05C1749.73 1318.14 1744.34 1295.14 1731.9 1275.75C1722.93 1264.02 1715.9 1250.69 1706.37 1239.49C1706.37 1239.5 1706.49 1239.25 1706.49 1239.25C1758.2 1390.68 1828.82 1536.91 1876.33 1690.3C1886.54 1727.88 1945.92 1882.38 1903.52 1902.7C1895.29 1902.92 1891.06 1910.59 1883.94 1913.4C1873.71 1919.03 1861.96 1923.95 1850.1 1920.97C1801.34 1908.91 1760.15 1877.53 1714.8 1856.95C1666.78 1833.05 1619.84 1806.86 1570.43 1785.86C1551.26 1778.85 1532.68 1766.86 1511.93 1766.09C1479.27 1776.9 1550.39 1989.44 1558.5 2024.08C1561.03 2032.92 1563.76 2041.75 1566.8 2050.43C1568.56 2055.58 1574.74 2055.85 1579.24 2057.06C1623.25 2065.97 1664.44 2084.45 1705.63 2101.82C1705.8 2102.76 1705.95 2103.67 1706.1 2104.57C1706.1 2104.56 1705.92 2104.71 1705.92 2104.71C1705.83 2103.69 1705.73 2102.67 1705.64 2101.64C1716.3 2107.24 1728.73 2110.29 1737.81 2118.42C1737.81 2118.4 1737.64 2118.56 1737.64 2118.56C1742.44 2117.36 1746.49 2120.68 1750.43 2122.83C1750.42 2122.82 1749.62 2122.59 1749.62 2122.59C1756.75 2125.72 1763.29 2129.73 1770.5 2132.78C1774.94 2134.92 1778.7 2140.93 1784.08 2139.58L1783.86 2139.55C1829.12 2170.84 1875.98 2202.93 1915.71 2240.4C1913.8 2239.84 1911.89 2239.28 1909.98 2238.73L1910 2238.85C1909.27 2238.12 1908.54 2237.39 1907.81 2236.66L1908.04 2236.82C1907.25 2236.82 1906.48 2236.82 1905.7 2236.82L1905.81 2236.58C1903.27 2234.71 1900.74 2232.84 1898.21 2230.97L1897.97 2231.08C1897.97 2230.31 1897.97 2229.53 1897.97 2228.76L1898.13 2228.92C1897.36 2228.92 1896.58 2228.92 1895.81 2228.92L1895.92 2228.69C1827.86 2178.81 1751.75 2138.64 1671.64 2111.91C1644.65 2103.18 1616.94 2096.99 1588.65 2094.54C1586.29 2094.31 1582.77 2094.3 1582.2 2097.15C1597.58 2154.06 1617.57 2210.14 1633.3 2267.15C1634.81 2274.29 1638.49 2279.26 1645.74 2280.89C1671.03 2288.37 1694.81 2299.98 1719.74 2308.51C1791.87 2340.9 1864.05 2375.35 1926.28 2424.96C1981.54 2468.04 2039.51 2525.2 2046.43 2598.43C2044 2753.77 1862.51 2808.87 1733.36 2818.34C1728.32 2818.75 1721.01 2818.12 1721.17 2824.87C1720.34 2837.68 1720.35 2850.53 1719.42 2863.32C1717.66 2893.21 1713.74 2922.94 1708.47 2952.41C1678.33 3091.91 1593.47 3266.79 1482.7 3357.77V3357.74C1591.36 3249.23 1675.97 3081.66 1696.72 2929.49C1700.48 2897.15 1703 2864.64 1702.47 2832.03C1703.05 2822.98 1699.79 2818.99 1690.51 2820.43C1556.3 2823.18 1399.49 2795.13 1315.93 2680.38C1386.61 2744.79 1465.63 2774.65 1561.26 2782.48C1589.76 2785.59 1618.39 2786.97 1647.05 2787.09C1661.56 2787.35 1676.03 2786.65 1690.52 2786.29C1694.85 2786.29 1700.02 2785.11 1699.81 2779.9C1696.84 2708.7 1684.64 2637.94 1673.15 2567.67C1660.01 2502.34 1649.07 2434.75 1624.22 2372.87C1617.94 2364.51 1606.01 2364.2 1597.05 2360.03C1576.17 2351.31 1554.38 2344.9 1532.76 2338.08C1457.6 2316.07 1381.49 2297.62 1304.75 2281.91C1245.55 2271 1186.13 2261.28 1127.3 2248.3C1013.81 2225.77 902.61 2188.97 799.559 2136.24C777.056 2124.72 754.911 2112.03 735.527 2095.77C730.203 2091.81 725.69 2087.29 723.18 2080.85C717.233 2075.37 717.485 2067.87 716.808 2060.74C718.958 2050.66 727.004 2042.31 729.5 2032.05C732.633 2024.48 727.216 2017.58 725.172 2010.45C720.233 1994.09 730.111 1992.43 744.197 1995.22C798.63 1999.41 853.262 2003.16 907.827 2005.77C928.844 2006.57 939.916 1991.74 941.151 1972.2C943.554 1965.86 970.637 1973.29 977.408 1972.54C1006.3 1974.8 1034.75 1980.82 1063.41 1984.87C1152.16 2002.56 1242.8 2025.55 1321.65 2071.18C1324.5 2072.29 1326.92 2076.16 1330.21 2075.05C1331.38 2071.28 1322.71 2066.93 1319.95 2064.37C1279.46 2035.76 1232.49 2018.35 1185.37 2003.97C1173.22 1999.26 1159.25 1998.12 1148.35 1990.8C1104.22 1954.79 1059.85 1918.22 1013.71 1885.21C1014.67 1885.21 1015.66 1886.9 1016.6 1887.49C1028.19 1910.12 1050.11 1928.18 1056.54 1953.74C1060.2 1966.25 1046.86 1976.95 1035.49 1970.3C993.964 1939.4 958.118 1900.87 915.076 1871.46C904.946 1864.09 909.566 1875.46 912.102 1880.53C918.209 1895.1 923.48 1909.96 927.755 1925.18C932.375 1941.45 930.118 1958.6 928.764 1975.17C927.861 1984.29 922.975 1993.07 912.952 1993.55C850.553 1992.03 787.955 1987.27 725.968 1980.63C711.471 1979.96 697.942 1973.07 685.422 1966.25C678.386 1963.71 674.616 1949.98 666.862 1951.98C646.364 1960.32 652.63 2060.83 651.794 2084C650.665 2095.19 655.405 2115.04 646.802 2122.93C638.862 2127.71 632.118 2129.09 624.02 2123.39C612.509 2104.95 608.885 2081.28 601.622 2060.62C590.457 2017.29 592.887 1969.57 600.759 1926.96C600.972 1921.91 598.834 1914.2 602.618 1911.09C604.729 1869.03 616.147 1826.9 622.48 1785C618.072 1775.93 605.154 1800.43 602.273 1803.73C590.245 1823.41 579.318 1843.67 569.507 1864.55C564.542 1874.31 566.161 1886.35 558.474 1894.82C552.487 1902.34 547.84 1910.64 543.897 1919.38C541.348 1926.15 538.401 1926.28 535.918 1919.69C518.194 1875.45 494.761 1833.35 466.682 1794.93C460.88 1792.87 465.7 1801.97 466.682 1804.3C484.698 1848.97 505.714 1892.01 530.156 1933.51C545.942 1969.26 560.851 2005.53 575.216 2041.9C580.925 2049.25 590.377 2107.78 575.11 2105.45C510.666 2084.45 446.914 2060.85 381.103 2044.33C376.669 2043.68 362.038 2038.49 362.463 2043.11C482.229 2087.95 607.238 2120.23 721.454 2178.49C859.329 2251.63 1033.41 2365.03 1089.42 2516.8C1092.82 2526.17 1102.67 2547.27 1083.9 2526.54C1055.62 2496.68 1026.8 2467.14 994.322 2441.73C953.896 2411.24 910.788 2384.1 866.126 2360.22C808.919 2326.9 753.304 2291.05 692.698 2263.84C593.006 2217.46 486.968 2185.97 387.834 2138.04C346.372 2116.48 274.786 2087.27 277.601 2032.09C279.473 2025.5 280.322 2016.47 271.149 2016.15C197.253 2002.56 124.99 1982.16 51.8239 1965.42C50.8149 1965.29 49.4209 1966.05 49.5005 1966.75C49.5669 1967.35 49.6067 1968.17 50.005 1968.49C74.5529 1988.51 104.013 2001.26 132.172 2015.3C161.42 2027.41 187.083 2047.12 216.862 2057.57C230.496 2061.35 244.118 2065.37 257.554 2069.8C272.635 2073.31 275.915 2093.42 291.076 2101.68C313.965 2118.43 339.747 2130.68 365.556 2142.22C447.418 2176.15 528.258 2215.41 610.995 2245.61C622.32 2250.09 633.618 2254.66 644.916 2259.23C651.355 2261.02 651.807 2268.27 653.387 2273.7C654.621 2279.52 657.874 2283.77 662.747 2287.07C711.404 2319.71 758.177 2355.06 804.086 2391.43C833.148 2405.89 749.813 2314.73 753.981 2309.12L753.795 2309.17C767.629 2316.11 781.503 2322.97 795.271 2330C807.339 2336.17 805.321 2335.07 811.547 2344.97C828.714 2372.31 844.672 2400.33 859.077 2429.22C863.989 2440.14 872.751 2447.42 882.031 2454.5C895.586 2466.5 909.102 2478.54 922.67 2490.53C950.165 2514.09 976.373 2539.12 1002.71 2563.95C1168.19 2725.43 1323.57 2911.77 1386.66 3138.3L1386.72 3138.14C1382.5 3135.65 1381.69 3130.65 1379.69 3126.55C1373.39 3111.71 1367.27 3096.78 1360.72 3082.05C1350.17 3058.27 1338.01 3035.29 1325.41 3012.52C1278.57 2927.87 1219.24 2850.37 1153.72 2779.32C1098.42 2717.37 1036.62 2661.79 974.302 2607.04C958.981 2593.56 943.222 2580.58 927.091 2568.05C916.045 2559.63 924.011 2578.41 925.179 2582.89C941.961 2638.56 965.022 2706.63 941.098 2762.86C907.987 2831.75 764.523 2745.06 714.418 2725.58C609.243 2673.32 499.222 2622.86 412.276 2542.37C407.31 2539.61 392.202 2513.77 389.308 2527.37C388.126 2544.66 386.241 2565.27 398.203 2579.44C411.28 2593.43 420.467 2610.4 434.036 2623.96C439.797 2632.13 446.582 2640.24 451.454 2648.9C453.339 2659.06 463.682 2668.33 456.393 2678.47C441.523 2706.9 421.224 2705.48 392.852 2700.37C356.435 2691.49 319.089 2684.78 292.523 2656.13C239.02 2612.77 192.433 2561.74 145.475 2511.59C107.093 2471.3 71.433 2428.5 38.906 2383.34C16.6815 2352.4 -5.33061 2320.84 -21.1958 2286.06C-24.7671 2278.74 -33.9012 2252.38 -29.1881 2254.01C-0.975984 2311.61 48.0003 2355.59 91.6263 2401.55C167.567 2476.25 240.494 2563.3 342.748 2601.85C350.169 2603.93 353.196 2600.72 352.346 2593.37C351.497 2572.07 354.816 2551.44 362.078 2531.38C365.078 2518.38 375.208 2504.17 372.274 2490.9C364.043 2475.09 357.113 2458.69 353.953 2441.07C339.429 2365.46 390.569 2293.09 455.225 2258.39C464.08 2245.2 427.557 2237.72 419.525 2231.91C407.231 2226.33 395.03 2220.54 382.643 2215.17C292.417 2178.55 200.465 2144.87 104.305 2127.62C75.2699 2122.42 -12.4998 2108.33 62.113 2148C69.7602 2152.16 78.1242 2153.83 86.7007 2154.79C88.0417 2155.05 89.4489 2155.77 89.6348 2157.12C88.0151 2165.35 118.604 2156.35 124.751 2157.77C163.451 2124.97 344.686 2346.76 338.074 2391.46C338.619 2400.8 331.184 2406.42 327.4 2414.15C313.739 2442.61 276.804 2437.04 252.389 2427.73C192.978 2404.4 144.785 2361.92 94.6134 2323.94C94.6267 2323.94 94.7196 2323.77 94.7196 2323.77C152.91 2412.9 244.344 2477.9 338.207 2525.61C344.274 2528.1 340.039 2532.72 334.357 2529.85C301.445 2517.22 271.653 2497.65 242.073 2478.75C217.632 2462.58 193.376 2446.14 169.04 2429.79C130.579 2403.96 100.282 2368.35 71.8711 2332.22C58.4753 2313.18 11.2515 2252.03 26.4396 2230.81C40.0744 2210.42 28.2452 2215.22 30.1437 2203.84C35.6533 2194.66 93.0335 2243.45 102.592 2249.37C134.416 2273.32 167.009 2296.15 200.97 2317.05C210.37 2322.46 301.896 2385.2 299.108 2363.78C268.068 2297.82 220.287 2236.91 160.756 2194.28C138.385 2178.48 113.067 2178.27 88.4665 2188.86C52.8329 2200.53 21.8991 2171.7 -5.02526 2152.39C-22.5367 2137.64 -43.261 2125.79 -56.617 2106.83C-63.7596 2096.3 -44.8675 2081.84 -43.3141 2068.58C-41.3625 2058.78 -42.6636 2048.64 -30.622 2045.6C-16.9341 2041.33 -23.2669 2036.74 -33.9012 2036.56L-34.0473 2036.77C-19.7221 2020.21 2.31654 2029.65 21.222 2028.16C65.1135 2025.53 108.62 2033.03 151.502 2039.79C147.891 2034.3 134.283 2031.51 127.432 2027.69C113.187 2021.67 98.8751 2015.77 84.6828 2009.62C47.071 1992.96 11.2515 1971.09 -15.9915 1939.86C-33.8216 1919.73 -48.6247 1895.96 -53.1519 1869.16C-54.9309 1859.68 -45.5977 1860.85 -47.39 1855.96C-73.7302 1822.53 -85.8116 1780.17 -84.3114 1737.89C-82.9174 1708.31 -78.0981 1679.01 -72.907 1649.89C-69.8668 1637.47 -69.9331 1622.01 -56.9887 1615.51C-42.5574 1604.44 -27.9269 1620.34 -22.7093 1633.61C-19.8549 1640.72 -13.4026 1647.54 -17.6643 1655.59C-40.0747 1699.58 -64.2641 1723.53 -54.3866 1777.69C-48.7441 1806.42 -22.3508 1825.66 2.36965 1838.07C21.5937 1847.06 41.8799 1858.5 63.2946 1859.67L63.122 1859.84L63.0557 1859.82ZM395.415 2465.9C399.53 2461.45 401.841 2454.33 409.235 2456.16C428.353 2430.09 590.63 2339.8 560.147 2308.06C539.436 2293.94 516.946 2282.92 495.558 2269.95C488.309 2266.07 480.781 2261.45 472.404 2264.44C388.511 2289.2 335.565 2391.92 377.452 2471.83C382.125 2484.27 388.365 2470.39 393.237 2465.8C393.968 2465.84 394.685 2465.86 395.415 2465.9ZM1684.31 163.591L1684.45 163.418C1684.45 163.418 1684.29 163.578 1684.31 163.591ZM885.802 834.805L885.935 834.566C885.988 835.707 886.479 836.529 887.621 836.887C900.153 852.612 917.134 864.942 930.888 879.805C967.73 919.555 1005.33 966.2 1015.86 1020.34C1015.86 1022.66 1012.64 1024.31 1010.71 1023.11C1007.16 1021.45 1005.25 1016.32 1000.79 1019.14C1000.44 1019.34 999.381 1018.94 999.102 1018.53C969.389 949.321 899.861 869.079 826.483 846.897L826.682 846.751C877.093 895.623 924.715 948.208 961.689 1008.26C994.163 1064.1 1016.79 1124.71 1042.5 1183.78C1045.3 1188.47 1049.91 1203.65 1054.01 1203.36C1052.88 1189.62 1047.16 1175.97 1044.4 1162.27C1031.85 1112.17 1019.15 1060.59 1023.25 1008.6C1023.32 986.751 1030.49 965.802 1030.78 944.031C1030.02 937.574 1023.5 933.092 1019.75 928.134C1010.53 920.868 999.766 903.724 988.242 902.478C979.506 903.791 972.974 897.267 966.243 892.852C939.757 874.939 915.156 852.479 887.66 836.887C887.541 835.746 886.811 835.163 885.802 834.845V834.805ZM1508.23 1700.88C1508.23 1700.88 1508.17 1701.12 1508.2 1701.15L1508.23 1701.43V1700.88ZM2295.41 1543.28C2296.12 1542.63 2296.81 1541.96 2297.51 1541.31C2316.58 1532.76 2334.33 1518.2 2353.15 1507.84C2357 1505.37 2356.11 1493.52 2350.09 1498.77C2334.61 1511.88 2317.24 1523.19 2302.94 1537.46C2299.61 1538.61 2297.84 1541.82 2294.99 1543.7L2295.41 1543.26V1543.28ZM1159.19 1746.06C1159.07 1746.3 1158.96 1746.52 1158.84 1746.76C1159 1746.56 1159.17 1746.37 1159.33 1746.18C1139.76 1706.74 1076.75 1553.82 1130.84 1529.29C1135.83 1528.23 1141.41 1533.19 1139.15 1538.22C1136.27 1545.2 1136.71 1552.39 1137.43 1559.62C1138.69 1572.41 1140.91 1585.03 1143.52 1597.6C1162.12 1679.93 1183.47 1763.54 1219.99 1839.72C1230.18 1853.47 1272.66 1925.74 1242.4 1930.13C1206.68 1899.82 1170.31 1870.07 1133.84 1840.62C1125.9 1833.76 1114.22 1835.85 1104.5 1833.91C1102.75 1833.91 1100.28 1833.55 1098.93 1834.65C1135.37 1872.85 1182.86 1904.63 1224.73 1938.4C1265.05 1968.62 1302.89 2001.91 1341.43 2034.2C1367.27 2055.61 1393.05 2077.12 1418.58 2098.9C1433.97 2111.84 1450.23 2123.81 1460.75 2141.33C1465.42 2149.84 1470.85 2159.52 1460.29 2166.22C1456.66 2169.28 1461.69 2174.04 1457.93 2177.07C1455.05 2179.96 1451.61 2182.11 1452.22 2186.74C1449 2203.74 1427.69 2209.36 1412.43 2208.43C1399.34 2209.09 1390.57 2198.99 1380.46 2192.51C1352.26 2173.04 1320.45 2159.78 1289.27 2145.97C1214.11 2118.38 1136.34 2097.15 1057 2084.78C1007.09 2075.72 956.551 2072.14 906.181 2066.76C889.665 2063.35 872.778 2063.15 856.567 2059.43C837.728 2059.93 816.898 2052.03 799.254 2055.91C800.382 2059.49 803.94 2061.42 806.967 2063.15C822.288 2072.25 838.963 2078.55 855.226 2085.71C918.342 2112.49 984.286 2131.61 1050.75 2147.98C1180.11 2177.51 1312.4 2192.35 1441.44 2223.55C1486.93 2232.91 1531.69 2245.32 1576.1 2258.8C1579.26 2259.66 1582.42 2260.7 1585.8 2260.33C1589.21 2259.49 1588.44 2255.49 1587.81 2252.87C1583.59 2239.03 1578.52 2225.46 1574.01 2211.71C1512.87 2037.59 1567.77 2118.52 1456.47 2081.39C1443.7 2075.62 1430.22 2073.11 1416.58 2070.61C1390.06 2058.96 1384.13 2025.67 1372.82 2001.73C1363.14 1975.46 1359.69 1947.26 1350.57 1920.99C1327.24 1862.46 1305.61 1802.83 1276.06 1747.06C1226.23 1640.54 1164.01 1538.12 1083.54 1451.59C1057.2 1423.18 1028.43 1396.41 995.703 1375.5C985.693 1370.17 969.15 1354.75 959.95 1356.53C958.038 1360.57 961.676 1364.68 962.844 1368.51C972.762 1389.29 981.458 1410.66 993.061 1430.62C1013.72 1471.78 1036.01 1512.1 1057.78 1552.69C1078.55 1591.21 1098.69 1630.07 1118.12 1669.27C1129.04 1691.05 1139.66 1712.96 1150.92 1734.55C1151.81 1736.26 1152.7 1738.11 1154.75 1738.84C1154.74 1741.92 1158.05 1743.31 1159.17 1746.04L1159.19 1746.06ZM398.8 914.57L398.999 913.761C402.079 932.111 408.08 925.84 398.8 914.57ZM229.355 1353.89L229.66 1354.62L229.182 1354.03C231.532 1348.33 205.338 1261.33 201.7 1295.24C210.29 1314.84 217.95 1335.99 229.355 1353.89ZM648.514 1334.34L648.581 1334.6L648.315 1334.56C642.792 1320.09 630.007 1308.9 621.855 1295.67C596.126 1261.33 574.645 1223.1 552.142 1187.34C550.203 1188.46 551.04 1190.78 551.172 1192.57C553.761 1207.14 556.523 1221.68 558.966 1236.27C559.975 1242.33 562.563 1247.38 566.387 1252.11C579.995 1268.1 591.134 1286.37 606.11 1301.12C620.223 1311.91 631.906 1327.58 648.528 1334.34H648.514ZM1180.27 459.7L1180.38 459.474C1189.1 473.158 1204.8 482.412 1216.93 493.311C1248.19 522.348 1279.17 551.61 1310.64 580.448C1312.79 582.291 1316.8 585.685 1318.73 581.774C1320.8 574.866 1322.83 567.958 1324.74 561.01C1325.88 557.457 1322.49 555.097 1319.95 553.227C1296.6 536.19 1273.34 519.02 1249.84 502.181C1227.35 487.278 1205.26 469.909 1180.27 459.713V459.7ZM417.161 1409.38L417.254 1409.6H416.975C406.912 1381.29 384.94 1357.33 374.597 1328.6C349.957 1271.83 330.348 1213.03 317.881 1152.35C293.678 1051.81 391.326 1086.87 436.863 1127.47C502.316 1181.96 498.399 1188.3 468.488 1106.76C466.616 1101.36 452.29 1077.31 446.475 1085.81C444.869 1098.06 453.233 1111.81 451.892 1123.02C447.338 1119.15 448.055 1114.55 440.634 1115.52C413.816 1097.26 386.652 1076.19 353.103 1072.42C330.852 1069.15 304.392 1079.05 298.976 1102.86C293.081 1117.92 303.025 1133.79 298.471 1148.63C293.532 1161.59 285.832 1173.14 279.234 1185.28C275.131 1194.07 280.389 1204.18 281.77 1213.17C285.102 1225.22 287.824 1237.42 290.585 1249.61C298.02 1288.8 308.375 1235.39 312.982 1224.4C314.376 1219.87 316.726 1217.53 318.85 1223.21C342.363 1289.09 370.296 1357.08 417.175 1409.38H417.161ZM1352.36 1463.6L1352.44 1463.41C1297.57 1515.82 1217.8 1469.82 1167.84 1432.42C1112.16 1391.98 1054.98 1353.53 1000.77 1311.1C981.351 1291.24 960.614 1272.58 940.46 1253.24C932.813 1249.22 903.34 1211.66 901.494 1223.57C905.424 1236.79 912.872 1248.75 916.324 1262.19C922.099 1281.35 925.405 1301.32 926.653 1321.28C926.932 1325.01 924.768 1334.09 930.822 1333.28C941.363 1331.39 944.138 1323.71 947.324 1314.59C952.396 1304.03 964.557 1300.34 973.186 1309.01C1029.82 1351.32 1087.77 1392.27 1146.96 1431.04C1179.82 1449.8 1201.45 1482.37 1224.8 1511.22C1296.11 1604.19 1353.92 1706.96 1399.38 1814.92C1418.63 1860.33 1436.16 1906.51 1450.87 1953.6C1459.19 1971.47 1457.47 1993.32 1467.91 2009.95C1479.08 2023.42 1495.21 2032.13 1511.69 2037.31C1519.51 2038.24 1512.26 2022.03 1511.57 2018.47C1495.68 1968.99 1482.23 1918.82 1467.34 1869.06C1458.94 1834.03 1442.98 1798.81 1446.34 1762.23C1446.02 1752.37 1458.13 1744.89 1454.04 1740.08C1398.45 1702.44 1361.43 1643.82 1322.95 1590.07C1309.1 1568.15 1294.21 1546.83 1282.13 1523.83C1276.9 1514.39 1268 1505.55 1266.19 1494.82C1267.15 1492.12 1271.89 1493.28 1274.17 1493.34C1283.97 1495.4 1293.86 1494.92 1303.73 1494.8C1326.5 1496.47 1344.47 1478.41 1347.27 1485.84C1369.09 1536.97 1388.31 1589.2 1412.45 1639.34C1427.85 1669.69 1441.79 1701.76 1464.79 1727.28C1468.58 1731.31 1472.92 1736.55 1478.88 1732.78C1483.95 1729.79 1489.62 1727.11 1491.41 1720.97C1496.06 1708.11 1502.96 1695.25 1514.5 1687.33C1551 1656.77 1629.67 1707.22 1666.82 1723.34C1695.05 1735.98 1722.75 1749.73 1750.1 1764.21C1765.99 1772.92 1782.75 1779.88 1798.49 1788.84C1819.54 1799.86 1809.63 1783.57 1806.5 1770.96C1786.63 1708.59 1765.5 1646.7 1742.22 1585.52C1695.11 1463.06 1646.76 1340.38 1588.99 1222.36C1570 1182.53 1545.32 1145.9 1523.49 1107.72C1513.85 1092.12 1503.85 1076.55 1494.91 1060.5C1490.07 1049.28 1492.86 1036.29 1493.67 1024.47C1494.68 1016.98 1495.86 1009.49 1498.77 1002.42C1499.57 1001.15 1498.7 998.564 1497.07 999.426C1473.94 1040.95 1478.93 1122.1 1489.7 1167.91C1517.28 1278.79 1569.15 1382.02 1616.2 1485.61C1617.23 1487.67 1619.11 1495.07 1614.91 1491.69C1561.73 1410.58 1517.01 1323.46 1483.36 1232.6C1465.62 1186.15 1452.82 1137.93 1444.68 1088.94C1438.63 1069.58 1426.77 1052.33 1421.93 1032.32C1416.6 1015.35 1411.33 1067.44 1409.34 1070.44C1405.46 1083.54 1403.96 1103.71 1388.93 1108.67C1382.65 1109.51 1384.5 1112.55 1386.37 1116.94C1423.43 1199.98 1548.86 1423.64 1513.96 1504.59C1508.81 1515.31 1501.07 1526.2 1489.82 1530.93C1470.5 1537.04 1446.89 1535.35 1430.75 1522.13C1399.75 1501.14 1377.99 1469.6 1361.23 1436.95C1324.17 1359.79 1289.34 1280.99 1265.86 1197.7C1256.74 1176.14 1252.31 1153.12 1246.04 1130.66C1238.83 1097.17 1231.37 1062.52 1236.06 1028.18C1239.22 999.493 1267.12 991.391 1260.47 981.461C1253.36 972.856 1245.36 964.967 1238.04 956.521C1225.5 940.73 1239.07 917.725 1237.68 899.044C1238.22 884.247 1240.47 869.57 1241.49 854.826C1242.36 840.36 1243.62 825.961 1246.17 811.695C1246.96 808.035 1245.36 804.588 1244.51 801.101C1239.79 789.473 1225.5 785.151 1216.51 777.089C1205.65 770.897 1207.12 782.061 1206.74 789.831C1206.53 799.086 1205.06 808.155 1203.04 817.171C1201.19 825.378 1197.98 832.763 1191.83 838.743C1186.95 842.588 1186.59 849.191 1183.2 853.977C1178.11 859.108 1172.98 864.253 1167.59 869.066C1149.76 889.577 1097.23 876.955 1104.18 891.142C1107.57 897.559 1110.88 904.016 1117.41 907.994C1128.55 916.28 1134.06 930.043 1141.18 941.552C1165.91 994.719 1173.8 1055.54 1193.17 1111.01C1215.43 1180.62 1243.88 1247.83 1273.78 1314.46C1289.93 1352.57 1308.03 1389.91 1323.79 1428.23C1328.86 1439.29 1332.92 1450.81 1338.13 1461.79C1341.13 1467.94 1347.43 1463.44 1352.36 1463.63V1463.6ZM944.337 2718.14C941.615 2662.4 920.957 2598.16 894.962 2546.93C886.691 2532.52 870.999 2524.53 858.639 2514.02C818.146 2481.43 775.184 2452.01 733.124 2421.47C717.498 2409.32 700.624 2399.05 684.174 2388.14C681.055 2385.5 679.78 2391.16 677.364 2389C671.575 2379.87 663.995 2373.04 654.515 2367.82C633.3 2353.99 612.535 2339.41 590.922 2326.21C581.814 2319.7 577.672 2322.72 572.561 2331.96C565.285 2343.41 556.589 2353.68 546.99 2363.23C523.969 2385.89 497.35 2404.4 471.674 2423.86C456.539 2435.05 380.957 2491.2 402.624 2509.63C474.9 2587.26 577.526 2626.59 670.54 2673.44C722.052 2697.71 773.219 2722.67 824.611 2747.2C878.779 2769.89 944.045 2813.59 944.337 2718.14ZM2152.65 1126.78C2160.05 1224.34 2178.26 1320.62 2191.43 1417.5C2196.61 1437.44 2195.38 1535.88 2223.75 1478.84C2231.32 1463.44 2237.46 1447.48 2242.07 1430.96C2243.66 1418.97 2262.54 1373.52 2253.18 1366.66C2246.38 1362.68 2238.94 1359.81 2231.86 1356.34C2228.13 1353.86 2225.74 1357.89 2225.77 1361.03C2222.06 1375.54 2223.55 1433.43 2201.13 1415.22C2196.89 1409.35 2198.63 1400.98 2198.11 1394.11C2198.64 1378.01 2199.65 1361.92 2200.24 1345.81C2198.58 1336.58 2181.26 1332.91 2193.15 1319.27C2196.07 1315.91 2202.2 1315.07 2202.72 1310.01C2203.3 1304.78 2203.99 1299.57 2204.43 1294.32C2208.35 1252.15 2214.15 1209.71 2228.28 1169.62C2236.27 1147.42 2246.53 1125.04 2266.18 1110.81C2274.82 1097.28 2266.7 1075.24 2267.52 1059.57C2265.21 1035.78 2266.38 1011.32 2260.99 987.997C2235.07 718.83 2140.07 445.672 1946.88 249.932C1911.9 214.863 1872.06 180.469 1829.16 156.895C1834.61 172.845 1848.69 186.515 1856.92 201.763C1865.94 215.923 1874.66 230.256 1883.41 244.576C1890.84 261.534 1988.72 403.482 1937.6 397.397C1930.12 395.103 1925.56 388.394 1920.76 382.706C1911.6 371.065 1902.54 359.344 1893.42 347.663C1890.26 343.897 1887.67 339.575 1883.85 336.433C1883.41 336.327 1881.62 336.433 1882 337.546C1885.73 348.18 1894.08 357.952 1893.62 369.593C1891.99 376.368 1895.97 387.811 1887.22 390.515C1879 391.099 1872.6 400.579 1864.32 396.27C1856.46 393.207 1851.59 385.981 1846.33 379.789C1836.01 366.954 1825.43 354.359 1814.32 342.214C1807.79 336.99 1800.75 322.736 1792.14 328.928C1790.71 330.387 1790.28 332.561 1791.33 334.378C1799.72 349.665 1810.43 363.547 1818.83 378.821C1847.31 423.49 1866.74 473.476 1890.29 520.372C1894.64 521.618 1895.73 503.931 1902.38 498.097C1921.95 469.697 1950.61 449.623 1973.44 424.392C1977.29 420.122 1980.5 407.301 1987.1 409.833C1989.28 411.955 1991.69 413.267 1994.73 413.904C2003.68 416.635 1998.99 430.345 2006.45 435.383C2009.31 438.645 2007.33 443.856 2009.87 447.449C2021.67 467.138 2006.35 484.229 2004.97 504.382C2003.48 517.893 2000.96 560.918 2013.05 568.939C2081.74 589.901 2130.5 635.658 2154.99 703.397C2169.09 746.342 2189.2 788.174 2193 833.718C2193.52 854.216 2197.17 878.837 2181.7 894.801C2181.24 895.928 2182.07 897.479 2183.04 898.155C2191.06 903.95 2198.18 910.884 2206.05 916.797C2218.53 926.185 2228.43 938.104 2239.4 948.977C2249.01 957.86 2246.4 971.729 2250.67 983.038C2251.77 1023.82 2252.01 1020.12 2222.13 1049.03C2208.51 1058.96 2203.63 1076.54 2189.4 1085.5C2162.25 1106.11 2152.51 1083.41 2152.63 1126.76L2152.65 1126.78ZM324.413 1812.84C324.294 1812.84 324.174 1812.84 324.068 1812.84C324.652 1802.38 323.431 1791.26 330.653 1782.68C364.083 1731.8 395.959 1679.87 427.185 1627.66C431.062 1621.48 452.941 1658.69 455.835 1662.66C461.212 1666.15 465.938 1683.9 471.262 1681.51C490.075 1663.63 510.613 1672.76 483.901 1651.31C437.58 1595.3 476.931 1603.9 469.191 1573.25C447.71 1507.42 575.827 1542.41 606.667 1550.56C649.019 1563.89 690.043 1581.69 728.796 1603.29C765.983 1622.29 803.236 1641.19 839.361 1662.15C846.477 1665.12 876.269 1687.64 879.549 1680.52C833.812 1630 784.875 1581.37 743.626 1527.19C737.89 1517.77 704.076 1483.89 718.812 1475.76C728.809 1472.43 739.231 1470.58 749.321 1467.56C759.624 1466.19 803.807 1446.26 807.418 1453.47C830.041 1480.83 851.363 1509.24 871.264 1538.66C913.523 1599.06 954.44 1660.33 992.902 1723.21C1025.6 1775.13 1011.81 1771.65 1065.01 1809.49C1070.44 1813.07 1074.87 1818.69 1081.32 1820.33C1090.64 1820.82 1116.93 1830.18 1110.98 1819.32C1053.76 1734.52 990.512 1653.96 929.401 1571.94C899.211 1531.64 869.18 1491.21 839.547 1450.5C838.193 1447.27 832.298 1442.38 837.171 1439.66C844.937 1436.94 852.704 1434.26 860.51 1431.64C863.285 1430.71 865.741 1431.42 867.6 1433.71C889.692 1461.12 912.5 1487.97 935.137 1514.96C980.329 1568.51 1026.74 1621.12 1074.88 1672.05C1093.06 1687.53 1048.83 1621.22 1048.26 1617.67C1024.76 1577.29 1002.31 1536.3 979.533 1495.52C958.662 1458.98 937.301 1422.48 922.205 1383.08C915.979 1370.01 909.062 1391.69 901.879 1393.44C888.523 1404.07 873.216 1412.11 858.227 1420.23C837.065 1428.31 813.645 1429.65 792.761 1438.64C777.773 1443.48 762.385 1447.39 747.21 1451.74C717.564 1458.86 684.188 1465.96 655.046 1453.57C642.832 1447.73 629.556 1444.74 616.89 1440.08C607.079 1436.28 599.618 1428.08 590.935 1422.3C585.585 1419.29 583.474 1413.18 578.283 1410.05C569.905 1405.23 554.199 1382.49 544.866 1391.58C530.076 1406.64 517.238 1423.34 504.639 1440.23C500.616 1446.77 492.81 1453.08 491.668 1460.5C495.558 1460.83 498.691 1454.75 501.771 1452.37C507.812 1445.85 513.72 1439.21 519.734 1432.67C521.473 1431.15 523.451 1428.11 525.961 1428.63C552.248 1452.15 576.052 1484.35 613.903 1488.48C623.9 1490.32 623.157 1478.97 629.635 1479.1C637.402 1480.5 644.97 1482.91 652.962 1483.05C656.878 1482.94 658.419 1486.52 657.263 1489.88C651.077 1519.65 620.023 1535.22 592.077 1538.98C559.297 1542.27 528.178 1523.98 502.833 1504.93C464.16 1474.64 478.1 1521.7 467.173 1542.2C453.631 1572.27 436.903 1600.59 418.755 1628.09C394.525 1668.52 368.424 1707.57 340.876 1745.74C318.545 1776.33 299.905 1812.7 268.281 1834.63C226.845 1862.83 180.139 1877.93 129.875 1877.49C128.641 1877.53 128.76 1879.23 129.663 1879.6C145.9 1883.75 162.349 1887.2 178.573 1891.4C238.051 1904.45 292.523 1931.77 348.324 1955.19C409.408 1986.16 469.351 2019.51 526.877 2056.68C528.643 2058.29 534.789 2061.38 533.754 2056.82C520.637 2042.27 502.794 2032.21 486.477 2021.5C442.917 1993.48 396.371 1971.03 350.62 1947.06C346.77 1940.7 379.125 1927.45 383.811 1921.89C391.551 1914.01 415.86 1908.64 409.408 1894.32C400.845 1866.69 399.982 1837.24 393.291 1809.12C393.038 1807.47 391.578 1804.5 389.786 1805.36C386.666 1808.32 389.64 1813.72 389.507 1817.53C392.68 1835.7 394.087 1854.09 396.477 1872.35C397.778 1881.84 396.623 1892.33 387.993 1898.06C381.209 1904.02 372.234 1906.13 365.304 1911.67C355.971 1917.81 344.102 1912.27 336.694 1905.39C319.395 1891.51 324.971 1834.36 324.44 1812.81L324.413 1812.84ZM1726.83 2783.93C1820.21 2775.17 1921.49 2743.77 1979.76 2665.95C2004.34 2635.3 1989.09 2615.64 1972.77 2586.16C1943.13 2544.99 1901.74 2513.25 1859.31 2485.57C1841.84 2472.1 1821.9 2462.36 1802.64 2451.77C1760.19 2427.64 1715.9 2405.95 1670.54 2388.23C1667.34 2388.03 1666.61 2391.44 1667.17 2393.96C1671.81 2420.85 1678.49 2447.35 1683.44 2474.19C1694.17 2531.39 1702.69 2589.03 1709.45 2646.82C1713.77 2685.05 1717.7 2723.34 1719.65 2761.77C1721.27 2768.84 1716.13 2784.04 1726.83 2783.94V2783.93ZM1885.93 715.383C1883.91 692.286 1906.17 710.464 1915.72 715.568C1926.29 722.277 1936.57 729.397 1946.1 737.565C1947.64 738.983 1950.76 740.429 1951.86 737.856C1952.04 724.412 1946.53 710.729 1947.93 696.913C1948.78 686.399 1950.12 675.978 1954.12 666.086C1955.61 662.427 1957.01 658.648 1956.48 654.631C1956.26 648.611 1949.86 645.999 1946.06 642.221C1936.41 633.404 1934.21 619.575 1930.21 607.721C1924.67 596.968 1912.25 609.007 1908.44 615.504C1901.7 624.759 1887.76 620.542 1879.93 614.894C1873.09 610.134 1872.27 600.482 1869.06 593.282C1861.46 570.053 1849.08 548.918 1835.84 528.526C1790.54 458.149 1730.1 399.492 1681.56 331.514C1666.58 310.167 1621.76 257.052 1622.04 234.353C1621.06 231.37 1621.43 228.625 1622.9 225.801C1625.8 215.26 1610.42 213.921 1607.49 202.36C1604.58 194.616 1613.48 188.928 1617.29 183.24C1621.88 173.84 1577.79 175.51 1570.13 172.739C1555.47 170.446 1540.54 171.493 1525.84 169.266C1524.42 168.987 1522.16 169.889 1522.11 171.413C1534 190.679 1550.41 207.69 1563.23 226.65C1570.58 235.705 1610.3 299.547 1574.42 265.034C1525.14 219.808 1468.41 183.506 1419.74 137.617C1411.45 132.393 1390.2 104.112 1383.54 110.396C1375.72 120.168 1371.05 132.061 1364.36 142.536C1353.88 158.977 1337.66 177.645 1339.03 197.971C1341.4 221.731 1351.28 243.621 1361.53 264.915C1373.02 283.729 1378.25 310.697 1399.86 320.509C1425.82 332.429 1428.25 340.636 1448.36 314.675C1452.93 306.454 1443.82 294.76 1458.13 292.307C1519.07 287.322 1576.33 317.552 1625.76 350.076C1699.85 395.726 1751.88 467.324 1789.2 544.583C1818.7 603.651 1842.8 665.742 1857.38 730.18C1872.43 788.479 1890.47 845.743 1916.91 900.051C1929.69 932.827 1938.1 967.141 1951.24 999.824C1963.76 1032.75 1980.55 1063.8 1995.58 1095.61C1998.9 1102.41 2002.35 1109.13 2005.84 1115.85C2006.72 1116.93 2007.65 1119.13 2009.27 1118.78C2010.56 1117.89 2009.55 1115.45 2009.51 1114.17C1998.65 1068.4 1984.79 1023.45 1967.93 979.551C1959.74 957.356 1944.45 938.131 1937.91 915.326C1931.71 890.121 1923.44 865.473 1912.74 841.766C1906.36 830.018 1904.43 816.985 1902.25 803.991C1899.01 794.962 1897.27 785.588 1895.98 776.161C1892.61 755.69 1886.44 736.663 1885.97 715.356L1885.93 715.383ZM540.379 743.425C482.693 744.313 425.486 752.905 368.942 763.738C355.944 765.859 312.677 770.155 314.721 785.124C317.244 797.521 334.981 796.142 344.5 800.544C412.847 812.968 476.427 842.415 536.197 877.008C544.999 881.065 538.799 874.767 535.905 872.407C513.388 852.161 489.398 833.466 468.169 811.841C466.881 810.356 465.142 808.937 463.243 809.573C458.411 815.792 467.638 823.495 466.138 829.78C436.611 817.237 408.744 794.975 377.518 783.507C376.523 782.525 376.669 781.014 378.023 780.563C392.972 776.519 408.014 772.833 423.282 770.327C469.112 762.796 515.645 758.527 561.966 763.526C583.407 764.109 604.888 766.177 624.551 775.551C632.092 778.442 636.765 783.785 641.319 790.149C648.541 798.688 655.777 807.227 662.999 815.778C677.709 834.301 694.703 851.206 707.355 871.253C768.094 967.486 850.779 1047.33 928.153 1130.04C961.477 1167.56 1002.59 1200.95 1024.14 1247.06C1031.48 1263.83 1040.7 1280.66 1056.19 1291.2C1086.43 1312.92 1092.31 1279.69 1100.64 1292.01C1152.67 1357.06 1215.33 1418.29 1290.84 1455.32C1295.95 1456.74 1301.81 1460.79 1306.65 1457.96C1306.55 1457.08 1306.3 1455.72 1305.73 1455.46C1290.38 1450.33 1276.38 1441.94 1263.94 1431.65C1243.56 1413.1 1219.06 1396.73 1204.51 1372.97C1190.08 1341.76 1176.78 1310.12 1163.22 1278.33C1160.53 1268.3 1152.51 1254.58 1149.47 1244.73C1144.7 1230.51 1139.5 1216.38 1133.67 1202.43C1119.58 1161.87 1105.92 1120.88 1095.34 1079.26C1090.4 1059.21 1085.11 1039.19 1079.57 1019.29C1076.01 1009.32 1073.32 995.197 1060.37 994.772C1058.65 994.574 1056.2 995.939 1055.54 997.61C1036.04 1081.98 1076.09 1178.08 1094 1260.57C1097.44 1270.64 1090.84 1280.14 1082.25 1285.13C1067 1290.1 1052.46 1270.86 1045.06 1259.54C1034.34 1239.13 1026.77 1217.12 1011.41 1199.44C957.706 1134.92 896.011 1077.4 848.177 1008.1C826.072 983.37 804.113 958.549 780.096 935.532C760.261 915.578 746.746 890.571 727.615 870.14C716.263 857.411 728.292 840.148 731.677 826.372C734.611 819.703 728.491 810.886 736.855 806.736C755.03 791.528 779.605 792.774 799.678 804.031C823.894 817.343 847.871 831.278 872.194 844.325C879.15 845.12 853.474 822.567 851.894 818.589C840.184 801.247 860.776 802.851 870.375 810.793C886.731 820.114 998.624 902.001 926.759 840.519C915.952 828.189 899.437 823.349 887.753 812.199C871.689 801.379 853.487 793.782 838.751 780.921C828.873 774.292 820.668 765.713 811.76 757.997C804.777 752.043 796.32 739.925 786.933 739.951C780.295 740.296 775.688 744.95 771.201 749.312C754.194 764.122 736.789 782.605 712.665 782.989C699.11 784.342 687.918 775.14 675.85 770.367C633.964 749.405 586.74 744.115 540.392 743.385L540.379 743.425ZM1362.14 787.657C1362.14 787.657 1362.06 787.657 1362.02 787.657C1362.02 795.559 1361.01 803.859 1367.36 809.839C1373.6 816.64 1380.49 822.753 1387.02 829.249C1392.69 834.884 1395.16 835.229 1401.59 830.602C1447.39 802.148 1490.64 769.837 1534.51 738.519C1542.78 732.566 1550.97 726.427 1559.8 721.376C1566.13 716.496 1570.26 721.442 1577.14 723.524C1581.17 724.995 1582.38 729.252 1583.25 733.044C1585.26 742.537 1592.11 749.882 1594.74 759.137C1599.84 773.735 1604.34 788.518 1611.8 802.162C1648.07 870.047 1686.67 936.606 1721.69 1005.18C1743.97 1045.47 1764.71 1086.64 1787.57 1126.6C1792.49 1133.11 1796.12 1122 1794.14 1117.56C1788.9 1099.91 1783.85 1082.2 1779.24 1064.37C1765.2 1014 1749.66 963.999 1730.02 915.511C1723.95 900.582 1717.28 885.891 1710.57 871.24C1701.95 854.826 1696.11 835.972 1682.06 823.19C1644.2 788.532 1608.56 751.5 1574.15 713.46C1555.15 690.774 1534.46 669.6 1516.05 646.384C1504.31 633.138 1494.04 618.368 1480.42 606.939C1480.24 606.767 1479.01 607.231 1478.91 607.589C1479.23 630.911 1487.3 654.18 1491.45 677.224C1494.26 691.345 1498.72 705.386 1499.9 719.718C1498.91 735.762 1481.72 734.051 1472.57 724.677C1413.95 688.282 1427.1 626.668 1404.45 570.822C1391.16 541.374 1370.57 516.023 1353.43 488.79C1342.47 472.813 1348.37 492.317 1349.85 499.37C1352.72 513.252 1354.11 527.32 1355.01 541.44C1355.62 550.907 1354.95 549.581 1362.59 556.33C1366.79 560.029 1370.92 563.808 1374.95 567.68C1387.05 578.459 1386.49 593.269 1369.17 596.597C1362.77 602.378 1366.42 614.947 1364.98 622.969C1361.9 645.814 1387.37 663.66 1397.13 683.283C1411.99 706.433 1425.66 731.055 1432.04 757.997C1435.99 770.433 1424.71 777.779 1419.42 787.497C1408.29 804.588 1386.09 788.638 1376.47 777.567C1363.03 762.916 1362.08 774 1362.17 787.643L1362.14 787.657ZM2127.19 1116.51C2128.08 1100.75 2125.29 1084.31 2134.72 1070.39C2145.02 1053.96 2154.82 1037.17 2163.73 1020.03C2165.58 1015.31 2162.69 1010.97 2158.89 1008.18C2153.28 1004.33 2150.82 997.955 2146.36 993.089C2140.32 987.003 2134.52 980.745 2129.79 973.572C2098.43 935.917 2066 899.203 2034.31 861.8C2021.14 847.838 1988.77 796.487 2007.88 851.657C2014.16 872.619 2019.84 894.324 2020.66 916.267C2021.59 950.488 2023.37 984.537 2028.69 1018.44C2035.13 1072.99 2039.55 1127.73 2045.75 1182.31C2060.5 1226.36 2063.28 1273.87 2072.12 1319.53C2080.74 1360.13 2083.83 1405.36 2095.63 1443.64C2097.37 1442.99 2097.4 1441.04 2097.58 1439.49C2099.35 1418.84 2101.08 1398.2 2102.66 1377.54C2107.2 1322.8 2110.33 1267.97 2111.82 1213.05C2112.49 1194.01 2114.63 1174.93 2112.53 1155.91C2110.28 1132.69 2105.03 1130.07 2127.19 1116.5V1116.51ZM169.505 1787.54C169.505 1787.54 169.505 1787.46 169.505 1787.41C202.244 1787.01 237.241 1786.75 266.714 1770.74C283.549 1760.59 309.212 1744.88 305.508 1722.22C304.91 1719.37 304.445 1715.99 307.101 1714.02C334.291 1689.64 326.258 1647.99 320.005 1616.15C316.779 1613.67 318.001 1622.4 317.669 1624.21C316.009 1645.65 321.001 1695.06 298.564 1705.13C287.558 1707.74 274.839 1686.26 266.661 1679.59C254.115 1666.08 241.277 1652.85 228.12 1639.93C187.548 1601.8 145.263 1561.24 91.7325 1542.55C70.3842 1535.35 39.9947 1534.96 28.5372 1558.11C21.2087 1570.46 59.6171 1582.71 68.5255 1583.89C96.9899 1592.65 133.898 1591.62 149.458 1621.94C158.273 1649.76 161.46 1681.06 152.166 1709.17C145.05 1731.01 131.946 1750.71 125.534 1772.8C125.175 1787.2 159.11 1788.26 169.505 1787.52V1787.54ZM512.711 1600.41C478.896 1602.13 580.712 1665.18 587.775 1670.67C656.188 1713.44 729.327 1747.98 799.214 1788.22C803.608 1789.29 831.568 1812.09 827.267 1798.79C823.669 1788.8 818.584 1779.63 812.092 1771.24C810.711 1768.62 806.728 1766.21 807.445 1763.07C808.534 1759.98 831.953 1766.7 834.462 1768.61C856.899 1783.09 872.672 1805.91 886.944 1828.08C896.224 1843.55 894.206 1840.71 907.402 1848.61C930.888 1862.67 953.484 1878 974.833 1895.13C981.232 1899.18 1028.59 1942.82 1008.63 1917.72C976.997 1882.89 946.727 1846.78 915.979 1811.29C872.114 1777.93 825.926 1747.08 778.835 1718.5C731.916 1688.25 682.329 1661.85 631.295 1639.34C593.776 1621.58 554.345 1604.72 512.698 1600.41H512.711ZM2378.22 1327.16C2378.76 1363.3 2380.29 1399.44 2379.24 1435.6C2377.86 1442.72 2382.41 1444.75 2387.23 1439.26C2416.23 1417.65 2445.78 1396.7 2474.38 1374.58C2481.87 1367.62 2476.26 1356.17 2477.6 1347.19C2477.88 1339.61 2476.94 1332.12 2475.81 1324.65C2476.52 1298.76 2474.54 1272.81 2472.28 1246.98C2473.49 1236.06 2465.76 1232.05 2457.07 1228.07C2435.21 1216.98 2415.33 1203.11 2397.56 1186.19C2393.51 1182.49 2389.42 1176.83 2386.13 1184.89C2374.01 1230.96 2379.48 1279.92 2378.22 1327.16ZM1504.77 454.396C1505.51 465.998 1503.92 470.983 1496.39 460.495C1478.72 435.582 1457.82 412.671 1443.18 385.782C1442.32 383.607 1439.2 379.166 1437.37 382.666C1437.13 389.243 1441.08 395.302 1444.15 400.87C1469.6 442.052 1500.14 479.774 1530.42 517.468C1599.31 603.77 1667.86 690.867 1744.57 770.513C1768.99 792.987 1737.09 726.122 1734.64 720.289C1722.33 695.548 1708.14 671.748 1692.35 649.075C1645.86 581.8 1589.07 522.812 1533.71 462.882C1522.92 453.031 1497.68 414.686 1504.77 454.41V454.396ZM1336.82 527.214C1334.57 503.361 1313.74 415.8 1295.39 403.575C1245.06 377.416 1198.58 341.352 1142.51 327.775C1136.94 328.915 1142.07 335.292 1143.1 338.408C1151.22 354.186 1157.75 370.707 1162.63 387.771C1169.5 405.71 1153.82 416.065 1162.88 419.685C1223.48 446.653 1277.44 485.82 1328.63 527.519C1331.46 529.905 1337.18 534.493 1336.81 527.214H1336.82ZM1585.18 943.09C1582.6 949.905 1587.08 958.629 1588.49 965.722C1592.42 978.623 1597.07 991.272 1601.98 1003.83C1636.54 1087.52 1672.3 1172.94 1722.45 1248.32C1724.16 1249.05 1725.45 1247.01 1725.33 1245.46C1723.55 1227.69 1727 1207.67 1732.52 1191.35C1759.44 1142.44 1766.87 1178.12 1710.71 1108.24C1665.74 1055.8 1624.83 998.591 1585.18 943.09ZM1481.79 1447.84C1471.62 1353.03 1428.32 1265.13 1386.41 1180.67C1367.4 1145.38 1349 1109.67 1328.06 1075.47C1326.68 1073.11 1322.13 1069.49 1321.44 1074.54C1330.93 1128.08 1351.14 1179.45 1368.59 1230.86C1388.73 1284.6 1410.56 1338.06 1438.65 1388.28C1443.78 1394.55 1476.46 1467.41 1481.79 1447.84ZM1969.55 669.335C1975.91 716.457 2018.99 762.558 2054.69 791.687C2093.15 823.601 2131.17 856.019 2169.74 887.8C2186.46 897.188 2164.56 864.796 2162.04 861.071C2142.91 834.182 2129.62 804.018 2112.85 775.75C2100.04 754.35 2080.48 737.856 2063.8 719.506C2047.27 702.005 2030.63 682.832 2007.4 674.347C1996.3 670.409 1985.37 665.291 1973.76 663.209C1970.69 662.891 1969.67 667.147 1969.53 669.335H1969.55ZM496.328 1743.68C498.797 1753.69 500.789 1765.31 508.237 1773.01C520.451 1784.97 532.214 1797.39 544.202 1809.57C552.367 1819.17 559.417 1829.4 562.816 1841.75C563.055 1843.58 565.192 1845.82 566.878 1844.16C587.032 1812.02 599.883 1764.8 641.093 1754.32C646.032 1753.32 644.173 1751.4 641.279 1749.03C638.079 1744.57 633.579 1742.03 628.706 1739.82C592.276 1722.18 557.2 1701.86 522.881 1680.4C516.057 1675.53 510.693 1675.8 511.901 1685.64C514.039 1693.95 513.282 1702.45 513.8 1710.93C512.14 1723.34 496.673 1730.45 496.315 1743.68H496.328ZM657.94 1295.72C657.555 1315.76 662.72 1334.89 672.239 1352.4C676.833 1362.98 676.766 1363.04 685.661 1370.14C714.418 1396.13 753.928 1378.95 786.07 1369.59C805.241 1361.99 827.16 1360.78 844.977 1350.33C855.452 1341.86 844.473 1319.39 840.915 1308.75C835.763 1293.98 820.177 1255.94 807.75 1249.02C800.289 1258.11 803.714 1277.37 800.833 1289.13C799.094 1303.84 796.598 1318.42 793.585 1332.91C791.885 1339.62 796.678 1344.59 800.037 1349.74C802.586 1357.79 748.445 1361.99 740.732 1363.31C732.713 1363.17 713.037 1363.73 713.422 1352.52C716.131 1340.32 719.702 1328.39 723.008 1316.48C724.561 1310.12 724.176 1304.05 720.711 1298.4C711.803 1284.61 704.076 1269.93 694.145 1256.85C689.246 1252.44 677.855 1263.17 672.12 1264.81C659.839 1270.26 656.759 1283.38 657.98 1295.69L657.94 1295.72ZM1285.34 881.463C1278.85 892.879 1282.71 908.139 1278.73 920.802C1277.2 927.232 1279.25 933.106 1284.01 937.945C1299.45 952.251 1300.53 962.487 1323.55 963.628C1346.28 967.817 1363.26 983.33 1371.57 1004.7C1378.83 1021.05 1380.86 1038.9 1383.69 1056.37C1386.21 1068.44 1387.26 1101.73 1395.89 1069.13C1404.35 1033.25 1413.81 995.767 1403.95 959.424C1404.8 945.927 1417.44 953.816 1419.24 946.152C1421.71 937.242 1425.05 928.691 1429.31 920.497C1429.97 918.839 1431.13 916.572 1429.81 914.968C1425.55 910.34 1419.32 910.579 1414.66 914.013C1400.78 922.883 1385.97 930.109 1371.44 937.813C1349.4 950.157 1317.18 947.531 1302.15 925.88C1295.8 912.515 1291.02 898.513 1287.53 884.128C1287.01 883.133 1286.75 881.33 1285.34 881.476V881.463ZM665.959 1890.41C665.11 1895.95 668.19 1898.97 673.686 1893.97C688.277 1882.73 702.828 1871.45 717.445 1860.24C732.447 1848.44 748.312 1837.82 762.744 1825.37C765.638 1821.82 782.791 1814.6 777.759 1810.04C741.117 1792.25 703.89 1775.36 666.796 1758.53C661.684 1758.21 664.857 1765.32 664.844 1768.27C668.044 1785.12 669.677 1802.11 669.279 1819.26C668.708 1843.96 667.539 1864.71 665.959 1890.41ZM444.511 1295.65C448.082 1313.54 459.964 1328.17 467.319 1344.55C471.315 1351.91 480.436 1367.64 488.694 1356.13C502.369 1337.59 510.998 1344.04 522.27 1329.85C527.142 1320.75 540.591 1312.93 538.016 1301.73C529.957 1276.91 506.723 1261.38 488.853 1243.75C485.853 1241.74 479.812 1234.29 476.931 1239.36C474.714 1276.24 451.096 1257.52 444.497 1295.64L444.511 1295.65ZM676.66 1232.65C665.787 1215.64 653.759 1196.44 635.344 1186.67C612.416 1176.8 590.484 1164.75 568.83 1152.46C558.713 1147.26 566.095 1162.63 567.993 1166.38C590.709 1213.85 618.669 1258.41 645.952 1303.31C646.642 1304.34 648.581 1306.59 649.51 1304.75C646.297 1281.76 647.638 1259.46 666.066 1243.06C669.557 1239.54 675.12 1237.63 676.647 1232.65H676.66ZM1267.35 256.31C1264.89 235.056 1257.8 212.277 1263.46 191.554C1260.3 170.26 1271.48 149.974 1274.37 129.303C1273.83 127.063 1271.08 127.805 1269.87 129.237C1263.63 137.299 1254.8 142.92 1248.42 150.929C1227.64 174.224 1205.99 196.791 1185.85 220.63C1182.2 227.034 1207.77 236.846 1212.44 241.287C1228.49 248.911 1245.13 255.037 1262.03 260.486C1264.83 261.428 1267.26 259.2 1267.35 256.296V256.31ZM794.275 1103.49C793.438 1070.59 747.396 1030.9 721.083 1013.85C718.308 1015.71 723.194 1018.97 724.521 1020.45C748.419 1043.78 781.649 1082.52 771.4 1118.12C764.496 1141.41 748.166 1160.1 732.686 1178.25C693.8 1226.22 666.876 1171.66 722.57 1249.13C725.796 1252.38 731.571 1263.93 736.536 1260.7C742.723 1245.35 744.887 1226.1 736.151 1211.28C731.08 1202.72 728.504 1200.09 737.718 1193.46C763.885 1169.36 794.235 1141.93 794.288 1103.51L794.275 1103.49ZM1068.47 196.95C1066.9 191.129 1049.58 199.429 1044.87 199.96C1005.97 212.476 969.854 232.232 936.199 255.183C931.286 259.293 938.071 264.013 941.111 266.797C952.144 275.084 962.393 284.471 973.996 291.949C985.361 299.653 994.734 310.26 1006.24 317.778C1018.29 325.216 1028.03 335.929 1041.69 340.755C1044.88 342.558 1052.02 341.723 1048.58 336.883C1032.93 314.516 1014.16 294.667 996.354 274.05C993.26 268.72 971.912 250.993 976.957 246.445C1006.07 227.551 1037.03 210.487 1068.48 196.95H1068.47ZM1499.71 923.016C1500.38 930.494 1496.58 954.333 1503.16 957.369C1509.06 958.006 1515.02 957.025 1520.81 958.801C1522.03 959.146 1523.64 958.218 1524.06 957.091C1532.34 933.901 1537.28 909.545 1545.94 886.501C1550.75 878.758 1546.63 874.833 1543.13 867.408C1536.63 860.699 1534.28 836.714 1523.05 840.307C1437.79 897.824 1512.31 840.718 1499.71 923.029V923.016ZM1474.61 691.106C1471.22 658.794 1465.42 626.681 1461.02 594.462C1459.96 587.25 1458.06 580.355 1453.44 574.402C1421.09 534.002 1396.95 487.437 1364.82 446.852C1362.65 444.187 1345.14 426.314 1347.63 435.078C1383.61 490.076 1427.79 543.708 1439.33 610.161C1446.58 637.713 1448.32 671.43 1470.6 691.557C1471.76 692.551 1474.04 693.028 1474.61 691.093V691.106ZM278.636 970.522C272.755 944.561 271.175 863.948 247.344 853.619C234.121 851.034 220.619 850.172 207.621 846.406C205.895 845.916 203.068 847.109 203.36 849.191C223.341 889.246 249.203 926.423 270.246 966.054C271.773 969.117 277.07 978.053 278.636 970.535V970.522ZM316.7 1427.33C317.894 1454.79 320.337 1485.84 339.601 1507.16C346.266 1514.45 352.506 1522.1 358.294 1530.12C383.931 1570.01 385.511 1541.39 400.964 1515.29C403.115 1508.66 413.763 1493.11 411.891 1487.59C403.951 1489.9 391.405 1522.86 383.785 1519.6C371.703 1507.12 360.418 1493.75 349.505 1480.24C342.27 1470.59 332.751 1461.87 330.6 1449.52C326.298 1425.55 325.701 1399.82 331.967 1376.16C333.175 1370.89 328.993 1371.81 327.188 1375.61C318.585 1391.34 317.403 1409.77 316.713 1427.33H316.7ZM810.299 1857.09C814.256 1872.59 795.895 1883.31 786.057 1893.31C766.262 1912.51 842.282 1896.19 850.686 1903.65C868.078 1909.5 851.589 1881.32 851.204 1874.02C845.588 1860.72 847.5 1840.37 833.267 1832.97C827.466 1831.16 801.059 1816.1 808.799 1832.66C810.711 1834 811.547 1835.31 810.831 1837.53C807.671 1844.53 810.791 1849.46 810.313 1857.11L810.299 1857.09ZM2481.08 1425.23C2481.08 1425.23 2481.15 1425.23 2481.18 1425.23C2479.84 1419.97 2482.5 1404.97 2477.6 1402.92C2445.65 1422.04 2417.25 1448.45 2386.65 1470.21C2377.18 1477.43 2378.05 1475.83 2377.98 1489.23C2377.87 1490.51 2379.08 1491.79 2380.25 1491.85C2410.45 1477.68 2439.95 1461.39 2472.11 1451.34C2486.15 1449.09 2480.47 1435.36 2481.08 1425.25V1425.23ZM513.335 1001.64C513.03 1007.05 512.976 1010.35 517.862 1012.87C526.386 1017.83 534.71 1023.13 543.286 1027.99C585.425 1051 626.582 1075.88 670.978 1094.45C672.956 1095.1 678.041 1098.15 677.55 1094.41C627.007 1064.54 576.132 1033.85 534.258 992.187C521.938 983.794 549.924 945.291 547.667 930.441C546.592 928.478 544.906 930.931 544.309 932.085C534.829 954.983 517.544 977.324 513.308 1001.64H513.335ZM1621.46 1079.22C1597.08 1025.44 1570.86 971.318 1556.63 914.252C1555.33 913.947 1554.01 916.466 1553.8 917.792C1549.42 933.941 1545.05 950.103 1540.68 966.253C1539.77 969.408 1538.96 972.842 1541.29 975.627C1567.08 1008.84 1593.03 1041.91 1616.91 1076.53C1618.12 1077.77 1620.22 1082.45 1621.47 1079.19L1621.46 1079.22ZM369.805 881.012C364.985 880.548 364.03 885.865 366.565 888.901C370.084 893.528 383.546 914.477 380.492 896.127C381.82 890.412 405.717 908.338 410.205 909.863C420.228 916.691 427.344 920.51 418.728 932.681C404.031 958.298 388.843 983.834 370.8 1007.26C365.424 1014.26 356.821 1000.45 353.475 996.417C341.672 984.789 348.364 1005.13 349.89 1010.51C351.629 1017.45 355.188 1023.94 354.763 1031.39C354.683 1032.73 357.458 1034.18 358.653 1033.49C363.91 1029.6 372.513 1027.83 373.801 1020.53C390.582 990.238 415.037 963.548 433.505 933.848C443.581 921.65 436.704 911.162 424.224 904.957C407.032 895.65 389.082 884.777 369.805 881.025V881.012ZM41.9065 1326.68C42.6898 1340.4 70.8223 1305.73 75.1238 1302.91C83.7136 1292.53 66.3614 1274.86 63.6531 1263.38C53.2445 1238.88 40.8178 1215.35 29.8914 1191.08C24.6075 1180.5 20.1732 1169.5 15.8716 1158.53C12.6455 1155.14 11.4108 1161.63 12.1145 1163.99C14.7963 1180.24 22.4169 1195.15 28.0593 1210.51C33.9009 1228.99 47.217 1246.15 47.1506 1265.93C45.5309 1286.15 44.0705 1306.55 41.8932 1326.69L41.9065 1326.68ZM1218.33 155.821C1193.15 157.982 1167.21 170.459 1141.49 174.954C1136.29 177.009 1116.38 178.958 1127.15 186.887C1135.21 192.601 1144.01 197.109 1152.03 202.863C1159.07 205.873 1170.25 219.715 1176.06 209.811C1189.42 191.607 1207.78 175.192 1218.35 155.808L1218.33 155.821ZM1477.46 974.566C1476.07 961.838 1475.62 949.069 1475.04 936.314C1471.79 930.282 1462.05 930.162 1456.28 926.808C1443.22 921.69 1434.5 963.866 1433.61 973.253C1433.3 980.824 1438.56 987.427 1440.9 994.428C1442.94 999.837 1449.02 997.49 1452.61 995.17C1460.45 988.687 1475.55 985.611 1477.46 974.579V974.566ZM2273.12 1246.53C2273.23 1246.53 2273.34 1246.52 2273.44 1246.5C2272.05 1228.8 2267.44 1211.55 2264.19 1194.12C2259.55 1169.79 2256.16 1192.66 2253.47 1202.47C2253 1209.74 2227.65 1301.46 2238.46 1292.8C2254.32 1281.51 2275.88 1269.02 2273.12 1246.53ZM2557.79 1287.49C2558.31 1292.38 2554.22 1315.61 2561.46 1314.35C2584.39 1300.45 2607.08 1285.51 2628.78 1269.8C2633.32 1263.99 2582.77 1263.93 2576.65 1261.41C2571.44 1260.8 2566.25 1259.75 2560.99 1259.76C2553.03 1263.06 2558.54 1280.23 2557.81 1287.49H2557.79ZM468.448 1237.41C469.39 1219.42 448.082 1213.37 437.222 1202.47C431.022 1197.55 427.676 1198.61 425.26 1206.17C421.702 1216.94 416.285 1228.18 421.264 1239.4C423.826 1245.4 425.486 1251.87 428.526 1257.63C432.376 1261.66 437.302 1254.55 441.099 1253.15C457.229 1244.33 464.544 1270.17 468.448 1237.41ZM1149.3 774.186C1146.56 755.65 1146.12 735.576 1134.63 719.533C1132.63 714.945 1113.62 693.532 1109.99 699.3C1111.21 718.088 1122.09 735.284 1123.66 754.324C1126.49 762.995 1123.77 781.067 1133.51 784.62C1140.53 785.946 1149.67 783.215 1149.3 774.172V774.186ZM2267.63 1304.46C2269.78 1282.16 2245.36 1309.62 2237.7 1312.97C2230.28 1318.29 2230.16 1318.42 2229.67 1327.45C2227.12 1336.7 2249.07 1341.21 2255.84 1344.09C2267.89 1343.45 2264.89 1313.47 2267.61 1304.46H2267.63ZM1322.92 990.689C1315.28 991.63 1331.61 1011.82 1332.75 1016.33C1340.54 1030.44 1348.32 1044.57 1356.11 1058.68C1366.09 1070.92 1349.66 1023.17 1348.43 1020.57C1343.44 1008.72 1336.19 994.361 1322.91 990.702L1322.92 990.689ZM1912.21 551.53C1911.9 554.62 1920.66 582.012 1924.5 570.623C1924.02 565.678 1924.7 560.918 1925.44 556.091C1923.29 550.032 1925.26 543.681 1923.86 537.609C1917.42 529.839 1911.42 544.861 1912.21 551.53ZM2299.58 1362.7C2299.24 1369.03 2304.84 1370.58 2308.72 1373.95C2316.86 1377.24 2306.73 1355.31 2306.18 1351.91C2301.32 1344.29 2300.05 1360.37 2299.58 1362.7ZM1478.83 901.47C1477.04 893.422 1470.72 902.942 1467.95 905.7C1466.2 909.452 1471.09 912.753 1473.96 914.424C1478.47 915.604 1477.39 904.255 1478.83 901.457V901.47ZM2372.06 1162.38C2369.38 1162.62 2368.1 1168.07 2371.39 1167.57C2374.53 1166.49 2374.83 1164.14 2372.06 1162.38ZM1172.13 1774.32C1172.17 1773.37 1171.39 1772.89 1170.78 1772.28C1170.43 1773.53 1170.7 1774.38 1171.8 1775.11C1171.91 1774.84 1172.01 1774.58 1172.12 1774.31L1172.13 1774.32ZM899.768 1215.43L899.184 1215.85L899.835 1216.15L899.782 1215.41L899.768 1215.43Z" fill="black"/>
<path d="M589.686 180.931L589.316 180.351L589.554 180.905L589.686 180.931Z" fill="black"/>
</g>
<defs>
<clipPath id="clip0_87_163">
<rect width="913" height="474" fill="white"/>
</clipPath>
</defs>
</svg>
