<svg width="1756" height="232" viewBox="0 0 1756 232" fill="none" xmlns="http://www.w3.org/2000/svg">
<g clip-path="url(#clip0_87_61)">
<path d="M1906.87 1666.65C1927.76 1642.37 1934.2 1626.89 1924.75 1594.24C1915.03 1555.89 1883.19 1519.01 1896.97 1477.44C1897.11 1474.34 1904.93 1462.43 1903.5 1471.87C1900.52 1480.75 1903.71 1504.38 1910.08 1502.3C1928.58 1493.66 1947.51 1484.33 1963.12 1470.3C1996.28 1436.68 1992.64 1399.46 1954.4 1373.56C1951.21 1371.48 1950.21 1367.54 1948.63 1364.14C1931.92 1330.58 1889.91 1333.99 1863.79 1351.71C1821.58 1378.95 1787.25 1418.32 1752.65 1455.71C1734.37 1474.9 1742.54 1459.65 1748.45 1445.49C1755.01 1430.58 1761.64 1415.7 1768.34 1400.88C1790.13 1353.43 1811.28 1305.37 1838.38 1261.44C1843.65 1251.82 1847.93 1241.61 1854 1232.5C1857.41 1225.91 1865.12 1218.22 1856.55 1212.32C1846.4 1201.31 1837.77 1188.69 1828 1177.26C1821.43 1166.74 1840.69 1184.49 1842.62 1186.27C1876.63 1220.8 1912.03 1253.99 1942.97 1291.89C1953.64 1308.13 1958.48 1328.29 1969.97 1344.2C1982.33 1364.77 1982.31 1362.25 2000.83 1350.57C2009.97 1346.11 2013.97 1336.31 2011.75 1325.73C2009.07 1305.25 2008.9 1284.48 2005.46 1264.13C2001.29 1245.49 1997.23 1226.82 1993.66 1208.05C1969.79 1069.67 1977.93 927.932 1990.75 788.374C1995.34 752.648 1994.21 716.423 1997.68 680.578C2003.2 632.531 2008.51 584.436 2013.44 536.305C2015.9 517.306 2019.15 498.425 2021.4 479.389C2023.46 466.223 2020.65 460.485 2015.34 448.949C2008.57 436.533 1995.51 429.89 1985.97 420.164C1981.08 415.926 1975.75 412.45 1969.97 409.854C1964.26 403.783 1968.59 445.628 1967.86 448.199C1968.44 495.377 1972.17 542.853 1967.75 589.876C1964.62 623.043 1960.38 656.126 1955.74 689.066C1949.49 700.482 1953.84 673.042 1953.76 670.137C1954.99 654.542 1955.31 638.876 1956.25 623.281C1956.4 620.59 1957.02 616.352 1953.76 616.102C1945.77 617.364 1937.57 617.876 1929.91 620.947C1919.88 625.019 1920.08 624.864 1918.46 635.638C1914.06 667.483 1913.32 699.768 1911.02 731.839C1908.74 776.66 1906.71 821.517 1903.74 866.302C1901.3 892.147 1900.11 919.444 1889.39 942.944C1887.82 946.158 1885.02 943.218 1883.46 941.682C1879.84 937.658 1878.39 939.777 1874.74 942.861C1867.1 946.301 1864.94 955.182 1863.22 963.027C1853.92 1003.66 1837.21 1042.07 1829.1 1083.07C1827.28 1093.36 1821.33 1100.1 1813.95 1089.66C1796.45 1067.98 1779.43 1044.09 1768.89 1017.62L1768.74 1017.76C1775.89 1020.09 1806.14 1076.36 1809.89 1060.51C1819.82 1020.36 1831.55 980.706 1842.19 940.837C1858.3 884.802 1874.87 829.195 1892.6 773.732C1898.63 756.339 1897.92 737.696 1898.52 719.458C1899.95 688.804 1899.15 657.923 1903.08 627.483C1907.16 601.4 1928.23 585.4 1943.22 566.686C1964.57 538.032 1953.82 495.984 1954.89 461.83C1952.84 415.807 1951.53 369.736 1949.84 323.689C1949.01 311.915 1927.2 303.022 1917.93 307.451C1910.8 310.451 1908.55 320.331 1904.3 326.653C1897.8 339.26 1891.42 351.95 1885 364.605C1861.14 411.961 1838.78 460.175 1816.33 508.341C1771.99 601.662 1795.1 588.376 1770.3 506.389C1765.05 489.889 1757.1 474.675 1751.19 458.485C1747.37 445.866 1778.83 396.354 1787.73 386.569C1789.27 387.795 1787.83 389.628 1787.43 391.116C1779.44 411.533 1768.34 430.176 1759.02 449.842C1757.53 459.116 1764.95 468.163 1767.1 477.116C1768.32 480.377 1770.63 489.949 1774.29 483.663C1778.81 474.925 1782.72 465.818 1787.06 456.961C1809.39 412.14 1829.24 365.545 1853.95 322.272C1854.77 321.117 1855.46 319.831 1856.14 318.581C1857.12 316.296 1854.76 314.189 1853.17 312.998C1843.55 305.367 1833.99 297.617 1824.46 289.856C1821.74 287.975 1820.71 292.165 1819.48 294.01C1805.1 321.105 1790.89 348.295 1776.34 375.271C1757.06 410.866 1737.7 446.413 1718.17 481.83C1716.16 484.925 1715.27 488.139 1716.97 491.746C1726.74 533.341 1727.73 576.591 1728.27 619.305C1730.73 629.757 1773.21 633.709 1779.71 649.292C1781.69 651.792 1783.4 660.971 1786.97 655.876C1814.23 588.96 1843.44 522.936 1875.6 458.651C1883.83 442.366 1891.92 425.973 1900.96 410.2C1901.95 408.473 1902.69 406.473 1904.52 405.509C1904.98 405.235 1905.75 405.664 1905.87 406.104C1895.49 448.39 1879.1 489.115 1867.55 531.127C1851.42 585.686 1839.3 641.471 1825.25 696.625C1821.13 708.78 1821.56 707.744 1813.06 713.173C1809.12 715.065 1803.16 722.387 1799.83 716.458C1786.95 696.042 1775.79 674.352 1764.02 653.161C1754.94 638.078 1731.74 636.435 1717.06 629.828C1621.74 599.876 1517 587.745 1420.11 615.328C1401.54 618.614 1381.94 646.769 1363.59 639.364C1341.5 629.781 1324.18 611.555 1305.99 595.424C1273.42 564.912 1245.51 525.758 1240.06 478.056C1238.76 467.044 1236.75 454.544 1240.53 444.044C1244.17 460.782 1245.23 479.544 1251.5 496.163C1268.07 544.436 1302.58 585.21 1343.66 609.828C1349.97 614.531 1351.89 619.662 1358.54 612.293C1385.98 587.9 1412.25 562.067 1440.31 538.508C1471.92 513.449 1464 521.627 1461.69 482.032C1459.99 440.854 1459.62 399.354 1462.54 358.271C1464.9 357.51 1464.66 372.879 1465.13 375.628C1465.79 395.438 1467.66 415.104 1470.41 434.687C1474.93 469.83 1483 504.306 1495.09 537.27C1502.89 560.388 1513.99 546.579 1523.81 534.055C1537.3 517.889 1550.02 501.008 1562.38 483.818C1618.61 406.795 1637.58 370.081 1581.39 486.937C1512.71 618.376 1485.73 564.603 1626.36 593.198C1630 593.364 1635.06 596.364 1638.03 593.424C1644.17 584.114 1651.55 575.591 1656.26 565.257C1680.69 519.317 1708.68 475.639 1734.26 430.437C1766.76 374.569 1795.67 316.355 1824.77 258.332C1843.88 218.69 1862.05 176.607 1867.29 131.81C1864.62 104.846 1857.89 50.5247 1828.69 44.9295C1820.07 44.8342 1812.01 61.3341 1806.14 67.6911C1796.08 81.5601 1787.59 96.8694 1777.12 110.298C1777.12 110.274 1777.26 110.465 1777.26 110.465C1776.57 108.06 1777.21 105.822 1777.95 103.584C1783.87 85.5719 1789.48 67.4173 1796.16 49.7151C1799.55 37.62 1809.59 25.4416 1806.16 12.4536H1763.97C1749.17 41.1081 1728.89 66.3697 1713.44 94.679C1704.54 109.476 1695.64 124.262 1686.75 139.071C1681.89 145.678 1689.67 150.012 1695.03 150.226C1707.18 151.012 1719.35 151.619 1731.14 147.155C1731.85 146.964 1732.87 146.69 1733.44 147.178C1733.53 147.655 1733.7 148.417 1733.48 148.631C1709.98 173.214 1678.22 179.392 1648.15 188.69C1623.44 196.345 1598.05 200.773 1574.36 212.13C1563.54 215.785 1559.21 226.737 1557.92 238.094C1554.18 252.63 1552.2 267.522 1550.02 282.391C1544.46 317.677 1540.66 353.938 1534.17 388.724C1532.03 353.033 1535.23 316.105 1532.94 280.01C1533.14 256.523 1530.07 205.833 1551.6 193.214C1614.64 169.726 1589.45 194.821 1614.93 127.952C1618.89 119.893 1612 114.857 1607.14 109.917C1588.97 91.8099 1570.51 74.0601 1551.51 57.0008L1551.24 56.727L1551.47 57.1555C1564.32 62.096 1575.99 70.9173 1587.6 78.7506C1589.82 80.0482 1594.43 84.3934 1595.54 79.8339C1596.06 69.4054 1601.11 57.2984 1594.57 48.0961C1588.6 38.7391 1578.25 35.9772 1568.97 32.2272C1554.65 26.8225 1539.97 22.8464 1525.1 19.7512C1516.63 17.2869 1506.98 17.7631 1499.46 12.4536H1494.59C1473.8 54.7151 1457.68 101.357 1428.78 137.94C1386.42 192.952 1343.99 248.082 1301.71 302.986L1301.86 303.093C1319.66 260.249 1349.78 224.38 1375.9 187.238C1412.08 136.643 1447.79 83.3338 1474.62 26.6201L1474.73 26.5963C1456.03 38.8938 1436.19 49.8104 1420.21 66.3102C1392.63 113.441 1366.33 161.928 1333.65 205.38C1284.26 272.38 1233.71 339.903 1170.85 392.462C1152.16 406.283 1138.02 425.771 1119.74 440.128C1115.54 444.342 1106.88 448.14 1114.34 454.056C1151.9 497.377 1194.43 538.377 1229.41 583.007C1227.42 584.472 1225.17 580.65 1223.47 579.734C1215.14 572.198 1206.84 564.615 1198.52 557.067C1195.37 554.174 1191.36 549.781 1189.21 556.115C1185.14 567.138 1178.75 576.769 1173.21 586.876C1167.57 598.745 1096.95 710.97 1125.44 644.554C1136.06 616.852 1147.28 589.222 1161.95 563.746C1163.46 555.341 1178.15 540.079 1172.3 532.996C1149.47 510.818 1125.87 489.568 1104.1 466.104C1101.63 463.878 1099 458.89 1095.54 462.497C1090.15 467.437 1084.77 472.366 1079.51 477.461C1056.55 501.246 1031.79 522.675 1008.29 545.793C994.22 557.805 982.67 572.948 968.471 584.817C953.979 597.602 942.08 613.686 927.141 625.876C924.951 627.566 922.14 625.685 921.322 623.162C916.038 608.626 916.986 597.745 928.318 587.579C937.896 576.805 947.975 566.615 957.891 556.222C1028.06 490.663 1093.44 413.461 1179.86 373.164C1191.95 366.295 1197.23 350.855 1205.79 339.843C1258.6 256.475 1319.52 179.785 1374.8 98.4408C1396.05 67.1792 1349.24 102.417 1342.35 107.941C1329.01 115.619 1296.87 152.131 1284.37 147.464C1272.79 143.417 1260.92 140.476 1249.15 137.381C1234.79 132.583 1249.48 123.345 1255.01 117.774C1259.08 114.857 1262.14 110.417 1265.99 107.345C1271.36 104.857 1274.89 99.7027 1279.69 96.3932C1283.68 93.6671 1283.3 87.3457 1279.65 84.3576C1270.18 74.203 1262.59 62.215 1253.17 52.0127C1251.42 49.6199 1248.6 50.9056 1246.4 51.6318C1241.99 51.5246 1238.8 54.0722 1235.66 57.0246C1225.64 66.4888 1215.54 75.8577 1205.44 85.2148C1202.12 88.9647 1192.11 95.9528 1199.43 85.8576C1216.8 65.1674 1236.3 46.7628 1254.36 26.8701C1256.18 20.1916 1234.33 15.5488 1230.75 19.7512C1199.79 41.3105 1169.4 63.965 1138.67 86.0124C1132.99 89.8814 1127.61 97.2742 1120.17 95.2623C1111.5 93.0956 1102.59 92.0599 1094.24 88.2743C1057.48 76.4887 1020 67.7983 982.691 58.2508C961.868 53.6318 941.132 46.9295 920.004 44.5366C914.37 44.989 907.419 54.0841 908.399 60.3103C909.87 67.0483 903.899 72.6435 906.242 79.1672C907.43 84.0124 904.52 88.9409 905.272 93.9409C905.327 94.6194 904.008 95.1194 903.3 94.8337C895.018 90.5957 897.71 57.3698 888.023 48.5604C872.757 34.3224 852.686 22.263 832.037 25.9535C828.724 26.632 825.651 26.4297 822.557 24.894C811.965 19.644 800.72 18.4297 789.268 18.9535C783.765 19.8702 767.094 18.6559 776.301 28.1677C780.279 34.7391 791.099 41.9295 788.102 50.7627C784.049 59.8817 776.911 66.5959 771.3 74.5125C767.671 77.9053 754.356 99.2861 750.248 92.7623C748.853 71.6197 753.375 49.7747 756.808 28.8463C752.471 19.6083 727.79 52.358 724.434 57.1079C716.687 65.6912 710.748 83.9053 699.329 85.7148C682.919 87.3933 666.563 89.6552 650.436 93.0837C639.365 93.9409 628.36 95.298 617.452 97.5242C614.314 98.6194 607.755 98.048 609.618 92.9766C616.09 83.5005 623.903 75.2744 629.45 65.0483C634.669 59.4174 638.592 52.6199 643.353 46.5961C644.988 42.7152 653.236 38.5843 649.575 33.9296C626.29 27.4654 600.541 32.382 577.691 39.4891C570.707 42.7509 561.88 43.9057 556.792 50.4294C548.456 62.4174 539.815 74.2149 531.85 86.4648C515.047 112.893 498.071 139.143 482.096 166.214C469.653 187.333 458.723 209.44 444.046 228.928C422.166 256.784 402.607 290.784 380.04 315.939C399.567 272.844 425.478 232.082 448.187 190.476C463.006 164.345 479.405 139.369 495.826 114.441C505.36 97.3694 524.996 80.6791 519.155 58.7031C513.936 49.0485 505.84 33.7391 493.952 36.3581C479.34 41.2747 467.866 54.8579 454.038 60.7745C458.92 47.3699 473.51 48.3104 469.162 39.8105C466.471 36.9534 465.959 44.12 462.537 40.6676L462.668 40.8105C454.986 41.5009 448.764 47.0366 442.281 51.0961C430.763 59.9055 417.916 66.4412 406.333 75.0958C378.427 95.9528 350.805 117.119 327.149 143.786C320.665 151.19 323.411 163.19 321.755 172.595C318.017 202.94 317.56 244.082 288.063 258.665C252.442 272.189 241.252 271.677 212.572 302.415C196.718 321.974 186.791 346.784 174.848 369.331C161.086 399.414 146.91 429.39 134.902 460.366C62.5494 652.947 37.0517 864.743 51.9363 1071.76C52.2087 1077.63 53.6143 1083.47 52.699 1089.34C52.6336 1090.04 51.2607 1090.69 50.694 1090.32C42.8813 1084.63 36.6812 1076.48 29.4677 1069.86C21.3608 1064.91 36.4523 998.92 -2.65519 1031C-21.7349 1049.2 -40.7165 1068.29 -63.817 1080.25C-71.7387 1085.59 -68.1211 1061.68 -67.5218 1058.28C-64.3945 959.42 -55.3613 860.612 -48.5728 761.863C-44.4431 722.661 -41.621 683.149 -39.8122 643.685C-37.4149 604.34 -37.611 564.365 -46.0231 525.948C-49.9349 503.925 -57.6169 482.842 -66.6828 462.806C-71.1939 456.163 -74.5501 448.663 -79.4535 442.33C-82.7988 437.973 -81.709 433.759 -76.0864 433.545C-33.394 430.485 8.52466 417.902 46.7168 396.854C53.4835 394.926 51.2606 406.378 51.5548 410.711C49.5607 462.985 52.2631 515.27 50.3344 567.543C49.9203 584.983 49.9749 602.4 50.694 619.828C49.8768 628.745 54.6931 649.923 46.4989 654.173C42.2057 659.899 55.5211 666.09 59.4984 661.233C83.5905 632.221 83.2636 589.352 89.4093 552.781C92.7872 522.306 98.6168 492.223 103.825 462.044C112.085 425.414 114.406 387.105 125.139 351.248C127.242 338.807 133.475 328.272 140.045 318.296C145.308 303.832 154.058 289.177 151.367 273.13C132.581 217.178 55.9026 236.439 60.3701 211.761C63.4974 207.356 69.2289 205.368 70.5038 199.583C71.2556 197.285 73.6529 195.392 75.222 193.63C95.0209 171.571 111.442 145.821 126.544 119.738C132.069 105.738 158.003 76.4649 138.934 66.5007C134.815 62.6793 125.891 61.9412 126.076 54.7865C126.163 49.2866 120.224 51.0485 117.326 52.9294C86.6633 71.3935 57.2319 93.3099 31.0695 118.703C11.118 137.286 -6.30547 158.714 -26.5838 177.011C-39.7685 189.702 -52.6154 202.821 -66.1379 215.083C-76.5332 226.904 -97.4109 238.558 -100.429 255.023C-99.7973 262.558 -104.962 269.296 -102.979 276.725C-101.759 285.07 -107.752 302.236 -96.659 304.736C-93.499 304.832 -90.7967 306.236 -89.3584 309.379C-87.1137 314.962 -80.7392 313.32 -77.187 317.236C-64.9938 327.45 -49.7824 320.022 -36.8374 315.76C-31.1931 312.843 30.0997 293.617 26.7109 304.439C3.91546 323.319 -23.4347 334.95 -50.4906 344.522C-87.2771 355.081 -125.774 357.76 -163.64 355.426C-178.927 350.95 -203.052 350.569 -204.621 373.164C-204.218 380.367 -208.762 386.783 -207.444 393.938C-207.073 395.604 -207.095 397.497 -207.378 399.2C-208.533 407.331 -208.795 416.104 -204.098 422.985C-200.067 424.866 -195.566 425.152 -192.744 429.306C-191.774 430.616 -190.282 431.771 -188.821 432.271C-181.543 434.699 -176.116 442.021 -167.998 441.092C-160.382 441.271 -151.261 436.64 -146.107 445.08C-97.498 515.032 -109.735 610.424 -115.357 692.697C-121.928 758.172 -125.753 823.874 -130.994 889.492C-133.642 946.694 -136.867 1003.93 -138.883 1061.11C-142.925 1113.84 -127.147 1106.88 -174.395 1113.67C-188.604 1117.14 -204.926 1115.32 -217.675 1123.48C-230.566 1138.01 -206.648 1151.25 -197.332 1158.91C-186.751 1169.3 -141.182 1196.14 -140.463 1207.14C-139.766 1232.51 -139.046 1257.94 -138.981 1283.3C-139.319 1287.15 -143.209 1287.32 -145.987 1287.64C-152.678 1288.74 -159.292 1290.15 -165.688 1292.67C-188.026 1300.27 -202.856 1320.01 -212.445 1342.44C-213.764 1345.05 -214.461 1347.93 -214.112 1350.98L-214.156 1350.93C-199.522 1328.2 -185.552 1309.8 -158.246 1305.93C-152.591 1305.71 -141.792 1301.57 -138.621 1308.14C-134.666 1366.3 -133.62 1424.89 -128.444 1483.05C-117.646 1621.6 -101.53 1762.95 -50.0875 1891.28C-59.6328 1826.28 -70.4421 1761.41 -74.9097 1695.66C-79.8785 1620.58 -81.4694 1545.21 -81.4803 1469.99C-80.8047 1422.8 -81.9706 1375.39 -78.5927 1328.34C-79.1593 1317.12 -38.4719 1345.09 -33.1326 1347.31C3.3488 1370.14 39.0021 1392.59 73.1844 1419.61C91.2616 1434.84 109.982 1448.53 130.598 1459.19C135.479 1462.84 144.066 1461.34 144.426 1453.74C129.595 1392.64 73.6638 1354.38 31.3419 1315.81C25.5559 1310.8 25.7629 1311.55 25.8718 1303.21C25.959 1297.01 26.2532 1290.81 26.4385 1284.62C28.2364 1222.64 29.5221 1160.53 26.2423 1098.59C26.4057 1096.29 25.2834 1089.95 28.4543 1090.57C35.9293 1097.72 55.7499 1112.22 56.3383 1122.54C57.8094 1138.06 62.2116 1153.68 57.0466 1168.92C50.4979 1200.24 39.5578 1231.79 36.9862 1263.54C48.4493 1291.85 72.171 1228.72 78.382 1250.56C89.6163 1290.85 109.056 1344.73 144.752 1365.25C153.818 1370.78 165.946 1366.52 170.065 1356.04C180.885 1315.37 180.689 1271.8 186.802 1230.01C191.106 1196.07 194.32 1161.99 198.418 1128.03C200.401 1108.66 202.427 1089.3 205.707 1070.13C206.252 1067.76 206.121 1059.65 209.096 1060.79C215.416 1152.43 220.091 1244.66 225.942 1336.49C225.931 1346.18 230.115 1363.29 241.862 1356.19C247.157 1352.24 248.193 1344.59 249.849 1338.31C254.676 1316.8 259.122 1295.19 262.75 1273.39C263.949 1271.27 269.136 1221.89 271.936 1232.79C272.47 1293.94 267.828 1357.39 280.054 1417.13C281.579 1422.84 286.766 1429.64 289.948 1419.88C295.32 1405.37 299.82 1390.51 304.549 1375.73C312.569 1350.95 321.319 1326.46 330.385 1302.13C349.334 1250.51 374.276 1202.11 401.484 1155.35C408.992 1142.1 417.066 1129.06 425.805 1116.73C429.259 1112.44 430.382 1107.51 429.554 1101.91C426.448 1077.3 427.734 1052.17 432.223 1027.88C434.283 1015.1 436.974 1002.43 439.012 989.634C438.26 984.158 425.86 992.086 423.408 993.634C356.351 1043.62 324.392 1130.62 303.787 1213.29C286.548 1284.77 286.439 1303.69 288.008 1213.86C288.902 1180.81 289.229 1147.7 290.667 1114.66C291.637 1088.48 319.717 1055.28 334.427 1034.46C363.009 999.277 386.731 960.039 408.948 919.885C423.713 891.076 441.79 864.123 453.373 833.54C460.184 816.553 466.307 799.35 472.78 782.124C474.153 771.839 480.342 763.303 481.039 752.756C483.11 745.208 485.507 737.768 487.207 729.97C490.781 718.673 491.99 706.911 492.655 695.125C494.475 664.614 503.552 635.447 514.11 607.376C529.943 563.281 555.375 524.353 576.656 483.496C615.077 424.687 658.107 364.629 717.308 329.784L717.188 329.605C699.993 358.95 673.7 381.414 652.899 407.878C621.648 445.771 589.361 483.187 563.232 525.615C536.513 572.686 511.898 623.674 505.502 679.34C498.082 763.767 533.364 714.149 565.618 685.899C576.721 676.542 608.583 642.602 594.744 667.209C568.996 714.423 541.232 760.255 515.2 807.219C491.282 854.409 469.718 903.504 454.18 954.789C443.381 1000.66 434.098 1049.11 440.003 1096.54C441.627 1109.99 447.62 1120.78 459.977 1110.62C463.442 1107.72 465.338 1101.59 469.511 1100.38C471.603 1101.54 470.404 1105.6 470.535 1107.68C468.214 1125.54 463.071 1142.76 458.124 1159.87C446.302 1197.68 431.373 1233.89 415.748 1269.99C397.431 1307.89 379.343 1346.98 352.679 1378.89C288.651 1459.63 202.471 1512.38 125.084 1575.77C68.6624 1619.85 26.7981 1694.58 75.2002 1764.2C88.6574 1784.91 104.163 1803.94 118.525 1823.9C128.135 1834.05 124.964 1848.97 122.349 1861.61C115.43 1893.97 95.9253 1921.05 88.9407 1953.55C77.6301 1990.59 72.1274 2029.39 68.9675 2068.19C61.4598 2222.41 83.8738 2377.93 126.087 2524.96C141.407 2575.59 159.55 2628.32 186.42 2671.9C174.086 2632.88 158.34 2593.9 150.037 2553.02C131.121 2473.17 120.835 2391.27 113.665 2309.28C109.143 2244.36 104.991 2178.98 112.782 2114.16C117.958 2072.3 128.168 2031.22 142.214 1991.93C150.506 1972.09 158.504 1952.08 167.57 1932.64C173.225 1920.07 180.035 1907.36 180.874 1893.03C185.287 1874.33 176.668 1857.65 165.14 1844.45C137.408 1805.84 100.219 1772.66 84.3206 1725.69C55.434 1629.9 326.952 1537.01 383.244 1473.43C411.411 1442.24 439.589 1408.59 455.269 1367.73C473.978 1311.04 494.083 1254.92 514.786 1199.07C522.533 1180.3 526.957 1159.64 537.167 1142.24C544.533 1131.7 550.297 1119.74 558.121 1109.68C558.121 1109.69 558.023 1109.47 558.023 1109.47C515.581 1245.43 457.623 1376.73 418.625 1514.45C410.245 1548.19 361.516 1686.91 396.308 1705.15C403.064 1705.35 406.54 1712.23 412.381 1714.76C420.782 1719.82 430.425 1724.23 440.156 1721.56C480.179 1710.73 513.979 1682.56 551.202 1664.08C590.614 1642.62 629.144 1619.1 669.69 1600.25C685.425 1593.95 700.68 1583.19 717.711 1582.5C744.516 1592.2 686.144 1783.03 679.486 1814.14C677.405 1822.08 675.171 1830.01 672.676 1837.79C671.227 1842.42 666.16 1842.66 662.466 1843.74C626.344 1851.74 592.532 1868.34 558.731 1883.93C558.59 1884.78 558.47 1885.6 558.339 1886.41C558.339 1886.4 558.492 1886.53 558.492 1886.53C558.568 1885.61 558.644 1884.7 558.72 1883.78C549.971 1888.8 539.771 1891.54 532.318 1898.84C532.318 1898.83 532.46 1898.97 532.46 1898.97C528.515 1897.89 525.192 1900.87 521.956 1902.8C521.967 1902.79 522.62 1902.59 522.62 1902.59C516.769 1905.4 511.408 1908.99 505.491 1911.73C501.841 1913.66 498.757 1919.05 494.344 1917.84L494.518 1917.82C457.372 1945.91 418.919 1974.72 386.306 2008.36C387.875 2007.86 389.444 2007.36 391.013 2006.86L390.991 2006.97C391.59 2006.31 392.19 2005.66 392.789 2005L392.604 2005.15C393.247 2005.15 393.878 2005.15 394.521 2005.15L394.434 2004.93C396.515 2003.25 398.597 2001.58 400.667 1999.9L400.863 1999.99C400.863 1999.3 400.863 1998.6 400.863 1997.91L400.732 1998.05C401.364 1998.05 402.007 1998.05 402.639 1998.05L402.552 1997.85C458.408 1953.06 520.877 1916.99 586.626 1892.99C608.779 1885.16 631.52 1879.6 654.74 1877.4C656.68 1877.2 659.567 1877.18 660.036 1879.74C647.407 1930.84 631.008 1981.2 618.095 2032.39C616.853 2038.79 613.835 2043.25 607.885 2044.72C587.128 2051.43 567.612 2061.86 547.148 2069.52C487.948 2098.6 428.704 2129.53 377.632 2174.07C332.281 2212.75 284.696 2264.07 279.019 2329.82C281.013 2469.3 429.968 2518.77 535.969 2527.27C540.109 2527.64 546.102 2527.08 545.972 2533.14C546.658 2544.64 546.647 2556.18 547.41 2567.67C548.859 2594.5 552.074 2621.19 556.399 2647.65C581.134 2772.9 650.785 2929.92 741.694 3011.61V3011.59C652.517 2914.16 583.074 2763.7 566.043 2627.07C562.959 2598.03 560.889 2568.84 561.325 2539.57C560.845 2531.44 563.526 2527.86 571.142 2529.15C681.295 2531.62 809.993 2506.44 878.576 2403.41C820.563 2461.24 755.707 2488.05 677.22 2495.08C653.825 2497.87 630.332 2499.11 606.807 2499.21C594.897 2499.45 583.02 2498.82 571.132 2498.5C567.579 2498.5 563.33 2497.44 563.504 2492.76C565.945 2428.83 575.959 2365.3 585.384 2302.2C596.172 2243.55 605.15 2182.86 625.548 2127.3C630.703 2119.8 640.488 2119.52 647.843 2115.78C664.983 2107.94 682.864 2102.19 700.614 2096.06C762.299 2076.3 824.769 2059.74 887.75 2045.64C936.338 2035.84 985.11 2027.11 1033.39 2015.46C1126.54 1995.23 1217.8 1962.18 1302.38 1914.84C1320.85 1904.49 1339.03 1893.1 1354.94 1878.51C1359.31 1874.95 1363.01 1870.89 1365.07 1865.11C1369.95 1860.18 1369.75 1853.46 1370.3 1847.05C1368.54 1838.01 1361.93 1830.51 1359.88 1821.29C1357.31 1814.49 1361.76 1808.3 1363.44 1801.9C1367.49 1787.21 1359.38 1785.72 1347.82 1788.22C1303.15 1791.98 1258.31 1795.35 1213.52 1797.7C1196.27 1798.41 1187.19 1785.1 1186.17 1767.55C1184.2 1761.86 1161.97 1768.53 1156.41 1767.86C1132.7 1769.89 1109.35 1775.29 1085.83 1778.94C1012.98 1794.82 938.593 1815.46 873.879 1856.42C871.536 1857.42 869.553 1860.9 866.851 1859.9C865.892 1856.52 873.008 1852.61 875.274 1850.32C908.508 1824.63 947.06 1808.99 985.732 1796.08C995.702 1791.85 1007.16 1790.83 1016.11 1784.26C1052.33 1751.92 1088.75 1719.09 1126.62 1689.45C1125.83 1689.45 1125.02 1690.97 1124.25 1691.5C1114.73 1711.82 1096.74 1728.03 1091.47 1750.98C1088.46 1762.21 1099.41 1771.82 1108.74 1765.85C1142.83 1738.1 1172.25 1703.51 1207.57 1677.1C1215.89 1670.48 1212.09 1680.7 1210.01 1685.25C1205 1698.33 1200.68 1711.67 1197.17 1725.34C1193.37 1739.95 1195.23 1755.34 1196.34 1770.22C1197.08 1778.41 1201.09 1786.29 1209.32 1786.72C1260.53 1785.36 1311.91 1781.09 1362.78 1775.13C1374.68 1774.52 1385.78 1768.34 1396.06 1762.21C1401.84 1759.94 1404.93 1747.6 1411.29 1749.4C1428.12 1756.89 1422.97 1847.14 1423.66 1867.93C1424.59 1877.98 1420.7 1895.8 1427.76 1902.89C1434.27 1907.18 1439.81 1908.42 1446.46 1903.3C1455.9 1886.74 1458.88 1865.49 1464.84 1846.95C1474 1808.04 1472.01 1765.2 1465.55 1726.94C1465.37 1722.4 1467.13 1715.48 1464.02 1712.69C1462.29 1674.92 1452.92 1637.09 1447.72 1599.47C1451.34 1591.33 1461.94 1613.33 1464.3 1616.29C1474.18 1633.96 1483.14 1652.15 1491.2 1670.9C1495.27 1679.66 1493.94 1690.47 1500.25 1698.08C1505.17 1704.83 1508.98 1712.28 1512.22 1720.13C1514.31 1726.21 1516.73 1726.33 1518.77 1720.41C1533.31 1680.69 1552.54 1642.89 1575.59 1608.39C1580.35 1606.54 1576.4 1614.71 1575.59 1616.81C1560.8 1656.91 1543.55 1695.56 1523.49 1732.82C1510.54 1764.91 1498.3 1797.48 1486.51 1830.14C1481.83 1836.73 1474.07 1889.29 1486.6 1887.2C1539.49 1868.34 1591.82 1847.15 1645.83 1832.32C1649.47 1831.73 1661.48 1827.08 1661.13 1831.22C1562.83 1871.48 1460.23 1900.47 1366.49 1952.78C1253.33 2018.45 1110.45 2120.27 1064.48 2256.54C1061.69 2264.94 1053.61 2283.89 1069.01 2265.28C1092.22 2238.47 1115.88 2211.94 1142.53 2189.13C1175.71 2161.75 1211.09 2137.38 1247.75 2115.94C1294.7 2086.03 1340.35 2053.84 1390.09 2029.41C1471.91 1987.77 1558.94 1959.49 1640.3 1916.46C1674.33 1897.1 1733.09 1870.88 1730.78 1821.33C1729.24 1815.41 1728.54 1807.3 1736.07 1807.02C1796.72 1794.82 1856.03 1776.5 1916.08 1761.47C1916.91 1761.35 1918.06 1762.03 1917.99 1762.66C1917.94 1763.2 1917.9 1763.94 1917.58 1764.22C1897.43 1782.2 1873.25 1793.65 1850.14 1806.26C1826.13 1817.13 1805.07 1834.83 1780.63 1844.21C1769.44 1847.6 1758.26 1851.21 1747.23 1855.18C1734.85 1858.34 1732.16 1876.4 1719.72 1883.82C1700.93 1898.85 1679.77 1909.85 1658.59 1920.21C1591.4 1950.67 1525.05 1985.92 1457.15 2013.04C1447.85 2017.06 1438.58 2021.17 1429.31 2025.27C1424.02 2026.87 1423.65 2033.39 1422.35 2038.27C1421.34 2043.49 1418.67 2047.3 1414.67 2050.27C1374.74 2079.58 1336.35 2111.31 1298.67 2143.97C1274.82 2156.96 1343.21 2075.1 1339.79 2070.06L1339.94 2070.11C1328.59 2076.34 1317.2 2082.5 1305.9 2088.81C1296 2094.35 1297.65 2093.36 1292.54 2102.25C1278.45 2126.8 1265.36 2151.96 1253.53 2177.9C1249.5 2187.71 1242.31 2194.24 1234.69 2200.6C1223.57 2211.37 1212.48 2222.18 1201.34 2232.94C1178.77 2254.1 1157.26 2276.57 1135.65 2298.87C999.832 2443.86 872.299 2611.17 820.519 2814.56L820.476 2814.41C823.941 2812.17 824.605 2807.69 826.24 2804.01C831.416 2790.69 836.439 2777.28 841.811 2764.06C850.474 2742.7 860.455 2722.07 870.796 2701.63C909.238 2625.62 957.935 2556.03 1011.71 2492.24C1057.09 2436.62 1107.82 2386.72 1158.96 2337.56C1171.54 2325.45 1184.47 2313.8 1197.71 2302.55C1206.78 2294.99 1200.24 2311.85 1199.28 2315.87C1185.51 2365.86 1166.58 2426.98 1186.22 2477.46C1213.39 2539.32 1331.14 2461.48 1372.26 2443.99C1458.58 2397.07 1548.88 2351.76 1620.24 2279.49C1624.32 2277.01 1636.72 2253.81 1639.1 2266.03C1640.06 2281.55 1641.61 2300.05 1631.79 2312.78C1621.06 2325.33 1613.52 2340.57 1602.38 2352.75C1597.66 2360.08 1592.09 2367.37 1588.09 2375.14C1586.54 2384.26 1578.05 2392.58 1584.04 2401.69C1596.24 2427.21 1612.9 2425.94 1636.19 2421.36C1666.07 2413.38 1696.73 2407.36 1718.53 2381.63C1762.44 2342.7 1800.68 2296.88 1839.22 2251.86C1870.72 2215.68 1899.99 2177.25 1926.69 2136.71C1944.93 2108.92 1962.99 2080.59 1976.01 2049.36C1978.95 2042.79 1986.44 2019.12 1982.57 2020.59C1959.42 2072.3 1919.22 2111.79 1883.42 2153.05C1821.09 2220.12 1761.23 2298.29 1677.31 2332.89C1671.22 2334.76 1668.73 2331.88 1669.43 2325.29C1670.13 2306.16 1667.4 2287.63 1661.44 2269.62C1658.98 2257.95 1650.67 2245.19 1653.08 2233.28C1659.83 2219.09 1665.52 2204.36 1668.11 2188.54C1680.03 2120.65 1638.06 2055.67 1584.99 2024.52C1577.73 2012.67 1607.7 2005.96 1614.29 2000.74C1624.38 1995.73 1634.4 1990.53 1644.57 1985.71C1718.62 1952.83 1794.09 1922.59 1873.01 1907.1C1896.84 1902.43 1968.88 1889.78 1907.64 1925.4C1901.36 1929.14 1894.5 1930.64 1887.46 1931.49C1886.36 1931.73 1885.2 1932.37 1885.05 1933.59C1886.38 1940.98 1861.27 1932.9 1856.23 1934.17C1824.47 1904.72 1675.72 2103.86 1681.14 2143.99C1680.7 2152.38 1686.8 2157.43 1689.91 2164.37C1701.12 2189.92 1731.43 2184.92 1751.47 2176.56C1800.23 2155.61 1839.79 2117.47 1880.96 2083.37C1880.95 2083.37 1880.88 2083.22 1880.88 2083.22C1833.12 2163.24 1758.07 2221.61 1681.04 2264.44C1676.06 2266.68 1679.53 2270.82 1684.2 2268.25C1711.21 2256.91 1735.66 2239.34 1759.94 2222.37C1780 2207.85 1799.91 2193.09 1819.88 2178.41C1851.45 2155.22 1876.31 2123.24 1899.63 2090.8C1910.62 2073.71 1949.38 2018.8 1936.92 1999.75C1925.73 1981.45 1935.44 1985.75 1933.88 1975.54C1929.36 1967.29 1882.26 2011.1 1874.42 2016.42C1848.3 2037.92 1821.55 2058.42 1793.67 2077.18C1785.96 2082.04 1710.84 2138.37 1713.13 2119.15C1738.6 2059.92 1777.82 2005.23 1826.68 1966.96C1845.04 1952.77 1865.82 1952.58 1886.01 1962.09C1915.26 1972.56 1940.64 1946.68 1962.74 1929.34C1977.11 1916.1 1994.12 1905.46 2005.09 1888.43C2010.95 1878.98 1995.44 1865.99 1994.17 1854.09C1992.57 1845.29 1993.63 1836.19 1983.75 1833.46C1972.52 1829.63 1977.71 1825.51 1986.44 1825.34L1986.56 1825.53C1974.8 1810.66 1956.72 1819.14 1941.2 1817.8C1905.18 1815.44 1869.47 1822.17 1834.27 1828.24C1837.24 1823.32 1848.41 1820.8 1854.03 1817.38C1865.72 1811.97 1877.47 1806.67 1889.11 1801.15C1919.98 1786.2 1949.38 1766.55 1971.74 1738.52C1986.38 1720.45 1998.53 1699.1 2002.24 1675.04C2003.7 1666.53 1996.04 1667.58 1997.51 1663.19C2019.13 1633.18 2029.05 1595.14 2027.82 1557.18C2026.67 1530.62 2022.72 1504.31 2018.46 1478.16C2015.96 1467.01 2016.02 1453.13 2005.39 1447.3C1993.55 1437.36 1981.54 1451.63 1977.26 1463.55C1974.91 1469.93 1969.62 1476.06 1973.12 1483.28C1991.51 1522.78 2011.36 1544.28 2003.26 1592.91C1998.62 1618.71 1976.96 1635.98 1956.67 1647.13C1940.89 1655.2 1924.25 1665.47 1906.67 1666.52L1906.81 1666.67L1906.87 1666.65ZM1634.08 2210.84C1630.7 2206.84 1628.81 2200.44 1622.74 2202.09C1607.05 2178.68 1473.86 2097.61 1498.88 2069.11C1515.88 2056.43 1534.34 2046.54 1551.89 2034.9C1557.84 2031.41 1564.02 2027.27 1570.89 2029.94C1639.75 2052.18 1683.2 2144.41 1648.83 2216.16C1644.99 2227.32 1639.87 2214.86 1635.87 2210.74C1635.27 2210.78 1634.68 2210.8 1634.08 2210.84ZM576.231 143.667L576.111 143.512C576.111 143.512 576.242 143.655 576.231 143.667ZM1231.6 746.327L1231.49 746.113C1231.45 747.137 1231.04 747.875 1230.11 748.196C1219.82 762.315 1205.88 773.386 1194.6 786.731C1164.36 822.422 1133.5 864.302 1124.86 912.909C1124.86 914.992 1127.49 916.48 1129.09 915.397C1131.99 913.909 1133.56 909.302 1137.23 911.837C1137.51 912.016 1138.38 911.659 1138.61 911.29C1163 849.147 1220.06 777.101 1280.29 757.184L1280.12 757.053C1238.75 800.934 1199.66 848.147 1169.32 902.064C1142.66 952.206 1124.09 1006.62 1102.99 1059.66C1100.69 1063.87 1096.91 1077.5 1093.54 1077.24C1094.47 1064.91 1099.16 1052.65 1101.43 1040.35C1111.73 995.36 1122.16 949.051 1118.79 902.373C1118.73 882.754 1112.85 863.945 1112.61 844.398C1113.23 838.6 1118.58 834.576 1121.67 830.124C1129.23 823.6 1138.06 808.207 1147.52 807.088C1154.69 808.267 1160.05 802.41 1165.58 798.446C1187.32 782.362 1207.51 762.196 1230.07 748.196C1230.17 747.172 1230.77 746.648 1231.6 746.363V746.327ZM720.74 1523.95C720.74 1523.95 720.795 1524.16 720.773 1524.19L720.74 1524.44V1523.95ZM74.6663 1382.44C74.0888 1381.86 73.5221 1381.26 72.9446 1380.68C57.2972 1373 42.7287 1359.93 27.2775 1350.62C24.1176 1348.4 24.8475 1337.76 29.7945 1342.48C42.4998 1354.25 56.7524 1364.4 68.4879 1377.21C71.223 1378.25 72.6722 1381.13 75.0149 1382.82L74.6663 1382.43V1382.44ZM1007.22 1564.51C1007.32 1564.72 1007.4 1564.93 1007.5 1565.14C1007.37 1564.96 1007.23 1564.79 1007.1 1564.62C1023.16 1529.21 1074.88 1391.9 1030.48 1369.88C1026.39 1368.93 1021.81 1373.38 1023.66 1377.9C1026.03 1384.17 1025.67 1390.62 1025.08 1397.12C1024.04 1408.59 1022.22 1419.93 1020.08 1431.21C1004.81 1505.14 987.29 1580.21 957.313 1648.6C948.956 1660.95 914.087 1725.84 938.92 1729.78C968.243 1702.57 998.088 1675.85 1028.02 1649.41C1034.54 1643.26 1044.13 1645.13 1052.1 1643.39C1053.54 1643.39 1055.57 1643.07 1056.68 1644.06C1026.77 1678.35 987.791 1706.89 953.423 1737.21C920.331 1764.34 889.276 1794.23 857.643 1823.22C836.439 1842.45 815.278 1861.76 794.324 1881.32C781.695 1892.93 768.347 1903.68 759.717 1919.41C755.881 1927.05 751.425 1935.74 760.087 1941.76C763.073 1944.51 758.943 1948.78 762.027 1951.51C764.391 1954.1 767.214 1956.03 766.712 1960.18C769.36 1975.45 786.849 1980.49 799.369 1979.66C810.113 1980.25 817.316 1971.18 825.608 1965.36C848.752 1947.89 874.86 1935.98 900.456 1923.58C962.141 1898.8 1025.97 1879.74 1091.09 1868.64C1132.05 1860.51 1173.53 1857.29 1214.87 1852.46C1228.43 1849.4 1242.29 1849.22 1255.59 1845.88C1271.06 1846.33 1288.15 1839.23 1302.63 1842.72C1301.71 1845.93 1298.79 1847.66 1296.3 1849.22C1283.73 1857.39 1270.04 1863.04 1256.69 1869.47C1204.89 1893.52 1150.77 1910.68 1096.22 1925.39C990.046 1951.9 881.474 1965.22 775.56 1993.23C738.229 2001.64 701.486 2012.78 665.037 2024.89C662.444 2025.66 659.851 2026.59 657.083 2026.25C654.283 2025.5 654.915 2021.91 655.427 2019.56C658.892 2007.14 663.054 1994.95 666.759 1982.6C716.937 1826.27 671.88 1898.93 763.226 1865.59C773.708 1860.41 784.768 1858.16 795.969 1855.91C817.73 1845.46 822.6 1815.57 831.884 1794.07C839.828 1770.48 842.661 1745.16 850.147 1721.58C869.292 1669.02 887.042 1615.48 911.298 1565.41C952.192 1469.77 1003.26 1377.81 1069.31 1300.12C1090.93 1274.61 1114.54 1250.57 1141.4 1231.8C1149.61 1227.01 1163.19 1213.17 1170.74 1214.76C1172.31 1218.39 1169.33 1222.08 1168.37 1225.52C1160.23 1244.18 1153.09 1263.37 1143.57 1281.29C1126.61 1318.25 1108.32 1354.45 1090.45 1390.89C1073.4 1425.47 1056.87 1460.37 1040.92 1495.57C1031.97 1515.12 1023.25 1534.8 1014.01 1554.18C1013.28 1555.71 1012.55 1557.38 1010.86 1558.03C1010.87 1560.79 1008.16 1562.04 1007.23 1564.5L1007.22 1564.51ZM1631.3 817.945L1631.14 817.219C1628.61 833.695 1623.69 828.064 1631.3 817.945ZM1770.38 1212.39L1770.13 1213.05L1770.52 1212.52C1768.59 1207.41 1790.09 1129.29 1793.07 1159.74C1786.02 1177.33 1779.74 1196.32 1770.38 1212.39ZM1426.35 1194.85L1426.3 1195.07L1426.52 1195.04C1431.05 1182.05 1441.54 1172 1448.23 1160.12C1469.35 1129.29 1486.98 1094.97 1505.45 1062.86C1507.04 1063.86 1506.35 1065.94 1506.25 1067.55C1504.12 1080.63 1501.85 1093.69 1499.85 1106.79C1499.02 1112.23 1496.9 1116.76 1493.76 1121.01C1482.59 1135.37 1473.45 1151.78 1461.16 1165.01C1449.57 1174.7 1439.98 1188.77 1426.34 1194.85H1426.35ZM989.916 409.533L989.829 409.331C982.67 421.616 969.779 429.926 959.831 439.711C934.169 465.782 908.748 492.056 882.912 517.948C881.147 519.603 877.857 522.651 876.277 519.139C874.577 512.937 872.909 506.734 871.34 500.496C870.403 497.306 873.193 495.187 875.274 493.508C894.441 478.211 913.531 462.794 932.818 447.675C951.277 434.295 969.409 418.699 989.916 409.545V409.533ZM1616.23 1262.21L1616.16 1262.42H1616.39C1624.65 1237 1642.68 1215.49 1651.17 1189.69C1671.39 1138.72 1687.49 1085.92 1697.72 1031.44C1717.58 941.17 1637.44 972.646 1600.06 1009.1C1546.34 1058.03 1549.56 1063.72 1574.11 990.503C1575.64 985.658 1587.4 964.063 1592.17 971.694C1593.49 982.694 1586.63 995.039 1587.73 1005.11C1591.47 1001.63 1590.88 997.503 1596.97 998.372C1618.98 981.979 1641.27 963.063 1668.81 959.67C1687.07 956.742 1708.79 965.622 1713.23 987.003C1718.07 1000.53 1709.91 1014.78 1713.65 1028.1C1717.7 1039.74 1724.02 1050.11 1729.44 1061C1732.8 1068.9 1728.49 1077.98 1727.36 1086.05C1724.62 1096.87 1722.39 1107.82 1720.12 1118.76C1714.02 1153.95 1705.52 1106 1701.74 1096.13C1700.59 1092.06 1698.67 1089.97 1696.92 1095.06C1677.63 1154.22 1654.7 1215.26 1616.22 1262.21H1616.23ZM848.676 1310.9L848.61 1310.73C893.645 1357.79 959.111 1316.49 1000.11 1282.9C1045.81 1246.6 1092.75 1212.07 1137.24 1173.98C1153.18 1156.14 1170.2 1139.39 1186.74 1122.03C1193.02 1118.42 1217.21 1084.69 1218.72 1095.38C1215.49 1107.25 1209.38 1117.99 1206.55 1130.06C1201.81 1147.26 1199.1 1165.19 1198.07 1183.12C1197.84 1186.47 1199.62 1194.62 1194.65 1193.89C1186 1192.19 1183.72 1185.3 1181.11 1177.11C1176.94 1167.63 1166.96 1164.31 1159.88 1172.1C1113.39 1210.08 1065.83 1246.86 1017.26 1281.67C990.286 1298.51 972.536 1327.75 953.369 1353.65C894.844 1437.13 847.39 1529.4 810.08 1626.34C794.281 1667.12 779.897 1708.58 767.824 1750.85C760.992 1766.9 762.408 1786.52 753.833 1801.45C744.669 1813.54 731.43 1821.36 717.907 1826.02C711.489 1826.85 717.439 1812.29 718.005 1809.1C731.048 1764.67 742.086 1719.63 754.301 1674.95C761.199 1643.5 774.296 1611.88 771.539 1579.03C771.801 1570.18 761.863 1563.46 765.22 1559.14C810.843 1525.34 841.233 1472.71 872.811 1424.45C884.176 1404.77 896.402 1385.63 906.318 1364.98C910.611 1356.5 917.912 1348.57 919.394 1338.93C918.609 1336.51 914.719 1337.55 912.845 1337.61C904.803 1339.45 896.686 1339.02 888.589 1338.92C869.902 1340.42 855.148 1324.2 852.849 1330.87C834.946 1376.77 819.168 1423.68 799.358 1468.69C786.718 1495.94 775.277 1524.74 756.393 1547.65C753.288 1551.27 749.725 1555.97 744.832 1552.59C740.67 1549.9 736.017 1547.5 734.546 1541.99C730.732 1530.44 725.066 1518.89 715.597 1511.78C685.643 1484.34 621.07 1529.64 590.582 1544.12C567.416 1555.46 544.675 1567.81 522.228 1580.81C509.185 1588.63 495.434 1594.88 482.51 1602.93C465.24 1612.82 473.368 1598.19 475.94 1586.87C492.252 1530.87 509.588 1475.3 528.701 1420.37C567.361 1310.42 607.046 1200.26 654.457 1094.3C670.05 1058.54 690.306 1025.65 708.22 991.372C716.131 977.36 724.336 963.384 731.68 948.968C735.647 938.897 733.358 927.23 732.694 916.623C731.865 909.897 730.896 903.171 728.509 896.826C727.855 895.683 728.564 893.361 729.904 894.135C748.886 931.42 744.789 1004.28 735.952 1045.41C713.32 1144.97 670.747 1237.66 632.13 1330.67C631.28 1332.51 629.744 1339.15 633.187 1336.12C676.838 1263.3 713.538 1185.07 741.16 1103.49C755.718 1061.79 766.222 1018.49 772.902 974.503C777.87 957.123 787.601 941.635 791.578 923.67C795.948 908.433 800.274 955.206 801.908 957.896C805.09 969.658 806.321 987.765 818.656 992.217C823.81 992.979 822.295 995.705 820.759 999.646C790.347 1074.2 687.397 1275.02 716.044 1347.7C720.272 1357.33 726.624 1367.11 735.854 1371.36C751.708 1376.84 771.093 1375.32 784.332 1363.45C809.775 1344.61 827.635 1316.29 841.397 1286.98C871.809 1217.69 900.401 1146.94 919.666 1072.16C927.152 1052.8 930.791 1032.13 935.935 1011.97C941.851 981.896 947.975 950.789 944.129 919.956C941.535 894.195 918.631 886.921 924.09 878.004C929.931 870.278 936.49 863.195 942.505 855.612C952.791 841.433 941.655 820.779 942.799 804.005C942.353 790.719 940.511 777.541 939.672 764.303C938.953 751.315 937.918 738.387 935.826 725.577C935.183 722.292 936.49 719.196 937.188 716.065C941.067 705.625 952.791 701.744 960.168 694.506C969.082 688.947 967.883 698.97 968.188 705.946C968.362 714.256 969.572 722.399 971.228 730.494C972.743 737.863 975.38 744.494 980.425 749.863C984.435 753.315 984.729 759.244 987.508 763.541C991.692 768.148 995.898 772.767 1000.32 777.089C1014.96 795.505 1058.07 784.172 1052.36 796.91C1049.58 802.672 1046.87 808.469 1041.51 812.041C1032.37 819.481 1027.85 831.838 1021.99 842.171C1001.71 889.909 995.222 944.516 979.324 994.325C961.062 1056.82 937.711 1117.17 913.172 1176.99C899.911 1211.22 885.059 1244.74 872.125 1279.14C867.962 1289.07 864.628 1299.42 860.357 1309.27C857.894 1314.8 852.718 1310.76 848.676 1310.93V1310.9ZM1183.56 2437.31C1185.79 2387.26 1202.75 2329.58 1224.08 2283.59C1230.87 2270.64 1243.75 2263.48 1253.89 2254.04C1287.13 2224.78 1322.39 2198.36 1356.91 2170.94C1369.73 2160.03 1383.58 2150.81 1397.08 2141.02C1399.65 2138.65 1400.69 2143.73 1402.67 2141.79C1407.43 2133.59 1413.65 2127.46 1421.43 2122.77C1438.84 2110.35 1455.88 2097.27 1473.62 2085.41C1481.1 2079.56 1484.5 2082.28 1488.69 2090.58C1494.66 2100.85 1501.8 2110.07 1509.68 2118.65C1528.57 2138.99 1550.42 2155.61 1571.49 2173.09C1583.92 2183.13 1645.95 2233.55 1628.17 2250.1C1568.85 2319.8 1484.62 2355.11 1408.28 2397.18C1366 2418.96 1324 2441.38 1281.82 2463.4C1237.36 2483.77 1183.8 2523.01 1183.56 2437.31ZM191.836 1008.48C185.767 1096.07 170.817 1182.52 160.007 1269.51C155.758 1287.42 156.771 1375.8 133.485 1324.58C127.274 1310.76 122.229 1296.43 118.448 1281.6C117.141 1270.83 101.646 1230.02 109.328 1223.86C114.907 1220.29 121.02 1217.72 126.828 1214.6C129.89 1212.37 131.851 1215.99 131.829 1218.81C134.869 1231.83 133.649 1283.81 152.053 1267.46C155.529 1262.19 154.102 1254.68 154.526 1248.51C154.091 1234.05 153.263 1219.61 152.783 1205.14C154.145 1196.86 168.354 1193.56 158.602 1181.31C156.205 1178.3 151.17 1177.54 150.745 1173C150.266 1168.3 149.699 1163.62 149.34 1158.91C146.125 1121.05 141.364 1082.94 129.77 1046.94C123.21 1027.01 114.787 1006.92 98.6604 994.146C91.5668 981.991 98.2354 962.206 97.5598 948.135C99.4558 926.778 98.4968 904.814 102.921 883.873C124.191 642.197 202.166 396.938 360.721 221.19C389.433 189.702 422.133 158.821 457.34 137.655C452.872 151.976 441.311 164.25 434.555 177.94C427.156 190.654 419.997 203.523 412.817 216.38C406.715 231.606 326.386 359.057 368.337 353.593C374.483 351.533 378.22 345.51 382.165 340.403C389.683 329.95 397.115 319.427 404.601 308.939C407.194 305.558 409.319 301.677 412.457 298.855C412.817 298.76 414.288 298.855 413.972 299.855C410.91 309.403 404.056 318.177 404.437 328.629C405.778 334.712 402.509 344.986 409.689 347.414C416.434 347.938 421.686 356.45 428.486 352.581C434.936 349.831 438.936 343.343 443.251 337.784C451.717 326.26 460.402 314.951 469.522 304.046C474.883 299.355 480.658 286.558 487.73 292.117C488.896 293.427 489.255 295.379 488.395 297.01C481.508 310.736 472.715 323.2 465.817 336.915C442.444 377.021 426.503 421.902 407.172 464.009C403.598 465.128 402.705 449.247 397.245 444.009C381.184 418.509 357.659 400.485 338.928 377.831C335.768 373.998 333.131 362.486 327.715 364.76C325.928 366.664 323.945 367.843 321.45 368.414C314.105 370.867 317.952 383.176 311.828 387.7C309.485 390.628 311.109 395.307 309.028 398.533C299.341 416.211 311.915 431.556 313.049 449.652C314.269 461.782 316.339 500.413 306.412 507.615C250.034 526.436 210.022 567.519 189.918 628.34C178.346 666.899 161.838 704.458 158.722 745.351C158.297 763.755 155.3 785.862 167.995 800.196C168.376 801.207 167.69 802.6 166.894 803.207C160.313 808.41 154.472 814.636 148.01 819.945C137.768 828.374 129.639 839.076 120.638 848.838C112.749 856.814 114.896 869.266 111.387 879.421C110.483 916.04 110.287 912.718 134.815 938.67C145.995 947.587 149.994 963.372 161.675 971.42C183.958 989.92 191.956 969.539 191.858 1008.47L191.836 1008.48ZM1692.36 1624.47C1692.46 1624.47 1692.55 1624.47 1692.64 1624.47C1692.16 1615.08 1693.16 1605.09 1687.24 1597.39C1659.8 1551.71 1633.64 1505.08 1608.01 1458.2C1604.83 1452.65 1586.87 1486.07 1584.49 1489.63C1580.08 1492.76 1576.2 1508.7 1571.83 1506.56C1556.39 1490.5 1539.53 1498.7 1561.46 1479.44C1599.48 1429.15 1567.18 1436.87 1573.53 1409.36C1591.16 1350.25 1486.01 1381.67 1460.7 1388.98C1425.94 1400.95 1392.27 1416.93 1360.46 1436.32C1329.94 1453.38 1299.36 1470.36 1269.72 1489.18C1263.87 1491.84 1239.42 1512.06 1236.73 1505.66C1274.27 1460.31 1314.43 1416.64 1348.29 1368C1353 1359.54 1380.75 1329.12 1368.66 1321.82C1360.45 1318.83 1351.9 1317.17 1343.62 1314.45C1335.16 1313.23 1298.9 1295.33 1295.93 1301.81C1277.36 1326.37 1259.87 1351.88 1243.53 1378.3C1208.85 1432.52 1175.26 1487.53 1143.7 1544C1116.86 1590.62 1128.18 1587.49 1084.52 1621.46C1080.06 1624.68 1076.42 1629.72 1071.13 1631.2C1063.48 1631.64 1041.9 1640.04 1046.78 1630.29C1093.75 1554.15 1145.66 1481.82 1195.82 1408.18C1220.59 1371.99 1245.24 1335.69 1269.56 1299.14C1270.67 1296.24 1275.51 1291.85 1271.51 1289.4C1265.14 1286.96 1258.76 1284.56 1252.36 1282.2C1250.08 1281.37 1248.06 1282.01 1246.54 1284.06C1228.41 1308.68 1209.69 1332.79 1191.11 1357.01C1154.02 1405.09 1115.92 1452.33 1076.41 1498.06C1061.49 1511.96 1097.79 1452.43 1098.26 1449.24C1117.55 1412.98 1135.97 1376.18 1154.67 1339.56C1171.8 1306.75 1189.33 1273.98 1201.72 1238.61C1206.83 1226.87 1212.51 1246.33 1218.4 1247.91C1229.37 1257.45 1241.93 1264.67 1254.23 1271.96C1271.6 1279.21 1290.82 1280.42 1307.96 1288.49C1320.26 1292.83 1332.89 1296.35 1345.35 1300.25C1369.68 1306.64 1397.07 1313.02 1420.99 1301.89C1431.02 1296.65 1441.91 1293.96 1452.31 1289.79C1460.36 1286.37 1466.48 1279.01 1473.61 1273.82C1478 1271.12 1479.73 1265.63 1483.99 1262.82C1490.87 1258.49 1503.76 1238.07 1511.42 1246.24C1523.56 1259.76 1534.1 1274.75 1544.44 1289.92C1547.74 1295.79 1554.15 1301.45 1555.08 1308.12C1551.89 1308.42 1549.32 1302.95 1546.79 1300.82C1541.83 1294.96 1536.98 1289 1532.05 1283.13C1530.62 1281.76 1529 1279.04 1526.94 1279.5C1505.36 1300.62 1485.83 1329.54 1454.76 1333.24C1446.55 1334.89 1447.16 1324.7 1441.85 1324.82C1435.47 1326.07 1429.26 1328.24 1422.7 1328.37C1419.49 1328.26 1418.22 1331.48 1419.17 1334.5C1424.25 1361.23 1449.74 1375.2 1472.67 1378.58C1499.58 1381.53 1525.12 1365.12 1545.92 1348.01C1577.66 1320.81 1566.22 1363.07 1575.19 1381.48C1586.3 1408.48 1600.03 1433.9 1614.93 1458.59C1634.81 1494.89 1656.24 1529.95 1678.85 1564.22C1697.17 1591.69 1712.47 1624.34 1738.43 1644.03C1772.44 1669.35 1810.77 1682.91 1852.02 1682.52C1853.04 1682.56 1852.94 1684.08 1852.2 1684.41C1838.87 1688.14 1825.37 1691.23 1812.05 1695.01C1763.24 1706.72 1718.53 1731.26 1672.73 1752.28C1622.6 1780.09 1573.4 1810.03 1526.19 1843.41C1524.74 1844.85 1519.69 1847.63 1520.54 1843.53C1531.31 1830.47 1545.95 1821.44 1559.34 1811.82C1595.1 1786.66 1633.3 1766.51 1670.85 1744.98C1674.01 1739.27 1647.45 1727.38 1643.61 1722.39C1637.25 1715.31 1617.3 1710.48 1622.6 1697.63C1629.63 1672.82 1630.33 1646.38 1635.83 1621.13C1636.03 1619.65 1637.23 1616.98 1638.7 1617.76C1641.26 1620.41 1638.82 1625.26 1638.93 1628.69C1636.33 1645 1635.17 1661.51 1633.21 1677.9C1632.14 1686.42 1633.09 1695.84 1640.17 1700.98C1645.74 1706.34 1653.11 1708.23 1658.8 1713.21C1666.46 1718.72 1676.2 1713.75 1682.28 1707.57C1696.48 1695.1 1691.9 1643.79 1692.34 1624.45L1692.36 1624.47ZM541.33 2496.38C464.684 2488.51 381.566 2460.32 333.741 2390.45C313.561 2362.93 326.081 2345.27 339.472 2318.81C363.804 2281.85 397.769 2253.35 432.594 2228.49C446.933 2216.4 463.3 2207.66 479.111 2198.15C513.947 2176.48 550.297 2157 587.531 2141.1C590.157 2140.92 590.756 2143.98 590.298 2146.24C586.485 2170.38 581.004 2194.18 576.939 2218.28C568.135 2269.63 561.139 2321.38 555.593 2373.27C552.052 2407.6 548.826 2441.98 547.225 2476.49C545.895 2482.83 550.112 2496.48 541.33 2496.39V2496.38ZM410.746 639.102C412.403 618.364 394.14 634.685 386.295 639.269C377.621 645.292 369.187 651.685 361.363 659.018C360.099 660.292 357.539 661.59 356.634 659.28C356.493 647.209 361.015 634.923 359.86 622.519C359.162 613.078 358.062 603.721 354.782 594.841C353.562 591.555 352.406 588.162 352.842 584.555C353.028 579.15 358.28 576.805 361.396 573.412C369.318 565.496 371.127 553.079 374.407 542.436C378.95 532.782 389.149 543.591 392.277 549.424C397.801 557.734 409.243 553.948 415.671 548.877C421.283 544.603 421.959 535.936 424.596 529.472C430.829 508.615 440.995 489.639 451.859 471.33C489.038 408.14 538.649 355.474 578.487 294.439C590.778 275.272 627.564 227.582 627.336 207.202C628.142 204.523 627.837 202.059 626.627 199.523C624.252 190.059 636.87 188.857 639.278 178.476C641.664 171.523 634.364 166.416 631.237 161.309C627.466 152.869 663.653 154.369 669.941 151.881C681.97 149.821 694.229 150.762 706.291 148.762C707.457 148.512 709.31 149.321 709.353 150.69C699.59 167.988 686.122 183.261 675.607 200.285C669.57 208.416 636.968 265.737 666.421 234.749C706.869 194.142 753.43 161.547 793.376 120.345C800.175 115.655 817.621 90.2623 823.08 95.9051C829.498 104.679 833.333 115.357 838.825 124.762C847.423 139.524 860.738 156.285 859.616 174.535C857.665 195.868 849.558 215.523 841.146 234.642C831.721 251.535 827.428 275.749 809.688 284.558C788.385 295.26 786.391 302.629 769.883 279.32C766.135 271.939 773.61 261.439 761.864 259.237C711.849 254.761 664.852 281.903 624.285 311.105C563.471 352.093 520.768 416.378 490.138 485.746C465.926 538.782 446.149 594.531 434.185 652.388C421.828 704.732 407.02 756.148 385.325 804.91C374.832 834.338 367.934 865.147 357.147 894.492C346.871 924.051 333.087 951.932 320.752 980.491C318.028 986.598 315.195 992.634 312.329 998.67C311.61 999.634 310.847 1001.61 309.518 1001.3C308.461 1000.5 309.289 998.313 309.322 997.158C318.235 956.063 329.611 915.706 343.45 876.29C350.173 856.362 362.715 839.1 368.087 818.624C373.175 795.993 379.964 773.863 388.746 752.577C393.977 742.03 395.568 730.327 397.355 718.661C400.013 710.554 401.441 702.137 402.498 693.673C405.265 675.292 410.332 658.209 410.714 639.078L410.746 639.102ZM1515.1 664.28C1562.45 665.078 1609.4 672.792 1655.81 682.518C1666.48 684.423 1701.99 688.28 1700.31 701.72C1698.24 712.851 1683.68 711.613 1675.87 715.565C1619.78 726.72 1567.59 753.16 1518.54 784.22C1511.31 787.862 1516.4 782.208 1518.78 780.089C1537.26 761.91 1556.95 745.125 1574.37 725.708C1575.43 724.375 1576.85 723.101 1578.41 723.673C1582.38 729.256 1574.81 736.172 1576.04 741.815C1600.27 730.553 1623.14 710.566 1648.77 700.268C1649.59 699.387 1649.47 698.03 1648.36 697.625C1636.09 693.994 1623.74 690.685 1611.21 688.435C1573.6 681.673 1535.4 677.84 1497.39 682.328C1479.79 682.852 1462.16 684.709 1446.02 693.125C1439.83 695.72 1436 700.518 1432.26 706.232C1426.33 713.899 1420.39 721.565 1414.46 729.244C1402.39 745.875 1388.44 761.053 1378.06 779.053C1328.21 865.457 1260.34 937.147 1196.84 1011.41C1169.49 1045.1 1135.74 1075.07 1118.06 1116.48C1112.03 1131.54 1104.47 1146.64 1091.75 1156.11C1066.93 1175.61 1062.1 1145.78 1055.27 1156.83C1012.57 1215.24 961.138 1270.21 899.17 1303.46C894.975 1304.74 890.159 1308.38 886.192 1305.83C886.269 1305.05 886.476 1303.82 886.944 1303.6C899.54 1298.99 911.036 1291.45 921.246 1282.21C937.972 1265.56 958.076 1250.86 970.019 1229.52C981.863 1201.5 992.782 1173.1 1003.91 1144.55C1006.12 1135.55 1012.7 1123.23 1015.2 1114.38C1019.11 1101.62 1023.38 1088.93 1028.16 1076.41C1039.72 1039.99 1050.94 1003.18 1059.62 965.813C1063.67 947.813 1068.02 929.837 1072.57 911.968C1075.49 903.016 1077.7 890.337 1088.32 889.957C1089.74 889.778 1091.74 891.004 1092.29 892.504C1108.3 968.253 1075.42 1054.54 1060.72 1128.61C1057.9 1137.64 1063.31 1146.18 1070.36 1150.66C1082.88 1155.12 1094.82 1137.85 1100.89 1127.68C1109.69 1109.36 1115.9 1089.6 1128.51 1073.72C1172.58 1015.79 1223.22 964.146 1262.48 901.921C1280.62 879.719 1298.65 857.433 1318.36 836.767C1334.64 818.85 1345.73 796.398 1361.43 778.053C1370.75 766.624 1360.88 751.125 1358.1 738.756C1355.69 732.768 1360.71 724.851 1353.85 721.125C1338.93 707.47 1318.76 708.589 1302.29 718.696C1282.41 730.649 1262.73 743.16 1242.77 754.875C1237.06 755.589 1258.13 735.339 1259.43 731.768C1269.04 716.196 1252.14 717.637 1244.26 724.768C1230.84 733.137 1139 806.66 1197.98 751.458C1206.85 740.387 1220.41 736.041 1230 726.03C1243.18 716.315 1258.12 709.494 1270.22 697.947C1278.32 691.994 1285.06 684.292 1292.37 677.364C1298.1 672.018 1305.04 661.137 1312.75 661.161C1318.19 661.471 1321.97 665.649 1325.66 669.566C1339.62 682.863 1353.9 699.459 1373.7 699.804C1384.83 701.018 1394.01 692.756 1403.92 688.47C1438.29 669.649 1477.05 664.899 1515.09 664.245L1515.1 664.28ZM840.645 703.994C840.645 703.994 840.71 703.994 840.743 703.994C840.743 711.089 841.571 718.542 836.363 723.911C831.241 730.018 825.586 735.506 820.225 741.339C815.572 746.399 813.545 746.708 808.272 742.553C770.679 717.006 735.178 687.994 699.176 659.876C692.388 654.53 685.664 649.019 678.418 644.483C673.221 640.102 669.832 644.542 664.187 646.411C660.875 647.733 659.883 651.554 659.175 654.959C657.519 663.483 651.896 670.078 649.739 678.387C645.555 691.494 641.861 704.768 635.737 717.018C605.968 777.97 574.292 837.731 545.547 899.302C527.262 935.48 510.242 972.444 491.478 1008.32C487.436 1014.17 484.461 1004.19 486.084 1000.21C490.389 984.36 494.529 968.456 498.31 952.444C509.839 907.218 522.588 862.326 538.715 818.791C543.694 805.386 549.164 792.196 554.678 779.041C561.75 764.303 566.544 747.375 578.073 735.899C609.149 704.78 638.396 671.53 666.639 637.376C682.232 617.007 699.22 597.995 714.322 577.15C723.966 565.257 732.389 551.996 743.568 541.734C743.721 541.579 744.723 541.996 744.811 542.317C744.549 563.258 737.924 584.15 734.513 604.84C732.214 617.519 728.553 630.126 727.583 642.995C728.389 657.399 742.5 655.864 750.008 647.447C798.127 614.769 787.329 559.448 805.918 509.306C816.825 482.865 833.726 460.104 847.793 435.652C856.794 421.307 851.945 438.818 850.735 445.152C848.381 457.616 847.237 470.247 846.496 482.925C845.995 491.425 846.551 490.234 840.275 496.294C836.831 499.615 833.442 503.008 830.13 506.484C820.203 516.163 820.661 529.46 834.881 532.448C840.133 537.639 837.136 548.924 838.313 556.127C840.841 576.638 819.942 592.662 811.933 610.281C799.729 631.066 788.516 653.173 783.275 677.364C780.039 688.53 789.29 695.125 793.638 703.851C802.769 719.196 820.988 704.875 828.888 694.935C839.915 681.78 840.699 691.732 840.623 703.982L840.645 703.994ZM212.736 999.265C212.005 985.11 214.294 970.349 206.557 957.849C198.101 943.099 190.06 928.028 182.748 912.635C181.223 908.397 183.598 904.504 186.715 901.992C191.324 898.54 193.34 892.814 197.001 888.445C201.959 882.98 206.721 877.361 210.6 870.921C236.337 837.112 262.957 804.148 288.967 770.565C299.777 758.029 326.342 711.923 310.662 761.458C305.508 780.279 300.844 799.767 300.169 819.469C299.406 850.195 297.946 880.766 293.577 911.206C288.292 960.182 284.663 1009.34 279.574 1058.34C267.468 1097.89 265.191 1140.55 257.934 1181.55C250.862 1218 248.323 1258.61 238.636 1292.98C237.209 1292.39 237.187 1290.64 237.035 1289.25C235.585 1270.71 234.169 1252.18 232.872 1233.63C229.146 1184.48 226.574 1135.25 225.354 1085.94C224.798 1068.85 223.044 1051.72 224.765 1034.63C226.618 1013.79 230.922 1011.43 212.736 999.253V999.265ZM1819.5 1601.76C1819.5 1601.76 1819.5 1601.69 1819.5 1601.64C1792.63 1601.28 1763.9 1601.04 1739.71 1586.68C1725.9 1577.56 1704.83 1563.45 1707.87 1543.1C1708.36 1540.55 1708.75 1537.51 1706.57 1535.75C1684.25 1513.85 1690.84 1476.46 1695.97 1447.87C1698.62 1445.64 1697.62 1453.49 1697.89 1455.11C1699.25 1474.36 1695.16 1518.72 1713.57 1527.76C1722.61 1530.1 1733.04 1510.82 1739.76 1504.83C1750.05 1492.7 1760.59 1480.82 1771.39 1469.22C1804.69 1434.99 1839.39 1398.57 1883.33 1381.78C1900.85 1375.32 1925.79 1374.98 1935.2 1395.76C1941.21 1406.84 1909.69 1417.84 1902.38 1418.9C1879.01 1426.77 1848.72 1425.84 1835.95 1453.07C1828.72 1478.05 1826.1 1506.15 1833.73 1531.39C1839.57 1551 1850.32 1568.69 1855.59 1588.52C1855.88 1601.45 1828.03 1602.4 1819.5 1601.73V1601.76ZM1537.81 1433.74C1565.57 1435.28 1482 1491.89 1476.2 1496.82C1420.05 1535.22 1360.03 1566.24 1302.67 1602.37C1299.06 1603.33 1276.11 1623.79 1279.64 1611.85C1282.6 1602.89 1286.77 1594.65 1292.1 1587.12C1293.23 1584.77 1296.5 1582.6 1295.91 1579.78C1295.02 1577.01 1275.8 1583.04 1273.74 1584.76C1255.32 1597.76 1242.38 1618.25 1230.66 1638.15C1223.05 1652.04 1224.7 1649.5 1213.87 1656.59C1194.6 1669.21 1176.05 1682.97 1158.53 1698.35C1153.28 1702 1114.41 1741.17 1130.79 1718.64C1156.75 1687.37 1181.6 1654.95 1206.83 1623.08C1242.83 1593.13 1280.74 1565.43 1319.39 1539.77C1357.9 1512.6 1398.6 1488.9 1440.49 1468.69C1471.28 1452.75 1503.64 1437.61 1537.82 1433.74H1537.81ZM6.70498 1188.39C6.25822 1220.85 5.0051 1253.3 5.86593 1285.76C6.99916 1292.15 3.26165 1293.98 -0.693774 1289.05C-24.4917 1269.64 -48.7473 1250.83 -72.2183 1230.98C-78.3639 1224.73 -73.7655 1214.44 -74.866 1206.38C-75.0949 1199.57 -74.3212 1192.85 -73.395 1186.14C-73.9725 1162.89 -72.3489 1139.6 -70.4965 1116.41C-71.4881 1106.6 -65.1464 1103 -58.0092 1099.43C-40.0736 1089.47 -23.7508 1077.01 -9.17126 1061.82C-5.84784 1058.5 -2.49174 1053.42 0.210586 1060.66C10.1591 1102.03 5.66981 1145.98 6.70498 1188.39ZM723.584 404.771C722.974 415.188 724.281 419.664 730.46 410.247C744.963 387.878 762.114 367.307 774.133 343.165C774.841 341.212 777.402 337.224 778.905 340.367C779.102 346.272 775.854 351.712 773.337 356.712C752.449 393.688 727.387 427.557 702.532 461.401C645.99 538.889 589.732 617.09 526.772 688.601C506.723 708.78 532.907 648.745 534.923 643.507C545.024 621.293 556.672 599.924 569.628 579.567C607.787 519.163 654.392 466.199 699.83 412.39C708.689 403.545 729.403 369.117 723.584 404.783V404.771ZM861.425 470.151C863.277 448.735 880.374 370.117 895.432 359.141C936.741 335.653 974.889 303.272 1020.91 291.082C1025.48 292.106 1021.26 297.832 1020.43 300.629C1013.76 314.796 1008.4 329.629 1004.4 344.95C998.753 361.057 1011.62 370.355 1004.19 373.605C954.448 397.819 910.164 432.985 868.148 470.425C865.827 472.568 861.13 476.687 861.435 470.151H861.425ZM657.584 843.552C659.709 849.671 656.026 857.505 654.871 863.873C651.646 875.457 647.832 886.814 643.8 898.087C615.437 973.23 586.081 1049.93 544.925 1117.61C543.52 1118.26 542.463 1116.43 542.561 1115.04C544.021 1099.09 541.188 1081.11 536.655 1066.45C514.568 1022.54 508.466 1054.57 554.558 991.836C591.464 944.754 625.047 893.385 657.584 843.552ZM742.446 1296.75C750.793 1211.62 786.326 1132.7 820.726 1056.87C836.33 1025.18 851.433 993.122 868.616 962.408C869.75 960.289 873.487 957.039 874.054 961.575C866.263 1009.65 849.678 1055.78 835.349 1101.93C818.819 1150.18 800.906 1198.18 777.849 1243.27C773.643 1248.91 746.815 1314.32 742.446 1296.75ZM342.12 597.757C336.901 640.066 301.542 681.459 272.241 707.613C240.674 736.268 209.467 765.374 177.812 793.91C164.094 802.338 182.062 773.255 184.132 769.91C199.834 745.768 210.742 718.684 224.504 693.304C235.019 674.09 251.069 659.28 264.766 642.804C278.332 627.09 291.986 609.876 311.054 602.257C320.164 598.721 329.132 594.126 338.666 592.257C341.183 591.972 342.022 595.793 342.131 597.757H342.12ZM1551.26 1562.38C1549.23 1571.37 1547.6 1581.79 1541.48 1588.71C1531.46 1599.45 1521.81 1610.6 1511.97 1621.53C1505.26 1630.15 1499.48 1639.34 1496.69 1650.43C1496.49 1652.07 1494.74 1654.08 1493.35 1652.59C1476.81 1623.73 1466.27 1581.34 1432.44 1571.93C1428.39 1571.03 1429.92 1569.31 1432.29 1567.18C1434.92 1563.18 1438.61 1560.89 1442.61 1558.91C1472.51 1543.07 1501.3 1524.83 1529.47 1505.56C1535.07 1501.19 1539.47 1501.43 1538.48 1510.26C1536.72 1517.72 1537.34 1525.35 1536.92 1532.97C1538.28 1544.12 1550.98 1550.5 1551.27 1562.38H1551.26ZM1418.62 1160.17C1418.93 1178.16 1414.69 1195.33 1406.88 1211.06C1403.11 1220.56 1403.16 1220.61 1395.86 1226.99C1372.26 1250.32 1339.83 1234.89 1313.45 1226.49C1297.72 1219.67 1279.73 1218.58 1265.11 1209.2C1256.51 1201.6 1265.52 1181.42 1268.44 1171.87C1272.67 1158.61 1285.46 1124.45 1295.66 1118.24C1301.78 1126.39 1298.97 1143.69 1301.34 1154.25C1302.76 1167.45 1304.81 1180.55 1307.29 1193.56C1308.68 1199.58 1304.75 1204.05 1301.99 1208.67C1299.9 1215.89 1344.33 1219.67 1350.67 1220.86C1357.25 1220.73 1373.4 1221.23 1373.08 1211.17C1370.86 1200.22 1367.93 1189.5 1365.21 1178.81C1363.94 1173.1 1364.25 1167.64 1367.1 1162.57C1374.41 1150.19 1380.75 1137.01 1388.9 1125.26C1392.92 1121.31 1402.27 1130.94 1406.98 1132.42C1417.06 1137.31 1419.59 1149.08 1418.58 1160.14L1418.62 1160.17ZM903.681 788.22C909.009 798.469 905.839 812.172 909.107 823.541C910.361 829.314 908.683 834.588 904.771 838.933C892.098 851.778 891.216 860.969 872.321 861.993C853.666 865.754 839.73 879.683 832.908 898.873C826.948 913.552 825.281 929.575 822.96 945.266C820.89 956.099 820.029 985.991 812.946 956.718C806.005 924.504 798.236 890.849 806.332 858.219C805.635 846.1 795.261 853.183 793.779 846.302C791.752 838.302 789.017 830.624 785.52 823.267C784.975 821.779 784.027 819.743 785.106 818.302C788.603 814.148 793.714 814.362 797.539 817.445C808.936 825.41 821.086 831.898 833.017 838.814C851.106 849.897 877.551 847.54 889.886 828.1C895.095 816.1 899.017 803.529 901.883 790.612C902.308 789.719 902.526 788.1 903.681 788.231V788.22ZM1412.03 1694.11C1412.73 1699.09 1410.2 1701.81 1405.69 1697.32C1393.72 1687.22 1381.77 1677.09 1369.78 1667.03C1357.46 1656.44 1344.44 1646.9 1332.6 1635.72C1330.22 1632.53 1316.15 1626.06 1320.28 1621.96C1350.35 1605.98 1380.9 1590.82 1411.35 1575.71C1415.54 1575.43 1412.94 1581.81 1412.95 1584.45C1410.32 1599.58 1408.98 1614.84 1409.31 1630.23C1409.78 1652.41 1410.74 1671.04 1412.03 1694.11ZM1593.79 1160.11C1590.86 1176.17 1581.1 1189.3 1575.07 1204.01C1571.79 1210.62 1564.3 1224.74 1557.52 1214.41C1546.3 1197.76 1539.22 1203.55 1529.97 1190.81C1525.97 1182.64 1514.93 1175.62 1517.04 1165.56C1523.66 1143.28 1542.73 1129.34 1557.39 1113.5C1559.86 1111.7 1564.81 1105.01 1567.18 1109.56C1569 1142.68 1588.38 1125.87 1593.8 1160.1L1593.79 1160.11ZM1403.25 1103.54C1412.18 1088.26 1422.05 1071.03 1437.16 1062.25C1455.98 1053.4 1473.98 1042.57 1491.75 1031.54C1500.06 1026.87 1494 1040.67 1492.44 1044.04C1473.8 1086.66 1450.85 1126.67 1428.46 1166.98C1427.89 1167.91 1426.3 1169.93 1425.54 1168.28C1428.17 1147.63 1427.07 1127.61 1411.95 1112.88C1409.08 1109.73 1404.52 1108.01 1403.26 1103.54H1403.25ZM918.446 226.916C920.462 207.833 926.28 187.38 921.638 168.773C924.232 149.655 915.057 131.44 912.681 112.881C913.128 110.869 915.384 111.536 916.375 112.822C921.497 120.06 928.743 125.107 933.984 132.298C951.037 153.214 968.809 173.476 985.339 194.88C988.336 200.63 967.349 209.44 963.514 213.428C950.34 220.273 936.686 225.773 922.815 230.666C920.516 231.511 918.522 229.511 918.446 226.904V226.916ZM1306.72 987.575C1307.41 958.027 1345.2 922.397 1366.79 907.087C1369.07 908.754 1365.06 911.682 1363.97 913.016C1344.36 933.956 1317.08 968.741 1325.49 1000.71C1331.16 1021.62 1344.56 1038.4 1357.27 1054.69C1389.18 1097.76 1411.28 1048.78 1365.57 1118.34C1362.92 1121.25 1358.18 1131.62 1354.11 1128.73C1349.03 1114.94 1347.25 1097.66 1354.42 1084.35C1358.59 1076.67 1360.7 1074.3 1353.14 1068.35C1331.66 1046.72 1306.75 1022.09 1306.71 987.586L1306.72 987.575ZM1081.67 173.619C1082.96 168.393 1097.18 175.845 1101.05 176.321C1132.98 187.559 1162.61 205.297 1190.24 225.904C1194.27 229.594 1188.7 233.832 1186.2 236.332C1177.15 243.773 1168.74 252.201 1159.21 258.915C1149.89 265.832 1142.19 275.356 1132.75 282.106C1122.86 288.784 1114.87 298.403 1103.65 302.736C1101.04 304.355 1095.18 303.605 1098 299.26C1110.84 279.177 1126.25 261.356 1140.86 242.844C1143.4 238.058 1160.93 222.142 1156.78 218.059C1132.89 201.095 1107.48 185.773 1081.66 173.619H1081.67ZM727.736 825.529C727.191 832.243 730.307 853.647 724.903 856.374C720.065 856.945 715.172 856.064 710.421 857.659C709.419 857.969 708.1 857.135 707.752 856.124C700.952 835.302 696.899 813.434 689.794 792.743C685.85 785.791 689.228 782.267 692.104 775.601C697.433 769.577 699.361 748.041 708.58 751.267C778.557 802.91 717.395 751.637 727.736 825.541V825.529ZM748.341 617.305C751.12 588.293 755.881 559.46 759.488 530.532C760.36 524.056 761.918 517.865 765.71 512.52C792.265 476.246 812.074 434.437 838.444 397.997C840.231 395.604 854.603 379.557 852.555 387.426C823.025 436.806 786.762 484.961 777.293 544.627C771.343 569.365 769.916 599.638 751.632 617.709C750.673 618.602 748.81 619.031 748.341 617.293V617.305ZM1729.93 868.183C1734.76 844.874 1736.05 772.493 1755.61 763.22C1766.46 760.898 1777.55 760.125 1788.21 756.744C1789.63 756.303 1791.95 757.375 1791.71 759.244C1775.31 795.208 1754.09 828.588 1736.81 864.171C1735.56 866.921 1731.21 874.945 1729.93 868.195V868.183ZM1698.69 1278.33C1697.71 1302.99 1695.7 1330.87 1679.89 1350.01C1674.42 1356.56 1669.3 1363.43 1664.55 1370.63C1643.51 1406.44 1642.21 1380.75 1629.53 1357.31C1627.76 1351.36 1619.02 1337.39 1620.56 1332.44C1627.08 1334.51 1637.37 1364.11 1643.63 1361.18C1653.54 1349.98 1662.81 1337.98 1671.76 1325.84C1677.7 1317.18 1685.51 1309.35 1687.28 1298.26C1690.81 1276.74 1691.3 1253.63 1686.16 1232.39C1685.17 1227.66 1688.6 1228.49 1690.08 1231.89C1697.14 1246.02 1698.11 1262.57 1698.68 1278.33H1698.69ZM1293.57 1664.2C1290.32 1678.12 1305.39 1687.75 1313.46 1696.72C1329.71 1713.96 1267.32 1699.31 1260.42 1706.01C1246.15 1711.26 1259.68 1685.96 1260 1679.4C1264.61 1667.46 1263.04 1649.19 1274.72 1642.54C1279.48 1640.93 1301.15 1627.4 1294.8 1642.27C1293.23 1643.47 1292.54 1644.65 1293.13 1646.64C1295.73 1652.92 1293.16 1657.35 1293.56 1664.22L1293.57 1664.2ZM-77.7209 1276.45C-77.7209 1276.45 -77.7755 1276.45 -77.7973 1276.45C-76.6967 1271.73 -78.8868 1258.26 -74.866 1256.42C-48.6382 1273.58 -25.3306 1297.3 -0.21426 1316.83C7.55493 1323.32 6.84656 1321.88 6.90104 1333.92C6.98821 1335.06 5.99667 1336.21 5.03778 1336.26C-19.7517 1323.55 -43.9636 1308.92 -70.3549 1299.89C-81.8833 1297.87 -77.2197 1285.55 -77.7209 1276.46V1276.45ZM1537.3 896.123C1537.55 900.98 1537.59 903.945 1533.58 906.206C1526.59 910.659 1519.76 915.421 1512.72 919.778C1478.13 940.444 1444.35 962.777 1407.92 979.456C1406.29 980.039 1402.12 982.777 1402.52 979.42C1444 952.599 1485.76 925.039 1520.13 887.635C1530.24 880.099 1507.27 845.528 1509.12 832.195C1510 830.433 1511.39 832.636 1511.88 833.671C1519.66 854.231 1533.85 874.29 1537.32 896.123H1537.3ZM627.815 965.777C647.821 917.492 669.341 868.897 681.022 817.66C682.09 817.386 683.169 819.648 683.343 820.838C686.939 835.338 690.524 849.85 694.109 864.35C694.861 867.183 695.526 870.266 693.608 872.766C672.447 902.587 651.144 932.278 631.542 963.361C630.55 964.48 628.828 968.682 627.804 965.753L627.815 965.777ZM1655.1 787.815C1659.06 787.398 1659.84 792.172 1657.76 794.898C1654.87 799.053 1643.82 817.862 1646.33 801.386C1645.24 796.255 1625.63 812.35 1621.94 813.719C1613.72 819.85 1607.88 823.279 1614.95 834.207C1627.01 857.207 1639.48 880.135 1654.28 901.171C1658.7 907.456 1665.76 895.052 1668.5 891.433C1678.19 880.992 1672.7 899.254 1671.45 904.087C1670.02 910.313 1667.1 916.147 1667.45 922.837C1667.51 924.04 1665.24 925.337 1664.26 924.718C1659.94 921.23 1652.88 919.635 1651.82 913.087C1638.05 885.885 1617.98 861.921 1602.82 835.255C1594.55 824.302 1600.19 814.886 1610.44 809.315C1624.55 800.957 1639.28 791.196 1655.1 787.827V787.815ZM1924.22 1187.97C1923.58 1200.29 1900.49 1169.16 1896.96 1166.62C1889.91 1157.3 1904.15 1141.44 1906.37 1131.13C1914.92 1109.13 1925.12 1088 1934.08 1066.22C1938.42 1056.72 1942.06 1046.84 1945.59 1036.99C1948.24 1033.94 1949.25 1039.78 1948.67 1041.9C1946.47 1056.48 1940.22 1069.87 1935.59 1083.66C1930.79 1100.25 1919.86 1115.66 1919.92 1133.42C1921.25 1151.57 1922.45 1169.89 1924.23 1187.98L1924.22 1187.97ZM958.676 136.69C979.346 138.631 1000.64 149.833 1021.74 153.869C1026.02 155.714 1042.35 157.464 1033.51 164.583C1026.9 169.714 1019.67 173.761 1013.09 178.928C1007.32 181.63 998.143 194.059 993.37 185.166C982.408 168.821 967.338 154.083 958.665 136.679L958.676 136.69ZM745.998 871.814C747.142 860.385 747.513 848.921 747.981 837.469C750.651 832.052 758.649 831.945 763.378 828.933C774.1 824.338 781.259 862.207 781.989 870.635C782.24 877.433 777.925 883.361 776.007 889.647C774.329 894.504 769.338 892.397 766.396 890.314C759.957 884.492 747.567 881.73 745.998 871.826V871.814ZM92.9614 1116C92.8742 1116 92.7871 1115.99 92.6999 1115.98C93.844 1100.09 97.6252 1084.6 100.295 1068.94C104.098 1047.1 106.887 1067.63 109.088 1076.44C109.481 1082.97 130.282 1165.32 121.412 1157.55C108.391 1147.41 90.6949 1136.19 92.9614 1116ZM-140.681 1152.78C-141.106 1157.17 -137.75 1178.03 -143.688 1176.89C-162.506 1164.42 -181.128 1151 -198.944 1136.89C-202.671 1131.68 -161.177 1131.62 -156.154 1129.36C-151.882 1128.81 -147.622 1127.87 -143.307 1127.88C-136.769 1130.85 -141.291 1146.26 -140.692 1152.78H-140.681ZM1574.14 1107.81C1573.37 1091.66 1590.86 1086.23 1599.77 1076.44C1604.86 1072.03 1607.6 1072.98 1609.59 1079.76C1612.51 1089.43 1616.95 1099.53 1612.87 1109.6C1610.76 1114.99 1609.4 1120.8 1606.91 1125.97C1603.75 1129.59 1599.7 1123.2 1596.59 1121.94C1583.35 1114.03 1577.34 1137.23 1574.14 1107.81ZM1015.34 691.899C1017.58 675.256 1017.94 657.233 1027.38 642.828C1029.01 638.709 1044.62 619.483 1047.6 624.662C1046.6 641.531 1037.66 656.971 1036.38 674.066C1034.06 681.852 1036.29 698.078 1028.29 701.268C1022.53 702.458 1015.03 700.006 1015.34 691.887V691.899ZM97.4725 1168.01C95.7073 1147.99 115.746 1172.64 122.033 1175.66C128.124 1180.43 128.222 1180.55 128.626 1188.66C130.718 1196.97 112.706 1201.01 107.149 1203.6C97.2546 1203.02 99.7172 1176.11 97.4835 1168.01H97.4725ZM872.833 886.29C879.11 887.135 865.707 905.266 864.77 909.313C858.374 921.98 851.988 934.67 845.592 947.337C837.409 958.325 850.888 915.456 851.901 913.123C855.998 902.48 861.948 889.587 872.844 886.302L872.833 886.29ZM389.182 491.984C389.433 494.758 382.241 519.353 379.092 509.127C379.484 504.687 378.929 500.413 378.318 496.08C380.084 490.639 378.471 484.937 379.615 479.485C384.9 472.508 389.825 485.996 389.182 491.984ZM71.2448 1220.31C71.5281 1225.99 66.9298 1227.38 63.748 1230.41C57.0685 1233.36 65.3825 1213.67 65.8293 1210.62C69.8174 1203.77 70.8634 1218.22 71.2448 1220.31ZM744.876 806.184C746.347 798.957 751.534 807.505 753.8 809.981C755.238 813.35 751.229 816.314 748.875 817.814C745.17 818.874 746.053 808.684 744.876 806.172V806.184ZM11.761 1040.44C13.962 1040.66 15.0081 1045.55 12.3058 1045.11C9.73421 1044.13 9.48359 1042.03 11.761 1040.44ZM996.595 1589.89C996.563 1589.03 997.205 1588.6 997.707 1588.06C997.99 1589.18 997.772 1589.94 996.868 1590.59C996.781 1590.35 996.693 1590.12 996.606 1589.88L996.595 1589.89ZM1220.14 1088.07L1220.62 1088.45L1220.08 1088.73L1220.13 1088.06L1220.14 1088.07Z" fill="#DDDDDD"/>
<path d="M223.978 12.454C223.182 13.6444 222.507 14.954 221.57 15.9897C218.137 19.7515 214.552 23.3467 211.142 27.1205C206.02 32.799 201.259 38.799 197.107 45.3941C193.74 50.7393 190.188 55.9535 186.418 60.9654C179.738 69.8582 173.157 78.8224 166.88 88.0723C161.563 95.9055 156.485 103.87 151.658 112.072C146.983 120.001 141.884 127.643 137.002 135.429C135.934 137.131 135.041 138.953 133.973 140.667C128.22 149.953 123.087 159.655 117.628 169.143C115.907 172.131 114.348 175.238 112.779 178.333C110.556 182.726 108.432 187.166 106.209 191.559C103.463 196.976 100.641 202.357 97.8729 207.762C97.6114 208.262 97.5133 208.869 97.328 209.416C96.9794 210.452 97.6114 212 98.6139 212.309C100.946 213.023 103.288 213.738 105.653 214.333C116.277 216.988 126.269 221.285 135.509 227.654C143.856 233.404 150.906 240.595 156.452 249.511C157.357 250.975 158.305 252.416 159.275 253.821C160.179 255.142 161.901 255.178 162.74 253.868C164.439 251.213 166.118 248.535 167.708 245.797C171.337 239.583 174.944 233.333 178.507 227.071C180.076 224.321 181.427 221.416 183.029 218.69C185.655 214.226 188.434 209.869 191.07 205.416C195.603 197.75 200.038 190 204.604 182.345C206.217 179.631 208.124 177.119 209.791 174.44C216.307 163.952 222.768 153.417 229.274 142.917C229.568 142.441 230.025 142.072 230.439 141.715C230.636 141.536 230.984 141.346 231.17 141.417C231.627 141.607 232.325 141.869 232.412 142.25C233.382 146.25 233.926 150.274 233.578 154.488C232.967 161.821 232.553 169.155 231.246 176.429C229.84 184.238 228.957 192.166 227.944 200.059C227.454 203.857 227.29 207.678 227.802 211.535C228.108 213.857 228.151 216.238 228.162 218.595C228.184 223.63 228.347 228.642 229.644 233.499C230.527 236.785 230.232 239.964 228.903 242.987C226.8 247.773 224.566 252.487 222.365 257.225C220.295 261.701 218.17 266.154 216.121 270.642C214.901 273.32 214.182 276.166 214.465 279.189C214.52 279.725 214.825 280.558 215.173 280.666C215.871 280.88 216.775 280.927 217.407 280.606C218.355 280.106 219.205 279.297 219.979 278.487C221.145 277.261 222.245 275.951 223.313 274.63C225.678 271.725 228.304 269.285 231.78 268.023C233.294 267.475 234.656 266.428 236.04 265.511C245.302 259.392 254.848 253.904 264.883 249.44C270.397 246.987 275.649 243.975 280.672 240.452C285.379 237.154 288.779 232.773 290.98 227.166C293.334 221.178 295.175 215.023 296.679 208.738C299.087 198.714 300.297 188.476 301.419 178.214C302.378 169.429 303.478 160.643 304.067 151.822C304.633 143.298 304.775 134.727 304.808 126.179C304.83 120.286 304.339 114.405 304.078 108.513C304.056 107.929 303.903 107.322 303.958 106.751C304.819 97.215 302.552 88.0008 301.495 78.6676C300.929 73.6676 298.641 69.3344 295.84 65.1796C293.16 61.2035 290.065 58.513 285.794 56.9059C279.67 54.5964 274.047 50.9774 268.359 47.6322C265.319 45.8465 262.671 43.1799 260.078 40.6204C258.934 39.4894 258.095 37.7632 257.594 36.1323C255.436 29.1443 253.442 22.1086 251.459 15.0611C251.241 14.2635 251.502 13.3111 251.546 12.4302C242.349 12.4302 233.153 12.4302 223.956 12.4302L223.978 12.454Z" fill="#DDDDDD"/>
<path d="M462.482 40.6567C462.482 40.6567 462.6 40.8197 462.6 40.808L462.482 40.6567Z" fill="#DDDDDD"/>
<path d="M1474.63 26.6178L1474.94 26.0967L1474.74 26.5942L1474.63 26.6178Z" fill="#DDDDDD"/>
</g>
<defs>
<clipPath id="clip0_87_61">
<rect width="1756" height="232" fill="white"/>
</clipPath>
</defs>
</svg>
