<svg width="50" height="49" viewBox="0 0 50 49" fill="none" xmlns="http://www.w3.org/2000/svg">
<circle cx="24.9822" cy="24.3215" r="24.1536" fill="#928C85"/>
<path d="M24.9825 12.1924C21.691 12.1924 21.2771 12.2075 19.9838 12.2652C18.6906 12.3258 17.8097 12.529 17.038 12.8292C16.2282 13.1329 15.4948 13.6106 14.8897 14.2285C14.2717 14.8337 13.794 15.567 13.4903 16.3769C13.1901 17.1471 12.9854 18.0294 12.9263 19.3181C12.8687 20.6144 12.8535 21.0268 12.8535 24.3229C12.8535 27.6159 12.8687 28.0283 12.9263 29.3215C12.9869 30.6132 13.1901 31.4941 13.4903 32.2658C13.8011 33.0633 14.215 33.7395 14.8897 34.4141C15.5628 35.0888 16.239 35.5042 17.0365 35.8135C17.8097 36.1137 18.6891 36.3184 19.9808 36.3775C21.2756 36.4351 21.6879 36.4503 24.9825 36.4503C28.277 36.4503 28.6879 36.4351 29.9826 36.3775C31.2729 36.3169 32.1568 36.1137 32.9285 35.8135C33.7378 35.5096 34.4706 35.0319 35.0753 34.4141C35.75 33.7395 36.1639 33.0633 36.4747 32.2658C36.7733 31.4941 36.978 30.6132 37.0387 29.3215C37.0963 28.0283 37.1114 27.6159 37.1114 24.3213C37.1114 21.0268 37.0963 20.6144 37.0387 19.3197C36.978 18.0294 36.7733 17.1471 36.4747 16.3769C36.1709 15.567 35.6933 14.8337 35.0753 14.2285C34.4701 13.6106 33.7368 13.1329 32.9269 12.8292C32.1537 12.529 31.2713 12.3243 29.9811 12.2652C28.6864 12.2075 28.2755 12.1924 24.9794 12.1924H24.9825ZM23.8954 14.3786H24.984C28.2224 14.3786 28.606 14.3892 29.8841 14.4484C31.0667 14.5014 31.7095 14.7 32.137 14.8653C32.7026 15.0851 33.1074 15.3489 33.5319 15.7735C33.9564 16.198 34.2187 16.6013 34.4385 17.1683C34.6053 17.5943 34.8024 18.2372 34.8554 19.4197C34.9146 20.6978 34.9267 21.0814 34.9267 24.3183C34.9267 27.5552 34.9146 27.9403 34.8554 29.2184C34.8024 30.401 34.6038 31.0423 34.4385 31.4698C34.2427 31.9958 33.9325 32.4717 33.5304 32.8632C33.1058 33.2877 32.7026 33.55 32.1355 33.7698C31.711 33.9366 31.0682 34.1337 29.8841 34.1882C28.606 34.2459 28.2224 34.2595 24.984 34.2595C21.7456 34.2595 21.3605 34.2459 20.0824 34.1882C18.8998 34.1337 18.2585 33.9366 17.8309 33.7698C17.3046 33.5746 16.8282 33.2649 16.4361 32.8632C16.0332 32.4714 15.7225 31.995 15.5264 31.4683C15.3612 31.0423 15.1626 30.3995 15.1095 29.2169C15.0519 27.9388 15.0398 27.5552 15.0398 24.3153C15.0398 21.0753 15.0519 20.6948 15.1095 19.4167C15.1641 18.2341 15.3612 17.5913 15.528 17.1637C15.7478 16.5982 16.0116 16.1934 16.4361 15.7689C16.8606 15.3444 17.2639 15.0821 17.8309 14.8623C18.2585 14.6955 18.8998 14.4984 20.0824 14.4438C21.2013 14.3923 21.6349 14.3771 23.8954 14.3756V14.3786ZM31.4578 16.392C31.2667 16.392 31.0774 16.4297 30.9008 16.5028C30.7242 16.576 30.5638 16.6832 30.4286 16.8183C30.2935 16.9535 30.1863 17.1139 30.1131 17.2905C30.04 17.4671 30.0023 17.6564 30.0023 17.8475C30.0023 18.0386 30.04 18.2279 30.1131 18.4045C30.1863 18.5811 30.2935 18.7415 30.4286 18.8767C30.5638 19.0118 30.7242 19.119 30.9008 19.1922C31.0774 19.2653 31.2667 19.303 31.4578 19.303C31.8438 19.303 32.214 19.1496 32.487 18.8767C32.7599 18.6037 32.9133 18.2335 32.9133 17.8475C32.9133 17.4615 32.7599 17.0913 32.487 16.8183C32.214 16.5454 31.8438 16.392 31.4578 16.392ZM24.984 18.0931C24.1578 18.0802 23.3373 18.2318 22.5703 18.5391C21.8033 18.8463 21.105 19.3031 20.5162 19.8828C19.9274 20.4625 19.4598 21.1535 19.1406 21.9157C18.8214 22.6778 18.6571 23.4958 18.6571 24.3221C18.6571 25.1484 18.8214 25.9664 19.1406 26.7285C19.4598 27.4907 19.9274 28.1817 20.5162 28.7614C21.105 29.3411 21.8033 29.7979 22.5703 30.1051C23.3373 30.4124 24.1578 30.564 24.984 30.5511C26.6192 30.5256 28.1788 29.8581 29.3261 28.6927C30.4735 27.5273 31.1165 25.9575 31.1165 24.3221C31.1165 22.6867 30.4735 21.1169 29.3261 19.9515C28.1788 18.7861 26.6192 18.1186 24.984 18.0931ZM24.984 20.2778C25.515 20.2778 26.0408 20.3824 26.5314 20.5856C27.0219 20.7888 27.4677 21.0867 27.8432 21.4622C28.2186 21.8376 28.5165 22.2834 28.7197 22.774C28.9229 23.2645 29.0275 23.7903 29.0275 24.3213C29.0275 24.8523 28.9229 25.3781 28.7197 25.8687C28.5165 26.3593 28.2186 26.805 27.8432 27.1805C27.4677 27.556 27.0219 27.8538 26.5314 28.057C26.0408 28.2602 25.515 28.3648 24.984 28.3648C23.9116 28.3648 22.8831 27.9388 22.1248 27.1805C21.3665 26.4222 20.9405 25.3937 20.9405 24.3213C20.9405 23.2489 21.3665 22.2205 22.1248 21.4622C22.8831 20.7039 23.9116 20.2778 24.984 20.2778Z" fill="black"/>
</svg>
