<svg width="51" height="52" viewBox="0 0 51 52" fill="none" xmlns="http://www.w3.org/2000/svg">
<circle cx="25.4533" cy="25.9499" r="25.0641" fill="#FF0009"/>
<path d="M25.4534 13.3638C22.0378 13.3638 21.6083 13.3795 20.2663 13.4393C18.9243 13.5022 18.0102 13.713 17.2094 14.0245C16.3691 14.3397 15.6081 14.8354 14.9801 15.4767C14.3388 16.1046 13.8431 16.8656 13.528 17.706C13.2165 18.5052 13.0041 19.4209 12.9427 20.7582C12.8829 22.1033 12.8672 22.5312 12.8672 25.9515C12.8672 29.3687 12.8829 29.7966 12.9427 31.1386C13.0056 32.4791 13.2165 33.3931 13.528 34.1939C13.8505 35.0215 14.28 35.7232 14.9801 36.4233C15.6786 37.1234 16.3803 37.5544 17.2079 37.8754C18.0102 38.1869 18.9227 38.3993 20.2632 38.4607C21.6067 38.5204 22.0347 38.5362 25.4534 38.5362C28.8721 38.5362 29.2985 38.5204 30.6421 38.4607C31.9809 38.3977 32.8981 38.1869 33.6989 37.8754C34.5387 37.56 35.2992 37.0643 35.9267 36.4233C36.6268 35.7232 37.0563 35.0215 37.3788 34.1939C37.6888 33.3931 37.9011 32.4791 37.9641 31.1386C38.0239 29.7966 38.0396 29.3687 38.0396 25.95C38.0396 22.5312 38.0239 22.1033 37.9641 20.7597C37.9011 19.4209 37.6888 18.5052 37.3788 17.706C37.0636 16.8656 36.568 16.1046 35.9267 15.4767C35.2987 14.8354 34.5377 14.3397 33.6974 14.0245C32.895 13.713 31.9793 13.5006 30.6405 13.4393C29.2969 13.3795 28.8705 13.3638 25.4502 13.3638H25.4534ZM24.3254 15.6324H25.455C28.8155 15.6324 29.2135 15.6434 30.5398 15.7048C31.7669 15.7599 32.434 15.966 32.8777 16.1375C33.4645 16.3656 33.8846 16.6393 34.3251 17.0798C34.7656 17.5204 35.0378 17.9389 35.2659 18.5273C35.439 18.9693 35.6435 19.6364 35.6986 20.8636C35.7599 22.1898 35.7725 22.5879 35.7725 25.9468C35.7725 29.3058 35.7599 29.7054 35.6986 31.0316C35.6435 32.2588 35.4374 32.9243 35.2659 33.368C35.0627 33.9137 34.7408 34.4076 34.3235 34.8138C33.883 35.2543 33.4645 35.5265 32.8761 35.7546C32.4356 35.9277 31.7685 36.1322 30.5398 36.1888C29.2135 36.2486 28.8155 36.2628 25.455 36.2628C22.0944 36.2628 21.6948 36.2486 20.3686 36.1888C19.1414 36.1322 18.4759 35.9277 18.0322 35.7546C17.4861 35.5521 16.9917 35.2307 16.5848 34.8138C16.1668 34.4073 15.8443 33.9129 15.6409 33.3664C15.4694 32.9243 15.2633 32.2572 15.2082 31.0301C15.1484 29.7038 15.1359 29.3058 15.1359 25.9437C15.1359 22.5816 15.1484 22.1867 15.2082 20.8604C15.2649 19.6333 15.4694 18.9662 15.6424 18.5225C15.8706 17.9357 16.1443 17.5156 16.5848 17.0751C17.0254 16.6346 17.4438 16.3624 18.0322 16.1343C18.4759 15.9612 19.1414 15.7567 20.3686 15.7001C21.5296 15.6466 21.9796 15.6309 24.3254 15.6293V15.6324ZM32.1728 17.7217C31.9745 17.7217 31.7781 17.7608 31.5949 17.8367C31.4116 17.9126 31.2451 18.0239 31.1049 18.1641C30.9646 18.3044 30.8534 18.4709 30.7775 18.6541C30.7016 18.8373 30.6625 19.0337 30.6625 19.2321C30.6625 19.4304 30.7016 19.6268 30.7775 19.8101C30.8534 19.9933 30.9646 20.1598 31.1049 20.3001C31.2451 20.4403 31.4116 20.5516 31.5949 20.6275C31.7781 20.7034 31.9745 20.7424 32.1728 20.7424C32.5734 20.7424 32.9576 20.5833 33.2408 20.3001C33.5241 20.0168 33.6832 19.6327 33.6832 19.2321C33.6832 18.8315 33.5241 18.4474 33.2408 18.1641C32.9576 17.8809 32.5734 17.7217 32.1728 17.7217ZM25.455 19.487C24.5976 19.4736 23.7462 19.6309 22.9503 19.9497C22.1543 20.2686 21.4298 20.7425 20.8188 21.3441C20.2078 21.9456 19.7225 22.6627 19.3913 23.4536C19.0601 24.2445 18.8895 25.0933 18.8895 25.9508C18.8895 26.8082 19.0601 27.657 19.3913 28.4479C19.7225 29.2388 20.2078 29.9559 20.8188 30.5574C21.4298 31.159 22.1543 31.633 22.9503 31.9518C23.7462 32.2706 24.5976 32.4279 25.455 32.4146C27.1518 32.3881 28.7702 31.6954 29.9608 30.4861C31.1514 29.2768 31.8187 27.6478 31.8187 25.9508C31.8187 24.2537 31.1514 22.6247 29.9608 21.4154C28.7702 20.2061 27.1518 19.5134 25.455 19.487ZM25.455 21.754C26.006 21.754 26.5516 21.8626 27.0607 22.0734C27.5697 22.2843 28.0323 22.5934 28.4219 22.983C28.8116 23.3726 29.1206 23.8352 29.3315 24.3443C29.5424 24.8533 29.6509 25.399 29.6509 25.95C29.6509 26.501 29.5424 27.0466 29.3315 27.5557C29.1206 28.0648 28.8116 28.5273 28.4219 28.9169C28.0323 29.3066 27.5697 29.6156 27.0607 29.8265C26.5516 30.0374 26.006 30.1459 25.455 30.1459C24.3421 30.1459 23.2749 29.7038 22.488 28.9169C21.7011 28.13 21.259 27.0628 21.259 25.95C21.259 24.8371 21.7011 23.7699 22.488 22.983C23.2749 22.1961 24.3421 21.754 25.455 21.754Z" fill="white"/>
</svg>
