<svg width="989" height="457" viewBox="0 0 989 457" fill="none" xmlns="http://www.w3.org/2000/svg">
<g clip-path="url(#clip0_230_52)">
<path d="M-1595.09 1842.53C-1620.55 1815.48 -1628.4 1798.25 -1616.87 1761.88C-1605.03 1719.17 -1566.24 1678.09 -1583.03 1631.79C-1583.2 1628.35 -1592.72 1615.08 -1590.98 1625.59C-1587.36 1635.48 -1591.24 1661.8 -1599 1659.48C-1621.55 1649.87 -1644.61 1639.47 -1663.63 1623.84C-1704.03 1586.4 -1699.6 1544.95 -1653 1516.1C-1649.12 1513.78 -1647.9 1509.39 -1645.97 1505.61C-1625.61 1468.23 -1574.43 1472.03 -1542.61 1491.77C-1491.17 1522.1 -1449.35 1565.95 -1407.19 1607.6C-1384.92 1628.97 -1394.87 1611.99 -1402.08 1596.21C-1410.07 1579.61 -1418.14 1563.03 -1426.3 1546.53C-1452.86 1493.68 -1478.63 1440.15 -1511.64 1391.23C-1518.07 1380.51 -1523.27 1369.14 -1530.67 1358.99C-1534.83 1351.65 -1544.22 1343.08 -1533.78 1336.52C-1521.42 1324.26 -1510.9 1310.2 -1498.99 1297.47C-1490.99 1285.75 -1514.46 1305.52 -1516.81 1307.51C-1558.24 1345.96 -1601.38 1382.93 -1639.07 1425.14C-1652.08 1443.23 -1657.98 1465.68 -1671.97 1483.4C-1687.04 1506.31 -1687.01 1503.5 -1709.57 1490.5C-1720.71 1485.52 -1725.58 1474.61 -1722.88 1462.82C-1719.62 1440.02 -1719.41 1416.88 -1715.21 1394.22C-1710.14 1373.46 -1705.19 1352.67 -1700.83 1331.76C-1671.76 1177.64 -1681.67 1019.78 -1697.29 864.348C-1702.89 824.559 -1701.51 784.212 -1705.73 744.29C-1712.46 690.777 -1718.93 637.212 -1724.94 583.606C-1727.93 562.445 -1731.9 541.417 -1734.63 520.216C-1737.14 505.552 -1733.72 499.161 -1727.25 486.313C-1719.01 472.484 -1703.09 465.086 -1691.47 454.253C-1685.51 449.533 -1679.02 445.662 -1671.97 442.771C-1665.01 436.009 -1670.3 482.614 -1669.41 485.478C-1670.11 538.023 -1674.65 590.899 -1669.27 643.271C-1665.45 680.21 -1660.29 717.056 -1654.63 753.743C-1647.02 766.459 -1652.32 735.897 -1652.23 732.662C-1653.73 715.293 -1654.11 697.844 -1655.25 680.475C-1655.44 677.479 -1656.2 672.759 -1652.23 672.48C-1642.48 673.886 -1632.5 674.456 -1623.17 677.876C-1610.94 682.411 -1611.19 682.239 -1609.21 694.238C-1603.85 729.705 -1602.95 765.663 -1600.14 801.382C-1597.37 851.302 -1594.9 901.261 -1591.28 951.141C-1588.3 979.925 -1586.86 1010.33 -1573.79 1036.5C-1571.88 1040.08 -1568.47 1036.81 -1566.57 1035.1C-1562.16 1030.61 -1560.4 1032.97 -1555.95 1036.41C-1546.64 1040.24 -1544 1050.13 -1541.91 1058.87C-1530.58 1104.12 -1510.22 1146.91 -1500.33 1192.57C-1498.12 1204.03 -1490.87 1211.53 -1481.88 1199.9C-1460.56 1175.76 -1439.82 1149.15 -1426.98 1119.67L-1426.8 1119.83C-1435.51 1122.42 -1472.36 1185.09 -1476.93 1167.44C-1489.04 1122.72 -1503.32 1078.56 -1516.29 1034.15C-1535.91 971.745 -1556.11 909.813 -1577.71 848.04C-1585.05 828.669 -1584.19 807.906 -1584.92 787.593C-1586.66 753.452 -1585.69 719.058 -1590.48 685.156C-1595.44 656.106 -1621.12 638.286 -1639.38 617.443C-1665.4 585.529 -1652.29 538.699 -1653.6 500.659C-1651.1 449.401 -1649.51 398.089 -1647.45 346.804C-1646.44 333.691 -1619.86 323.787 -1608.56 328.719C-1599.88 332.06 -1597.14 343.065 -1591.97 350.105C-1584.04 364.146 -1576.27 378.28 -1568.44 392.374C-1539.38 445.118 -1512.14 498.816 -1484.77 552.461C-1430.75 656.397 -1458.91 641.6 -1428.69 550.287C-1422.3 531.91 -1412.62 514.965 -1405.41 496.933C-1400.76 482.879 -1439.09 427.736 -1449.94 416.837C-1451.81 418.203 -1450.06 420.244 -1449.56 421.902C-1439.83 444.641 -1426.3 465.404 -1414.95 487.308C-1413.13 497.636 -1422.18 507.713 -1424.79 517.684C-1426.28 521.316 -1429.09 531.977 -1433.55 524.976C-1439.06 515.244 -1443.83 505.101 -1449.11 495.236C-1476.32 445.317 -1500.51 393.422 -1530.62 345.226C-1531.61 343.94 -1532.45 342.508 -1533.29 341.116C-1534.48 338.57 -1531.6 336.223 -1529.66 334.898C-1517.94 326.399 -1506.29 317.767 -1494.68 309.122C-1491.37 307.027 -1490.11 311.695 -1488.61 313.75C-1471.1 343.927 -1453.79 374.21 -1436.05 404.254C-1412.56 443.898 -1388.97 483.489 -1365.18 522.934C-1362.72 526.381 -1361.65 529.961 -1363.72 533.979C-1375.62 580.305 -1376.82 628.474 -1377.49 676.047C-1380.49 687.688 -1432.24 692.09 -1440.17 709.446C-1442.57 712.23 -1444.65 722.453 -1449.01 716.778C-1482.22 642.25 -1517.81 568.717 -1557 497.119C-1567.02 478.981 -1576.87 460.724 -1587.89 443.156C-1589.1 441.233 -1590 439.006 -1592.23 437.932C-1592.79 437.627 -1593.73 438.104 -1593.88 438.595C-1581.23 485.69 -1561.26 531.048 -1547.19 577.839C-1527.54 638.604 -1512.76 700.735 -1495.65 762.163C-1490.63 775.7 -1491.15 774.546 -1480.79 780.592C-1476 782.701 -1468.74 790.855 -1464.67 784.252C-1448.98 761.513 -1435.39 737.356 -1421.05 713.755C-1409.97 696.956 -1381.71 695.126 -1363.83 687.768C-1247.69 654.408 -1120.07 640.898 -1002.02 671.618C-979.398 675.278 -955.514 706.635 -933.156 698.388C-906.245 687.714 -885.136 667.415 -862.978 649.45C-823.295 615.467 -789.294 571.859 -782.643 518.731C-781.063 506.467 -778.62 492.545 -783.227 480.851C-787.661 499.492 -788.949 520.388 -796.583 538.898C-816.776 592.662 -858.822 638.073 -908.874 665.493C-916.561 670.73 -918.897 676.445 -927.009 668.237C-960.439 641.07 -992.448 612.298 -1026.63 586.059C-1065.15 558.149 -1055.5 567.258 -1052.68 523.159C-1050.61 477.297 -1050.16 431.077 -1053.72 385.321C-1056.6 384.472 -1056.31 401.589 -1056.88 404.652C-1057.67 426.715 -1059.96 448.618 -1063.3 470.429C-1068.81 509.569 -1078.65 547.967 -1093.37 584.68C-1102.88 610.429 -1116.41 595.049 -1128.37 581.1C-1144.81 563.095 -1160.3 544.294 -1175.37 525.148C-1243.87 439.364 -1266.99 398.474 -1198.52 528.622C-1114.84 675.013 -1081.97 615.122 -1253.31 646.97C-1257.75 647.156 -1263.92 650.497 -1267.53 647.222C-1275.02 636.854 -1284.01 627.36 -1289.74 615.852C-1319.51 564.686 -1353.62 516.039 -1384.79 465.696C-1424.38 403.472 -1459.6 338.636 -1495.06 274.013C-1518.35 229.861 -1540.48 182.991 -1546.87 133.098C-1543.61 103.067 -1535.41 42.5672 -1499.84 36.3356C-1489.34 36.2295 -1479.52 54.6062 -1472.36 61.6864C-1460.11 77.1329 -1449.76 94.1838 -1437.01 109.14C-1437.01 109.113 -1437.18 109.325 -1437.18 109.325C-1436.33 106.647 -1437.11 104.154 -1438.01 101.662C-1445.22 81.6012 -1452.06 61.3815 -1460.2 41.6656C-1464.33 28.1947 -1476.57 14.6309 -1472.39 0.165527H-1420.98C-1402.95 32.0795 -1378.24 60.2147 -1359.42 91.7441C-1348.57 108.225 -1337.73 124.692 -1326.89 141.186C-1320.97 148.545 -1330.45 153.371 -1336.98 153.61C-1351.78 154.485 -1366.61 155.161 -1380.98 150.189C-1381.84 149.977 -1383.09 149.672 -1383.78 150.216C-1383.9 150.746 -1384.1 151.594 -1383.83 151.833C-1355.2 179.213 -1316.51 186.094 -1279.87 196.449C-1249.76 204.974 -1218.82 209.907 -1189.96 222.556C-1176.78 226.626 -1171.51 238.824 -1169.93 251.473C-1165.37 267.662 -1162.96 284.249 -1160.3 300.809C-1153.53 340.108 -1148.9 380.495 -1141 419.237C-1138.38 379.487 -1142.28 338.358 -1139.5 298.157C-1139.74 271.998 -1135.99 215.542 -1162.23 201.487C-1239.04 175.328 -1208.35 203.277 -1239.39 128.803C-1244.22 119.826 -1235.82 114.218 -1229.9 108.715C-1207.76 88.5488 -1185.27 68.7799 -1162.12 49.78L-1161.79 49.475L-1162.07 49.9524C-1177.73 55.4548 -1191.95 65.2796 -1206.09 74.0039C-1208.8 75.4491 -1214.41 80.2885 -1215.77 75.2104C-1216.41 63.5957 -1222.55 50.1115 -1214.59 39.8624C-1207.31 29.441 -1194.7 26.3649 -1183.39 22.1884C-1165.94 16.1689 -1148.06 11.7405 -1129.94 8.29318C-1119.62 5.54861 -1107.86 6.07896 -1098.7 0.165527H-1092.76C-1067.43 47.2343 -1047.8 99.1823 -1012.59 139.927C-960.97 201.196 -909.272 262.597 -857.76 323.747L-857.946 323.866C-879.639 276.148 -916.335 236.199 -948.158 194.831C-992.236 138.481 -1035.74 79.1085 -1068.44 15.9435L-1068.57 15.917C-1045.79 29.6133 -1021.62 41.7717 -1002.14 60.1484C-968.538 112.64 -936.502 166.643 -896.673 215.038C-836.505 289.658 -774.916 364.862 -698.325 423.4C-675.556 438.794 -658.323 460.498 -636.046 476.488C-630.934 481.182 -620.38 485.412 -629.474 492.001C-675.237 540.25 -727.055 585.913 -769.672 635.621C-767.242 637.251 -764.507 632.995 -762.436 631.974C-752.28 623.582 -742.176 615.136 -732.033 606.73C-728.197 603.508 -723.311 598.615 -720.695 605.669C-715.73 617.947 -707.95 628.673 -701.193 639.93C-694.329 653.149 -608.285 778.14 -642.989 704.169C-655.934 673.315 -669.608 642.542 -687.478 614.168C-689.323 604.807 -707.22 587.809 -700.091 579.92C-672.277 555.219 -643.52 531.552 -616.994 505.419C-613.98 502.94 -610.781 497.384 -606.559 501.402C-600.001 506.904 -593.442 512.393 -587.03 518.068C-559.056 544.559 -528.893 568.425 -500.256 594.174C-483.116 607.552 -469.043 624.417 -451.744 637.636C-434.086 651.876 -419.589 669.789 -401.387 683.366C-398.718 685.248 -395.293 683.153 -394.297 680.343C-387.858 664.154 -389.013 652.035 -402.821 640.712C-414.491 628.713 -426.771 617.363 -438.853 605.788C-524.352 532.772 -604.01 446.789 -709.304 401.908C-724.028 394.257 -730.467 377.061 -740.889 364.796C-805.239 271.945 -879.467 186.531 -946.818 95.9339C-972.706 61.1163 -915.671 100.362 -907.281 106.514C-891.03 115.066 -851.865 155.731 -836.637 150.534C-822.525 146.026 -808.067 142.751 -793.728 139.304C-776.23 133.96 -794.127 123.671 -800.858 117.466C-805.823 114.218 -809.554 109.272 -814.24 105.852C-820.786 103.08 -825.087 97.3394 -830.929 93.6534C-835.801 90.6171 -835.336 83.5767 -830.889 80.2488C-819.352 68.939 -810.098 55.5874 -798.627 44.2246C-796.49 41.5595 -793.051 42.9915 -790.369 43.8003C-785.006 43.6809 -781.116 46.5183 -777.292 49.8065C-765.078 60.3473 -752.771 70.782 -740.464 81.2034C-736.428 85.3799 -724.227 93.1628 -733.149 81.9194C-754.311 58.8755 -778.062 38.3774 -800.074 16.2219C-802.292 8.78375 -775.673 3.61282 -771.305 8.29318C-733.587 32.3049 -696.559 57.5364 -659.12 82.0917C-652.19 86.4008 -645.644 94.6346 -636.577 92.3938C-626.009 89.9807 -615.149 88.8272 -604.979 84.6109C-560.198 71.4847 -514.528 61.8057 -469.07 51.1722C-443.698 46.0278 -418.434 38.563 -392.691 35.898C-385.827 36.4019 -377.357 46.5316 -378.552 53.466C-380.344 60.9704 -373.069 67.2021 -375.923 74.4679C-377.37 79.8643 -373.825 85.3534 -374.742 90.9221C-374.808 91.6778 -373.201 92.2347 -372.338 91.9165C-362.248 87.1964 -365.528 50.191 -353.725 40.3795C-335.125 24.522 -310.67 11.0908 -285.511 15.201C-281.475 15.9568 -277.731 15.7314 -273.961 14.021C-261.056 8.17385 -247.355 6.82145 -233.402 7.40484C-226.697 8.42577 -206.385 7.07337 -217.603 17.6672C-222.449 24.986 -235.632 32.9943 -231.981 42.8324C-227.043 52.9886 -218.347 60.4666 -211.509 69.2837C-207.088 73.0625 -190.865 96.8753 -185.859 89.6095C-184.16 66.0618 -189.67 41.7319 -193.852 18.4229C-188.568 8.13407 -158.497 44.6091 -154.408 49.8993C-144.968 59.4589 -137.733 79.7449 -123.819 81.7603C-103.825 83.6298 -83.8974 86.1489 -64.2485 89.9675C-50.7598 90.9221 -37.3507 92.4336 -24.0611 94.913C-20.2375 96.1328 -12.2451 95.4964 -14.5153 89.8481C-22.4015 79.2941 -31.9207 70.1323 -38.6783 58.743C-45.0377 52.4715 -49.8171 44.9008 -55.6189 38.1918C-57.6103 33.8694 -67.6605 29.2686 -63.1996 24.0844C-34.8281 16.8849 -3.45626 22.3608 24.3842 30.2763C32.8943 33.9092 43.6482 35.1953 49.8482 42.4611C60.0046 55.8128 70.5327 68.9522 80.2377 82.5956C100.71 112.03 121.394 141.266 140.857 171.416C156.019 194.937 169.335 219.559 187.218 241.264C213.877 272.289 237.708 310.157 265.203 338.172C241.412 290.176 209.841 244.777 182.173 198.438C164.117 169.335 144.136 141.518 124.129 113.754C112.512 94.7406 88.5885 76.1518 95.7046 51.676C102.064 40.9231 111.928 23.8723 126.413 26.7892C144.216 32.2651 158.196 47.3934 175.044 53.983C169.096 39.0536 151.319 40.1011 156.616 30.6343C159.896 27.4522 160.519 35.434 164.688 31.5889L164.529 31.748C173.889 32.517 181.469 38.6824 189.369 43.2036C203.402 53.0152 219.055 60.2942 233.167 69.9334C267.168 93.1628 300.824 116.737 329.646 146.437C337.546 154.684 334.2 168.049 336.218 178.523C340.772 212.32 341.33 258.142 377.269 274.384C420.669 289.446 434.304 288.876 469.247 323.11C488.564 344.895 500.659 372.526 515.209 397.638C531.977 431.143 549.25 464.529 563.88 499.028C652.035 713.516 683.101 949.404 664.966 1179.97C664.634 1186.51 662.922 1193.01 664.037 1199.54C664.116 1200.33 665.789 1201.06 666.48 1200.64C675.999 1194.31 683.553 1185.22 692.342 1177.85C702.219 1172.34 683.832 1098.84 731.48 1134.58C754.727 1154.85 777.854 1176.1 806 1189.43C815.652 1195.37 811.244 1168.74 810.514 1164.95C806.704 1054.85 795.698 944.803 787.427 834.821C782.395 791.16 778.957 747.154 776.753 703.201C773.832 659.38 774.071 614.857 784.32 572.071C789.086 547.542 798.446 524.061 809.492 501.746C814.988 494.348 819.078 485.995 825.052 478.941C829.128 474.089 827.8 469.395 820.949 469.156C768.933 465.749 717.859 451.734 671.325 428.293C663.081 426.145 665.789 438.9 665.431 443.726C667.86 501.945 664.568 560.178 666.918 618.397C667.422 637.822 667.356 657.219 666.48 676.63C667.475 686.561 661.607 710.148 671.591 714.882C676.822 721.259 660.598 728.154 655.752 722.744C626.398 690.433 626.797 642.688 619.309 601.957C615.193 568.014 608.09 534.509 601.744 500.898C591.681 460.1 588.853 417.434 575.776 377.498C573.214 363.643 565.619 351.909 557.614 340.798C551.201 324.688 540.54 308.367 543.82 290.494C566.708 228.177 660.133 249.63 654.69 222.145C650.88 217.239 643.897 215.025 642.343 208.581C641.427 206.022 638.506 203.914 636.595 201.951C612.472 177.383 592.464 148.704 574.063 119.654C567.332 104.062 535.735 71.4582 558.968 60.3605C563.986 56.1045 574.86 55.2824 574.634 47.3139C574.528 41.1883 581.763 43.1506 585.295 45.2455C622.654 65.8099 658.514 90.2194 690.39 118.5C714.699 139.197 735.928 163.063 760.635 183.442C776.7 197.576 792.352 212.187 808.828 225.844C821.494 239.01 846.931 251.99 850.609 270.327C849.839 278.72 856.132 286.224 853.715 294.498C852.228 303.792 859.53 322.912 846.015 325.696C842.165 325.802 838.872 327.366 837.12 330.867C834.385 337.085 826.618 335.255 822.29 339.618C807.434 350.994 788.901 342.72 773.128 337.974C766.251 334.725 691.572 313.312 695.701 325.364C723.475 346.393 756.798 359.347 789.763 370.007C834.584 381.767 881.489 384.751 927.625 382.152C946.251 377.167 975.645 376.742 977.557 401.908C977.066 409.929 982.602 417.076 980.996 425.044C980.544 426.9 980.571 429.009 980.916 430.905C982.323 439.96 982.642 449.732 976.92 457.396C972.007 459.491 966.524 459.809 963.086 464.436C961.904 465.895 960.085 467.181 958.306 467.738C949.438 470.442 942.826 478.597 932.935 477.562C923.655 477.761 912.543 472.604 906.263 482.004C847.037 559.913 861.947 666.156 868.797 757.787C876.803 830.711 881.463 903.886 887.849 976.969C891.075 1040.68 895.005 1104.43 897.461 1168.11C902.386 1226.83 883.162 1219.09 940.728 1226.65C958.041 1230.52 977.929 1228.49 993.462 1237.57C1009.17 1253.76 980.026 1268.5 968.675 1277.03C955.784 1288.6 900.262 1318.5 899.386 1330.75C898.536 1359.01 897.66 1387.33 897.58 1415.57C897.992 1419.87 902.731 1420.05 906.117 1420.41C914.269 1421.63 922.327 1423.21 930.121 1426C957.337 1434.48 975.406 1456.46 987.089 1481.44C988.696 1484.34 989.546 1487.55 989.121 1490.95L989.174 1490.89C971.344 1465.58 954.323 1445.08 921.053 1440.78C914.162 1440.54 901.006 1435.92 897.142 1443.24C892.323 1508.01 891.048 1573.27 884.742 1638.04C871.585 1792.36 851.95 1949.78 789.272 2092.71C800.902 2020.32 814.072 1948.07 819.516 1874.84C825.57 1791.22 827.508 1707.28 827.521 1623.49C826.698 1570.94 828.119 1518.14 824.003 1465.74C824.693 1453.24 775.12 1484.4 768.614 1486.86C724.165 1512.29 680.725 1537.3 639.077 1567.38C617.052 1584.35 594.243 1599.6 569.124 1611.47C563.177 1615.54 552.715 1613.87 552.277 1605.4C570.346 1537.35 638.493 1494.74 690.058 1451.78C697.108 1446.2 696.856 1447.03 696.723 1437.75C696.617 1430.84 696.258 1423.94 696.033 1417.04C693.842 1348.02 692.276 1278.83 696.272 1209.85C696.073 1207.29 697.44 1200.23 693.577 1200.92C684.469 1208.88 660.319 1225.03 659.603 1236.52C657.81 1253.81 652.447 1271.21 658.74 1288.18C666.719 1323.06 680.048 1358.2 683.181 1393.56C669.215 1425.09 640.312 1354.78 632.744 1379.11C619.057 1423.98 595.372 1483.99 551.879 1506.84C540.833 1513.01 526.056 1508.26 521.038 1496.58C507.854 1451.29 508.093 1402.76 500.645 1356.22C495.401 1318.42 491.485 1280.46 486.493 1242.64C484.076 1221.06 481.607 1199.5 477.611 1178.16C476.947 1175.52 477.106 1166.48 473.482 1167.75C465.782 1269.82 460.086 1372.53 452.957 1474.81C452.97 1485.6 447.872 1504.66 433.56 1496.75C427.108 1492.35 425.846 1483.84 423.828 1476.84C417.947 1452.88 412.53 1428.82 408.109 1404.54C406.649 1402.18 400.33 1347.18 396.918 1359.31C396.267 1427.42 401.923 1498.09 387.027 1564.63C385.168 1570.99 378.848 1578.56 374.972 1567.69C368.427 1551.53 362.943 1534.98 357.181 1518.51C347.41 1490.92 336.749 1463.65 325.703 1436.55C302.616 1379.06 272.226 1325.15 239.075 1273.06C229.928 1258.31 220.09 1243.79 209.443 1230.05C205.234 1225.28 203.867 1219.79 204.876 1213.55C208.659 1186.14 207.093 1158.15 201.623 1131.1C199.114 1116.86 195.834 1102.76 193.352 1088.5C194.268 1082.4 209.376 1091.23 212.364 1092.96C294.066 1148.63 333.005 1245.53 358.111 1337.6C379.114 1417.21 379.247 1438.28 377.335 1338.23C376.246 1301.43 375.848 1264.55 374.095 1227.75C372.914 1198.59 338.701 1161.61 320.778 1138.42C285.954 1099.24 257.051 1055.54 229.981 1010.82C211.992 978.732 189.966 948.714 175.854 914.652C167.556 895.732 160.095 876.573 152.208 857.388C150.536 845.932 142.995 836.425 142.145 824.678C139.623 816.272 136.702 807.985 134.631 799.301C130.276 786.718 128.802 773.618 127.993 760.492C125.775 726.51 114.716 694.026 101.852 662.761C82.5611 613.651 51.5741 570.294 25.6455 524.79C-21.1668 459.292 -73.595 392.401 -145.725 353.592L-145.579 353.394C-124.629 386.077 -92.5934 411.096 -67.249 440.57C-29.1725 482.773 10.1653 524.445 42.0018 571.7C74.5554 624.125 104.547 680.913 112.34 742.911C121.381 836.942 78.3923 781.68 39.0944 750.217C25.5659 739.795 -13.254 701.994 3.60686 729.4C34.9788 781.985 68.8068 833.031 100.524 885.337C129.665 937.895 155.939 992.574 174.871 1049.69C188.028 1100.78 199.339 1154.74 192.144 1207.57C190.165 1222.55 182.863 1234.56 167.808 1223.25C163.586 1220.02 161.276 1213.19 156.191 1211.85C153.642 1213.13 155.103 1217.66 154.943 1219.98C157.771 1239.86 164.038 1259.05 170.065 1278.1C184.47 1320.21 202.658 1360.55 221.697 1400.75C244.014 1442.96 266.053 1486.49 298.54 1522.04C376.552 1611.96 481.554 1670.71 575.842 1741.31C644.587 1790.41 695.595 1873.64 636.621 1951.17C620.225 1974.24 601.333 1995.43 583.835 2017.67C572.125 2028.98 575.988 2045.59 579.175 2059.67C587.605 2095.71 611.37 2125.87 619.88 2162.07C633.661 2203.32 640.365 2246.53 644.215 2289.75C653.363 2461.5 626.053 2634.72 574.621 2798.48C555.954 2854.87 533.849 2913.59 501.11 2962.13C516.139 2918.67 535.323 2875.26 545.44 2829.73C568.487 2740.79 581.02 2649.58 589.756 2558.25C595.266 2485.95 600.324 2413.14 590.831 2340.94C584.525 2294.32 572.085 2248.57 554.972 2204.81C544.869 2182.71 535.124 2160.42 524.078 2138.77C517.187 2124.77 508.89 2110.62 507.868 2094.66C502.491 2073.83 512.992 2055.25 527.038 2040.55C560.827 1997.55 606.139 1960.6 625.509 1908.28C660.704 1801.6 329.885 1698.14 261.3 1627.33C226.981 1592.59 192.648 1555.12 173.544 1509.6C150.748 1446.46 126.253 1383.96 101.028 1321.76C91.5888 1300.86 86.1987 1277.85 73.7588 1258.47C64.784 1246.73 57.7609 1233.41 48.2285 1222.2C48.2285 1222.22 48.348 1221.97 48.348 1221.97C100.059 1373.39 170.676 1519.63 218.192 1673.02C228.401 1710.59 287.773 1865.1 245.382 1885.41C237.15 1885.63 232.915 1893.3 225.799 1896.11C215.563 1901.74 203.814 1906.66 191.958 1903.68C143.194 1891.63 102.011 1860.24 56.6589 1839.67C8.63854 1815.76 -38.3065 1789.57 -87.7076 1768.57C-106.879 1761.56 -125.466 1749.57 -146.216 1748.8C-178.876 1759.61 -107.755 1972.15 -99.643 2006.79C-97.1072 2015.64 -94.3856 2024.47 -91.3453 2033.14C-89.5796 2038.3 -83.4061 2038.56 -78.9054 2039.77C-34.8945 2048.68 6.30186 2067.16 47.485 2084.53C47.6576 2085.47 47.8036 2086.39 47.9629 2087.29C47.9629 2087.27 47.777 2087.42 47.777 2087.42C47.6841 2086.4 47.5912 2085.38 47.4983 2084.36C58.1591 2089.95 70.5857 2093 79.6667 2101.13C79.6667 2101.12 79.4941 2101.28 79.4941 2101.28C84.3002 2100.07 88.3494 2103.4 92.2925 2105.55C92.2792 2105.53 91.4827 2105.31 91.4827 2105.31C98.6121 2108.44 105.144 2112.44 112.353 2115.49C116.801 2117.64 120.558 2123.64 125.935 2122.29L125.722 2122.26C170.981 2153.56 217.833 2185.64 257.569 2223.11C255.657 2222.55 253.746 2222 251.834 2221.44L251.861 2221.56C251.13 2220.83 250.4 2220.1 249.67 2219.37L249.896 2219.53C249.112 2219.53 248.342 2219.53 247.559 2219.53L247.665 2219.29C245.129 2217.42 242.594 2215.55 240.071 2213.68L239.832 2213.79C239.832 2213.02 239.832 2212.24 239.832 2211.47L239.991 2211.63C239.221 2211.63 238.438 2211.63 237.668 2211.63L237.774 2211.4C169.72 2161.52 93.6069 2121.35 13.4976 2094.62C-13.4931 2085.9 -41.2008 2079.7 -69.4926 2077.25C-71.8558 2077.03 -75.374 2077.01 -75.9448 2079.86C-60.5576 2136.77 -40.5768 2192.85 -24.8443 2249.87C-23.3308 2257 -19.6533 2261.97 -12.4044 2263.6C12.8869 2271.08 36.6648 2282.7 61.5977 2291.22C133.728 2323.61 205.911 2358.06 268.137 2407.67C323.393 2450.75 381.371 2507.91 388.288 2581.14C385.858 2736.48 204.371 2791.58 75.2192 2801.05C70.1742 2801.46 62.8722 2800.84 63.0315 2807.59C62.1951 2820.39 62.2084 2833.24 61.2791 2846.04C59.5133 2875.92 55.5968 2905.65 50.3261 2935.12C20.1889 3074.62 -64.6733 3249.5 -175.438 3340.48V3340.46C-66.7843 3231.95 17.8257 3064.37 38.5766 2912.2C42.3338 2879.86 44.8563 2847.35 44.3252 2814.75C44.9094 2805.69 41.6434 2801.7 32.3632 2803.14C-101.847 2805.89 -258.653 2777.85 -342.215 2663.09C-271.531 2727.5 -192.511 2757.36 -96.8816 2765.2C-68.3774 2768.3 -39.7537 2769.68 -11.0901 2769.8C3.42091 2770.06 17.8921 2769.36 32.3765 2769C36.7046 2769 41.8824 2767.82 41.6699 2762.61C38.696 2691.41 26.4952 2620.65 15.0112 2550.38C1.86762 2485.05 -9.07204 2417.46 -33.9253 2355.58C-40.205 2347.23 -52.1272 2346.91 -61.0887 2342.75C-81.9724 2334.02 -103.759 2327.62 -125.386 2320.79C-200.543 2298.78 -276.656 2280.34 -353.393 2264.62C-412.592 2253.71 -472.017 2243.99 -530.844 2231.01C-644.33 2208.49 -755.532 2171.68 -858.583 2118.95C-881.087 2107.43 -903.231 2094.74 -922.615 2078.48C-927.939 2074.52 -932.453 2070 -934.962 2063.57C-940.91 2058.08 -940.657 2050.59 -941.334 2043.45C-939.184 2033.38 -931.138 2025.02 -928.642 2014.76C-925.509 2007.19 -930.926 2000.3 -932.97 1993.16C-937.909 1976.8 -928.032 1975.15 -913.945 1977.93C-859.513 1982.12 -804.881 1985.87 -750.315 1988.48C-729.298 1989.28 -718.226 1974.46 -716.991 1954.91C-714.588 1948.57 -687.505 1956 -680.734 1955.26C-651.845 1957.51 -623.393 1963.53 -594.73 1967.59C-505.978 1985.27 -415.34 2008.27 -336.492 2053.89C-333.638 2055 -331.222 2058.87 -327.929 2057.76C-326.761 2054 -335.43 2049.65 -338.192 2047.09C-378.685 2018.47 -425.656 2001.07 -472.774 1986.68C-484.921 1981.97 -498.888 1980.83 -509.788 1973.51C-553.918 1937.5 -598.288 1900.94 -644.436 1867.92C-643.467 1867.92 -642.485 1869.62 -641.542 1870.2C-629.952 1892.83 -608.033 1910.89 -601.607 1936.46C-597.943 1948.96 -611.285 1959.66 -622.65 1953.02C-664.178 1922.11 -700.024 1883.58 -743.066 1854.17C-753.196 1846.8 -748.576 1858.18 -746.04 1863.24C-739.933 1877.81 -734.662 1892.68 -730.387 1907.9C-725.767 1924.17 -728.024 1941.31 -729.378 1957.88C-730.281 1967 -735.167 1975.78 -745.19 1976.26C-807.589 1974.75 -870.187 1969.99 -932.174 1963.34C-946.671 1962.67 -960.2 1955.79 -972.72 1948.96C-979.756 1946.43 -983.527 1932.69 -991.28 1934.69C-1011.78 1943.03 -1005.51 2043.55 -1006.35 2066.71C-1007.48 2077.9 -1002.74 2097.75 -1011.34 2105.64C-1019.28 2110.42 -1026.02 2111.8 -1034.12 2106.1C-1045.63 2087.66 -1049.26 2063.99 -1056.52 2043.34C-1067.69 2000.01 -1065.26 1952.29 -1057.38 1909.67C-1057.17 1904.62 -1059.31 1896.92 -1055.52 1893.8C-1053.41 1851.75 -1042 1809.61 -1035.66 1767.71C-1040.07 1758.64 -1052.99 1783.14 -1055.87 1786.45C-1067.9 1806.12 -1078.82 1826.38 -1088.64 1847.26C-1093.6 1857.02 -1091.98 1869.06 -1099.67 1877.53C-1105.66 1885.05 -1110.3 1893.35 -1114.25 1902.09C-1116.79 1908.86 -1119.74 1909 -1122.22 1902.41C-1139.95 1858.16 -1163.38 1816.07 -1191.46 1777.64C-1197.26 1775.59 -1192.44 1784.68 -1191.46 1787.02C-1173.44 1831.68 -1152.43 1874.72 -1127.99 1916.22C-1112.2 1951.97 -1097.29 1988.24 -1082.93 2024.61C-1077.22 2031.96 -1067.76 2090.5 -1083.03 2088.16C-1147.48 2067.16 -1211.23 2043.56 -1277.04 2027.04C-1281.47 2026.39 -1296.1 2021.21 -1295.68 2025.82C-1175.91 2070.66 -1050.9 2102.95 -936.688 2161.21C-798.813 2234.34 -624.734 2347.74 -568.722 2499.52C-565.323 2508.88 -555.472 2529.99 -574.244 2509.25C-602.523 2479.39 -631.346 2449.85 -663.82 2424.45C-704.246 2393.95 -747.354 2366.81 -792.016 2342.93C-849.223 2309.61 -904.838 2273.76 -965.444 2246.55C-1065.14 2200.17 -1171.17 2168.68 -1270.31 2120.75C-1311.77 2099.19 -1383.36 2069.99 -1380.54 2014.8C-1378.67 2008.21 -1377.82 1999.18 -1386.99 1998.87C-1460.89 1985.27 -1533.15 1964.87 -1606.32 1948.14C-1607.33 1948 -1608.72 1948.76 -1608.64 1949.46C-1608.58 1950.06 -1608.54 1950.88 -1608.14 1951.2C-1583.59 1971.22 -1554.13 1983.98 -1525.97 1998.02C-1496.72 2010.12 -1471.06 2029.84 -1441.28 2040.29C-1427.65 2044.06 -1414.02 2048.08 -1400.59 2052.51C-1385.51 2056.02 -1382.23 2076.14 -1367.07 2084.4C-1344.18 2101.14 -1318.39 2113.39 -1292.59 2124.93C-1210.72 2158.86 -1129.88 2198.12 -1047.15 2228.32C-1035.82 2232.8 -1024.52 2237.38 -1013.23 2241.94C-1006.79 2243.73 -1006.34 2250.98 -1004.76 2256.42C-1003.52 2262.24 -1000.27 2266.48 -995.396 2269.78C-946.738 2302.43 -899.965 2337.77 -854.056 2374.14C-824.994 2388.61 -908.33 2297.44 -904.161 2291.83L-904.347 2291.88C-890.513 2298.82 -876.639 2305.69 -862.871 2312.71C-850.803 2318.88 -852.821 2317.78 -846.595 2327.68C-829.428 2355.02 -813.47 2383.04 -799.066 2411.93C-794.153 2422.86 -785.391 2430.13 -776.111 2437.21C-762.556 2449.21 -749.04 2461.25 -735.472 2473.24C-707.977 2496.8 -681.769 2521.83 -655.429 2546.67C-489.953 2708.15 -334.567 2894.48 -271.478 3121.01L-271.425 3120.85C-275.647 3118.36 -276.457 3113.36 -278.448 3109.26C-284.755 3094.43 -290.875 3079.5 -297.42 3064.77C-307.975 3040.98 -320.136 3018 -332.735 2995.24C-379.574 2910.58 -438.906 2833.08 -504.424 2762.03C-559.72 2700.08 -621.521 2644.5 -683.84 2589.76C-699.161 2576.27 -714.92 2563.29 -731.051 2550.76C-742.097 2542.34 -734.131 2561.12 -732.963 2565.6C-716.181 2621.27 -693.121 2689.34 -717.044 2745.57C-750.156 2814.47 -893.619 2727.77 -943.724 2708.29C-1048.9 2656.04 -1158.92 2605.58 -1245.87 2525.08C-1250.83 2522.32 -1265.94 2496.48 -1268.83 2510.09C-1270.02 2527.37 -1271.9 2547.98 -1259.94 2562.15C-1246.86 2576.14 -1237.67 2593.11 -1224.11 2606.68C-1218.34 2614.84 -1211.56 2622.96 -1206.69 2631.62C-1204.8 2641.77 -1194.46 2651.04 -1201.75 2661.18C-1216.62 2689.61 -1236.92 2688.19 -1265.29 2683.09C-1301.71 2674.2 -1339.05 2667.49 -1365.62 2638.84C-1419.12 2595.49 -1465.71 2544.45 -1512.67 2494.31C-1551.05 2454.01 -1586.71 2411.21 -1619.24 2366.05C-1641.46 2335.11 -1663.47 2303.55 -1679.34 2268.77C-1682.91 2261.46 -1692.04 2235.1 -1687.33 2236.73C-1659.12 2294.32 -1610.14 2338.3 -1566.52 2384.26C-1490.58 2458.96 -1417.65 2546.02 -1315.39 2584.56C-1307.97 2586.64 -1304.95 2583.43 -1305.8 2576.09C-1306.65 2554.78 -1303.33 2534.15 -1296.06 2514.09C-1293.06 2501.1 -1282.93 2486.88 -1285.87 2473.61C-1294.1 2457.81 -1301.03 2441.4 -1304.19 2423.78C-1318.71 2348.17 -1267.57 2275.8 -1202.92 2241.1C-1194.06 2227.91 -1230.59 2220.43 -1238.62 2214.63C-1250.91 2209.04 -1263.11 2203.25 -1275.5 2197.88C-1365.72 2161.26 -1457.68 2127.58 -1553.84 2110.33C-1582.87 2105.13 -1670.64 2091.04 -1596.03 2130.71C-1588.38 2134.87 -1580.02 2136.54 -1571.44 2137.5C-1570.1 2137.76 -1568.69 2138.48 -1568.51 2139.83C-1570.13 2148.07 -1539.54 2139.06 -1533.39 2140.48C-1494.69 2107.68 -1313.46 2329.47 -1320.07 2374.17C-1319.52 2383.52 -1326.96 2389.14 -1330.74 2396.87C-1344.4 2425.32 -1381.34 2419.75 -1405.75 2410.45C-1465.16 2387.11 -1513.36 2344.63 -1563.53 2306.66C-1563.52 2306.66 -1563.42 2306.48 -1563.42 2306.48C-1505.23 2395.61 -1413.8 2460.62 -1319.93 2508.32C-1313.87 2510.81 -1318.1 2515.43 -1323.79 2512.56C-1356.7 2499.93 -1386.49 2480.36 -1416.07 2461.47C-1440.51 2445.29 -1464.77 2428.85 -1489.1 2412.5C-1527.56 2386.67 -1557.86 2351.06 -1586.27 2314.93C-1599.67 2295.89 -1646.89 2234.74 -1631.7 2213.53C-1618.07 2193.13 -1629.9 2197.93 -1628 2186.56C-1622.49 2177.37 -1565.11 2226.16 -1555.55 2232.09C-1523.73 2256.03 -1491.13 2278.86 -1457.17 2299.76C-1447.77 2305.17 -1356.25 2367.91 -1359.03 2346.5C-1390.07 2280.54 -1437.86 2219.62 -1497.39 2177C-1519.76 2161.19 -1545.07 2160.98 -1569.68 2171.57C-1605.31 2183.24 -1636.24 2154.42 -1663.17 2135.1C-1680.68 2120.36 -1701.4 2108.5 -1714.76 2089.54C-1721.9 2079.01 -1703.01 2064.55 -1701.46 2051.29C-1699.5 2041.49 -1700.81 2031.35 -1688.76 2028.31C-1675.08 2024.04 -1681.41 2019.46 -1692.04 2019.27L-1692.19 2019.48C-1677.86 2002.92 -1655.83 2012.36 -1636.92 2010.88C-1593.03 2008.24 -1549.52 2015.74 -1506.64 2022.51C-1510.25 2017.02 -1523.86 2014.22 -1530.71 2010.4C-1544.96 2004.38 -1559.27 1998.48 -1573.46 1992.33C-1611.07 1975.68 -1646.89 1953.8 -1674.13 1922.57C-1691.96 1902.45 -1706.77 1878.67 -1711.29 1851.88C-1713.07 1842.4 -1703.74 1843.56 -1705.53 1838.67C-1731.87 1805.25 -1743.95 1762.88 -1742.45 1720.6C-1741.06 1691.02 -1736.24 1661.72 -1731.05 1632.6C-1728.01 1620.18 -1728.08 1604.72 -1715.13 1598.22C-1700.7 1587.15 -1686.07 1603.05 -1680.85 1616.32C-1678 1623.43 -1671.54 1630.26 -1675.81 1638.31C-1698.22 1682.3 -1722.41 1706.24 -1712.53 1760.41C-1706.89 1789.14 -1680.49 1808.38 -1655.77 1820.79C-1636.55 1829.78 -1616.26 1841.22 -1594.85 1842.38L-1595.02 1842.56L-1595.09 1842.53ZM-1262.73 2448.62C-1258.61 2444.16 -1256.3 2437.04 -1248.91 2438.87C-1229.79 2412.81 -1067.51 2322.51 -1097.99 2290.77C-1118.71 2276.65 -1141.2 2265.63 -1162.58 2252.67C-1169.83 2248.78 -1177.36 2244.17 -1185.74 2247.15C-1269.63 2271.92 -1322.58 2374.63 -1280.69 2454.54C-1276.02 2466.98 -1269.78 2453.1 -1264.9 2448.51C-1264.17 2448.55 -1263.46 2448.58 -1262.73 2448.62ZM26.1633 146.304L26.3093 146.132C26.3093 146.132 26.15 146.291 26.1633 146.304ZM-772.34 817.518L-772.207 817.28C-772.154 818.42 -771.663 819.242 -770.521 819.6C-757.989 835.325 -741.008 847.656 -727.254 862.519C-690.412 902.269 -652.814 948.913 -642.286 1003.05C-642.286 1005.37 -645.498 1007.03 -647.437 1005.82C-650.982 1004.16 -652.893 999.031 -657.354 1001.86C-657.699 1002.05 -658.761 1001.66 -659.04 1001.25C-688.753 932.035 -758.281 851.792 -831.659 829.61L-831.46 829.464C-781.05 878.336 -733.427 930.921 -696.453 990.97C-663.979 1046.82 -641.356 1107.42 -615.64 1166.49C-612.839 1171.18 -608.232 1186.37 -604.129 1186.07C-605.258 1172.34 -610.98 1158.68 -613.741 1144.98C-626.288 1094.88 -638.993 1043.3 -634.891 991.315C-634.824 969.464 -627.655 948.515 -627.363 926.744C-628.12 920.287 -634.638 915.806 -638.396 910.847C-647.609 903.581 -658.376 886.438 -669.9 885.191C-678.636 886.504 -685.168 879.981 -691.899 875.565C-718.385 857.653 -742.986 835.192 -770.482 819.6C-770.601 818.46 -771.331 817.876 -772.34 817.558V817.518ZM-149.907 1683.6C-149.907 1683.6 -149.974 1683.84 -149.947 1683.86L-149.907 1684.14V1683.6ZM637.272 1525.99C637.975 1525.34 638.666 1524.68 639.369 1524.03C658.434 1515.48 676.185 1500.92 695.01 1490.55C698.86 1488.08 697.971 1476.23 691.944 1481.48C676.463 1494.59 659.098 1505.9 644.799 1520.17C641.467 1521.32 639.701 1524.53 636.847 1526.41L637.272 1525.98V1525.99ZM-498.954 1728.77C-499.074 1729.01 -499.18 1729.23 -499.3 1729.47C-499.14 1729.27 -498.968 1729.09 -498.808 1728.89C-518.378 1689.46 -581.387 1536.53 -527.299 1512C-522.308 1510.94 -516.732 1515.9 -518.988 1520.94C-521.869 1527.91 -521.431 1535.1 -520.714 1542.34C-519.453 1555.12 -517.236 1567.74 -514.621 1580.31C-496.02 1662.65 -474.672 1746.26 -438.149 1822.43C-427.966 1836.18 -385.482 1908.45 -415.739 1912.84C-451.465 1882.53 -487.829 1852.78 -524.299 1823.33C-532.238 1816.48 -543.921 1818.56 -553.64 1816.62C-555.392 1816.62 -557.862 1816.26 -559.216 1817.37C-522.772 1855.56 -475.283 1887.35 -433.409 1921.12C-393.089 1951.33 -355.252 1984.63 -316.711 2016.91C-290.875 2038.32 -265.092 2059.83 -239.562 2081.61C-224.175 2094.55 -207.911 2106.53 -197.396 2124.04C-192.723 2132.55 -187.293 2142.23 -197.848 2148.93C-201.486 2151.99 -196.454 2156.75 -200.211 2159.79C-203.092 2162.68 -206.531 2164.83 -205.92 2169.45C-209.146 2186.45 -230.455 2192.07 -245.709 2191.14C-258.799 2191.81 -267.575 2181.7 -277.678 2175.22C-305.877 2155.76 -337.687 2142.5 -368.873 2128.68C-444.031 2101.09 -521.803 2079.86 -601.142 2067.49C-651.048 2058.44 -701.591 2054.86 -751.961 2049.47C-768.477 2046.07 -785.364 2045.87 -801.575 2042.14C-820.414 2042.65 -841.244 2034.74 -858.889 2038.63C-857.76 2042.21 -854.202 2044.13 -851.175 2045.87C-835.854 2054.96 -819.179 2061.26 -802.916 2068.42C-739.8 2095.2 -673.857 2114.32 -607.395 2130.7C-478.031 2160.22 -345.746 2175.06 -216.7 2206.26C-171.216 2215.62 -126.448 2228.03 -82.0386 2241.51C-78.8789 2242.38 -75.7192 2243.41 -72.347 2243.04C-68.935 2242.2 -69.705 2238.2 -70.329 2235.59C-74.5509 2221.75 -79.6224 2208.17 -84.1364 2194.42C-145.274 2020.3 -90.3763 2101.24 -201.672 2064.1C-214.443 2058.33 -227.919 2055.83 -241.567 2053.32C-268.08 2041.68 -274.014 2008.38 -285.325 1984.44C-295.004 1958.17 -298.456 1929.97 -307.577 1903.71C-330.903 1845.17 -352.53 1785.54 -382.083 1729.78C-431.909 1623.26 -494.135 1520.83 -574.603 1434.31C-600.943 1405.89 -629.713 1379.12 -662.439 1358.21C-672.449 1352.88 -688.992 1337.46 -698.192 1339.24C-700.104 1343.28 -696.466 1347.39 -695.298 1351.23C-685.38 1372 -676.684 1393.37 -665.081 1413.33C-644.423 1454.5 -622.132 1494.82 -600.359 1535.4C-579.595 1573.92 -559.455 1612.78 -540.018 1651.99C-529.105 1673.76 -518.484 1695.68 -507.226 1717.26C-506.336 1718.97 -505.447 1720.83 -503.389 1721.56C-503.402 1724.63 -500.096 1726.03 -498.968 1728.76L-498.954 1728.77ZM-1259.34 897.283L-1259.14 896.475C-1256.06 914.825 -1250.06 908.553 -1259.34 897.283ZM-1428.79 1336.6L-1428.48 1337.33L-1428.96 1336.75C-1426.61 1331.05 -1452.8 1244.04 -1456.44 1277.96C-1447.85 1297.55 -1440.19 1318.7 -1428.79 1336.6ZM-1009.63 1317.06L-1009.56 1317.31L-1009.83 1317.27C-1015.35 1302.8 -1028.13 1291.61 -1036.29 1278.38C-1062.02 1244.04 -1083.5 1205.82 -1106 1170.06C-1107.94 1171.17 -1107.1 1173.49 -1106.97 1175.28C-1104.38 1189.85 -1101.62 1204.4 -1099.18 1218.98C-1098.17 1225.04 -1095.58 1230.09 -1091.76 1234.83C-1078.15 1250.82 -1067.01 1269.09 -1052.03 1283.83C-1037.92 1294.62 -1026.24 1310.3 -1009.61 1317.06H-1009.63ZM-477.872 442.413L-477.766 442.188C-469.043 455.871 -453.337 465.126 -441.216 476.024C-409.95 505.061 -378.977 534.323 -347.499 563.161C-345.348 565.004 -341.338 568.398 -339.413 564.487C-337.342 557.579 -335.311 550.671 -333.399 543.724C-332.257 540.17 -335.656 537.81 -338.192 535.941C-361.545 518.903 -384.805 501.733 -408.304 484.894C-430.794 469.992 -452.886 452.622 -477.872 442.426V442.413ZM-1240.98 1392.09L-1240.89 1392.31H-1241.17C-1251.23 1364.01 -1273.2 1340.05 -1283.54 1311.32C-1308.19 1254.54 -1327.79 1195.74 -1340.26 1135.07C-1364.46 1034.53 -1266.82 1069.58 -1221.28 1110.18C-1155.83 1164.67 -1159.74 1171.01 -1189.65 1089.47C-1191.53 1084.07 -1205.85 1060.02 -1211.67 1068.52C-1213.27 1080.77 -1204.91 1094.52 -1206.25 1105.74C-1210.8 1101.87 -1210.09 1097.27 -1217.51 1098.23C-1244.33 1079.98 -1271.49 1058.91 -1305.04 1055.13C-1327.29 1051.87 -1353.75 1061.76 -1359.17 1085.57C-1365.06 1100.63 -1355.12 1116.5 -1359.67 1131.34C-1364.61 1144.31 -1372.31 1155.86 -1378.91 1167.99C-1383.01 1176.78 -1377.75 1186.9 -1376.37 1195.89C-1373.04 1207.94 -1370.32 1220.14 -1367.56 1232.32C-1360.12 1271.51 -1349.77 1218.11 -1345.16 1207.12C-1343.77 1202.58 -1341.42 1200.25 -1339.29 1205.92C-1315.78 1271.8 -1287.85 1339.8 -1240.97 1392.09H-1240.98ZM-305.784 1446.32L-305.705 1446.12C-360.576 1498.53 -440.34 1452.54 -490.298 1415.13C-545.979 1374.69 -603.16 1336.24 -657.367 1293.81C-676.791 1273.95 -697.528 1255.3 -717.682 1235.95C-725.329 1231.94 -754.802 1194.37 -756.648 1206.28C-752.718 1219.5 -745.27 1231.46 -741.818 1244.9C-736.043 1264.06 -732.737 1284.03 -731.489 1304C-731.21 1307.72 -733.374 1316.81 -727.32 1316C-716.779 1314.1 -714.004 1306.42 -710.818 1297.3C-705.746 1286.75 -693.585 1283.05 -684.956 1291.72C-628.319 1334.03 -570.368 1374.99 -511.182 1413.75C-478.323 1432.52 -456.696 1465.08 -433.343 1493.93C-362.036 1586.9 -304.218 1689.67 -258.76 1797.64C-239.509 1843.05 -221.984 1889.23 -207.274 1936.31C-198.95 1954.18 -200.676 1976.03 -190.227 1992.66C-179.062 2006.13 -162.931 2014.84 -146.455 2020.03C-138.636 2020.95 -145.885 2004.74 -146.575 2001.19C-162.467 1951.7 -175.915 1901.53 -190.798 1851.77C-199.202 1816.74 -215.16 1781.53 -211.801 1744.95C-212.12 1735.08 -200.012 1727.6 -204.101 1722.79C-259.689 1685.15 -296.717 1626.53 -335.191 1572.78C-349.039 1550.86 -363.935 1529.54 -376.016 1506.54C-381.247 1497.1 -390.142 1488.27 -391.947 1477.53C-390.992 1474.84 -386.252 1475.99 -383.968 1476.06C-374.17 1478.11 -364.28 1477.63 -354.415 1477.52C-331.647 1479.19 -313.671 1461.13 -310.869 1468.55C-289.056 1519.68 -269.832 1571.92 -245.696 1622.05C-230.295 1652.4 -216.355 1684.47 -193.347 1710C-189.564 1714.03 -185.222 1719.26 -179.261 1715.5C-174.19 1712.5 -168.521 1709.82 -166.728 1703.68C-162.082 1690.82 -155.178 1677.96 -143.641 1670.05C-107.144 1639.49 -28.4688 1689.93 8.67834 1706.06C36.9038 1718.69 64.6114 1732.44 91.9606 1746.92C107.852 1755.63 124.607 1762.59 140.353 1771.56C161.396 1782.57 151.492 1766.28 148.358 1753.67C128.484 1691.3 107.361 1629.41 84.0746 1568.23C36.9702 1445.77 -11.3822 1323.09 -69.1474 1205.07C-88.1458 1165.24 -112.826 1128.61 -134.653 1090.44C-144.291 1074.83 -154.288 1059.27 -163.237 1043.21C-168.069 1031.99 -165.281 1019 -164.471 1007.19C-163.462 999.694 -162.281 992.203 -159.373 985.136C-158.577 983.863 -159.44 981.278 -161.073 982.14C-184.2 1023.67 -179.208 1104.81 -168.441 1150.62C-140.866 1261.5 -88.9955 1364.74 -41.9442 1468.33C-40.9087 1470.38 -39.0367 1477.78 -43.232 1474.4C-96.4169 1393.3 -141.132 1306.17 -174.787 1215.31C-192.524 1168.86 -205.322 1120.64 -213.461 1071.65C-219.515 1052.29 -231.371 1035.04 -236.216 1015.03C-241.54 998.064 -246.811 1050.16 -248.802 1053.15C-252.679 1066.25 -254.179 1086.42 -269.208 1091.38C-275.488 1092.23 -273.642 1095.26 -271.77 1099.65C-234.716 1182.69 -109.282 1406.36 -144.185 1487.3C-149.336 1498.03 -157.076 1508.91 -168.321 1513.65C-187.638 1519.76 -211.257 1518.06 -227.388 1504.84C-258.388 1483.85 -280.148 1452.31 -296.916 1419.67C-333.97 1342.5 -368.807 1263.7 -392.279 1180.41C-401.4 1158.85 -405.834 1135.84 -412.101 1113.38C-419.31 1079.88 -426.771 1045.24 -422.085 1010.9C-418.925 982.206 -391.018 974.105 -397.67 964.174C-404.786 955.569 -412.778 947.68 -420.107 939.234C-432.639 923.443 -419.071 900.439 -420.465 881.757C-419.921 866.96 -417.677 852.283 -416.655 837.539C-415.778 823.074 -414.517 808.675 -411.968 794.408C-411.185 790.749 -412.778 787.301 -413.628 783.814C-418.354 772.186 -432.639 767.864 -441.627 759.803C-452.487 753.611 -451.027 764.775 -451.399 772.544C-451.611 781.799 -453.085 790.868 -455.103 799.884C-456.948 808.091 -460.161 815.476 -466.308 821.456C-471.194 825.301 -471.552 831.904 -474.938 836.69C-480.036 841.822 -485.16 846.966 -490.551 851.779C-508.381 872.29 -560.915 859.668 -553.958 873.855C-550.573 880.272 -547.267 886.729 -540.735 890.707C-529.596 898.994 -524.087 912.756 -516.957 924.265C-492.237 977.433 -484.337 1038.25 -464.967 1093.73C-442.716 1163.33 -414.265 1230.54 -384.367 1297.17C-368.209 1335.29 -350.114 1372.63 -334.355 1410.94C-329.283 1422 -325.221 1433.52 -320.016 1444.5C-317.016 1450.65 -310.71 1446.16 -305.784 1446.34V1446.32ZM-713.805 2700.85C-716.527 2645.11 -737.185 2580.87 -763.18 2529.64C-771.451 2515.23 -787.143 2507.25 -799.504 2496.73C-839.996 2464.14 -882.959 2434.72 -925.018 2404.19C-940.644 2392.03 -957.518 2381.77 -973.968 2370.85C-977.088 2368.22 -978.362 2373.88 -980.778 2371.72C-986.567 2362.58 -994.148 2355.75 -1003.63 2350.53C-1024.84 2336.7 -1045.61 2322.13 -1067.22 2308.92C-1076.33 2302.41 -1080.47 2305.44 -1085.58 2314.68C-1092.86 2326.12 -1101.55 2336.39 -1111.15 2345.94C-1134.17 2368.6 -1160.79 2387.11 -1186.47 2406.57C-1201.6 2417.76 -1277.19 2473.92 -1255.52 2492.34C-1183.24 2569.98 -1080.62 2609.3 -987.602 2656.16C-936.09 2680.42 -884.923 2705.39 -833.531 2729.92C-779.363 2752.6 -714.097 2796.3 -713.805 2700.85ZM494.512 1109.49C501.906 1207.05 520.122 1303.33 533.292 1400.22C538.469 1420.16 537.235 1518.59 565.606 1461.55C573.174 1446.16 579.321 1430.19 583.928 1413.67C585.521 1401.69 604.4 1356.24 595.04 1349.37C588.242 1345.39 580.794 1342.53 573.718 1339.05C569.987 1336.57 567.598 1340.6 567.624 1343.75C563.92 1358.25 565.407 1416.14 542.983 1397.94C538.748 1392.06 540.488 1383.7 539.97 1376.83C540.501 1360.72 541.51 1344.64 542.094 1328.53C540.434 1319.3 523.122 1315.63 535.004 1301.98C537.925 1298.63 544.059 1297.78 544.577 1292.73C545.161 1287.49 545.851 1282.28 546.289 1277.03C550.206 1234.87 556.007 1192.42 570.133 1152.33C578.126 1130.13 588.388 1107.75 608.037 1093.53C616.68 1079.99 608.555 1057.95 609.378 1042.28C607.068 1018.5 608.236 994.033 602.846 970.711C576.931 701.543 481.926 428.385 288.742 232.646C253.759 197.576 213.917 163.183 171.021 139.608C176.464 155.559 190.55 169.229 198.782 184.476C207.796 198.637 216.519 212.969 225.268 227.289C232.703 244.247 330.576 386.196 279.462 380.11C271.974 377.816 267.42 371.107 262.614 365.419C253.454 353.778 244.399 342.057 235.278 330.376C232.119 326.611 229.53 322.288 225.706 319.146C225.268 319.04 223.476 319.146 223.861 320.26C227.591 330.893 235.942 340.665 235.477 352.306C233.844 359.082 237.827 370.524 229.078 373.229C220.86 373.812 214.461 383.292 206.177 378.983C198.317 375.92 193.445 368.694 188.187 362.502C177.872 349.668 167.29 337.072 156.178 324.927C149.646 319.703 142.61 305.45 133.993 311.642C132.573 313.1 132.135 315.274 133.184 317.091C141.574 332.378 152.288 346.26 160.692 361.534C189.17 406.203 208.593 456.189 232.145 503.086C236.5 504.332 237.589 486.645 244.24 480.811C263.809 452.41 292.473 432.337 315.295 407.105C319.145 402.836 322.358 390.014 328.956 392.547C331.133 394.668 333.55 395.981 336.59 396.617C345.538 399.349 340.852 413.058 348.313 418.097C351.167 421.358 349.189 426.569 351.725 430.162C363.528 449.851 348.207 466.942 346.826 487.095C345.339 500.606 342.817 543.631 354.911 551.653C423.603 572.615 472.353 618.371 496.848 686.11C510.948 729.055 531.061 770.887 534.858 816.431C535.376 836.929 539.027 861.551 523.56 877.514C523.095 878.641 523.932 880.193 524.901 880.869C532.92 886.663 540.036 893.597 547.909 899.511C560.389 908.898 570.293 920.818 581.259 931.69C590.871 940.573 588.256 954.442 592.531 965.752C593.633 1006.54 593.872 1002.84 563.987 1031.74C550.365 1041.67 545.493 1059.25 531.26 1068.22C504.11 1088.82 494.366 1066.12 494.485 1109.48L494.512 1109.49ZM-1333.73 1795.55C-1333.85 1795.55 -1333.97 1795.55 -1334.07 1795.55C-1333.49 1785.09 -1334.71 1773.97 -1327.49 1765.39C-1294.06 1714.52 -1262.18 1662.58 -1230.96 1610.37C-1227.08 1604.19 -1205.2 1641.41 -1202.31 1645.37C-1196.93 1648.86 -1192.2 1666.61 -1186.88 1664.23C-1168.07 1646.34 -1147.53 1655.48 -1174.24 1634.02C-1220.56 1578.02 -1181.21 1586.61 -1188.95 1555.97C-1210.43 1490.14 -1082.32 1525.13 -1051.47 1533.27C-1009.12 1546.61 -968.099 1564.4 -929.346 1586C-892.159 1605 -854.906 1623.91 -818.781 1644.87C-811.665 1647.84 -781.873 1670.35 -778.593 1663.23C-824.33 1612.72 -873.267 1564.08 -914.516 1509.91C-920.252 1500.48 -954.066 1466.6 -939.33 1458.48C-929.333 1455.15 -918.911 1453.29 -908.821 1450.27C-898.518 1448.9 -854.335 1428.97 -850.724 1436.19C-828.101 1463.54 -806.779 1491.95 -786.878 1521.38C-744.619 1581.77 -703.702 1643.04 -665.24 1705.93C-632.541 1757.85 -646.335 1754.36 -593.137 1792.2C-587.707 1795.78 -583.272 1801.4 -576.82 1803.05C-567.5 1803.54 -541.213 1812.9 -547.161 1802.04C-604.382 1717.23 -667.63 1636.67 -728.741 1554.66C-758.931 1514.35 -788.962 1473.92 -818.595 1433.22C-819.949 1429.98 -825.844 1425.09 -820.971 1422.37C-813.205 1419.65 -805.438 1416.98 -797.632 1414.35C-794.857 1413.42 -792.401 1414.14 -790.542 1416.42C-768.45 1443.84 -745.642 1470.69 -723.005 1497.67C-677.813 1551.22 -631.399 1603.83 -583.259 1654.76C-565.084 1670.25 -609.307 1603.94 -609.878 1600.38C-633.377 1560 -655.827 1519.02 -678.61 1478.23C-699.48 1441.69 -720.841 1405.19 -735.937 1365.8C-742.163 1352.72 -749.08 1374.4 -756.263 1376.15C-769.619 1386.79 -784.926 1394.82 -799.915 1402.95C-821.078 1411.02 -844.497 1412.36 -865.381 1421.35C-880.37 1426.19 -895.757 1430.1 -910.932 1434.45C-940.578 1441.57 -973.954 1448.68 -1003.1 1436.28C-1015.31 1430.45 -1028.59 1427.45 -1041.25 1422.8C-1051.06 1418.99 -1058.52 1410.8 -1067.21 1405.02C-1072.56 1402.01 -1074.67 1395.89 -1079.86 1392.77C-1088.24 1387.94 -1103.94 1365.2 -1113.28 1374.3C-1128.07 1389.36 -1140.9 1406.05 -1153.5 1422.94C-1157.53 1429.48 -1165.33 1435.79 -1166.47 1443.21C-1162.58 1443.55 -1159.45 1437.46 -1156.37 1435.09C-1150.33 1428.56 -1144.42 1421.92 -1138.41 1415.38C-1136.67 1413.86 -1134.69 1410.82 -1132.18 1411.34C-1105.89 1434.86 -1082.09 1467.07 -1044.24 1471.19C-1034.24 1473.03 -1034.99 1461.68 -1028.51 1461.82C-1020.74 1463.21 -1013.17 1465.62 -1005.18 1465.77C-1001.26 1465.65 -999.724 1469.23 -1000.88 1472.6C-1007.07 1502.36 -1038.12 1517.93 -1066.07 1521.69C-1098.84 1524.98 -1129.96 1506.7 -1155.31 1487.65C-1193.98 1457.35 -1180.04 1504.42 -1190.97 1524.92C-1204.51 1554.99 -1221.24 1583.31 -1239.39 1610.81C-1263.62 1651.23 -1289.72 1690.28 -1317.27 1728.45C-1339.6 1759.04 -1358.24 1795.41 -1389.86 1817.34C-1431.3 1845.54 -1478 1860.64 -1528.27 1860.2C-1529.5 1860.24 -1529.38 1861.94 -1528.48 1862.31C-1512.24 1866.46 -1495.79 1869.91 -1479.57 1874.11C-1420.09 1887.16 -1365.62 1914.49 -1309.82 1937.9C-1248.73 1968.87 -1188.79 2002.22 -1131.27 2039.4C-1129.5 2041 -1123.35 2044.09 -1124.39 2039.53C-1137.51 2024.99 -1155.35 2014.92 -1171.67 2004.21C-1215.22 1976.19 -1261.77 1953.75 -1307.52 1929.77C-1311.37 1923.41 -1279.02 1910.16 -1274.33 1904.61C-1266.59 1896.72 -1242.28 1891.35 -1248.73 1877.03C-1257.3 1849.4 -1258.16 1819.95 -1264.85 1791.83C-1265.1 1790.18 -1266.56 1787.21 -1268.36 1788.08C-1271.48 1791.03 -1268.5 1796.43 -1268.64 1800.25C-1265.46 1818.41 -1264.05 1836.8 -1261.67 1855.06C-1260.36 1864.55 -1261.52 1875.04 -1270.15 1880.77C-1276.93 1886.74 -1285.91 1888.84 -1292.84 1894.39C-1302.17 1900.52 -1314.04 1894.98 -1321.45 1888.1C-1338.75 1874.22 -1333.17 1817.07 -1333.7 1795.53L-1333.73 1795.55ZM68.6872 2766.64C162.073 2757.88 263.344 2726.48 321.614 2648.67C346.202 2618.01 330.947 2598.35 314.631 2568.87C284.985 2527.71 243.603 2495.96 201.172 2468.28C183.7 2454.81 163.759 2445.08 144.495 2434.48C102.051 2410.35 57.7609 2388.66 12.3958 2370.95C9.19618 2370.75 8.46593 2374.16 9.02354 2376.68C13.6702 2403.56 20.3482 2430.07 25.3003 2456.9C36.0276 2514.1 44.5509 2571.74 51.3086 2629.53C55.6234 2667.76 59.5532 2706.05 61.5048 2744.49C63.1245 2751.55 57.9865 2766.75 68.6872 2766.66V2766.64ZM227.791 698.096C225.773 674.999 248.024 693.177 257.583 698.282C268.15 704.991 278.426 712.111 287.959 720.278C289.499 721.697 292.619 723.142 293.721 720.57C293.893 707.125 288.384 693.442 289.791 679.627C290.641 669.112 291.982 658.691 295.978 648.8C297.465 645.14 298.872 641.362 298.341 637.344C298.115 631.325 291.716 628.713 287.919 624.934C278.267 616.117 276.063 602.288 272.067 590.435C266.531 579.682 254.104 591.721 250.294 598.218C243.563 607.472 229.623 603.256 221.79 597.608C214.952 592.848 214.129 583.195 210.916 575.996C203.322 552.766 190.935 531.632 177.699 511.24C132.4 440.862 71.9532 382.205 23.415 314.227C8.43934 292.88 -36.3814 239.766 -36.1026 217.066C-37.0851 214.083 -36.7133 211.339 -35.2396 208.515C-32.3454 197.974 -47.7195 196.635 -50.6536 185.073C-53.5611 177.33 -44.6659 171.642 -40.8556 165.954C-36.262 156.553 -80.3525 158.224 -88.013 155.453C-102.67 153.159 -117.606 154.206 -132.303 151.979C-133.723 151.7 -135.98 152.602 -136.033 154.127C-124.138 173.392 -107.728 190.403 -94.9167 209.363C-87.5617 218.419 -47.8389 282.26 -83.7247 247.747C-133.006 202.522 -189.736 166.219 -238.407 120.33C-246.691 115.106 -267.947 86.8251 -274.598 93.1098C-282.418 102.882 -287.091 114.775 -293.782 125.249C-304.257 141.69 -320.481 160.358 -319.114 180.684C-316.737 204.444 -306.86 226.334 -296.61 247.628C-285.126 266.442 -279.895 293.411 -258.282 303.222C-232.326 315.142 -229.897 323.349 -209.783 297.388C-205.216 289.168 -214.324 277.474 -200.012 275.021C-139.074 270.035 -81.813 300.265 -32.3854 332.789C41.7097 378.439 93.7397 450.037 131.059 527.296C160.559 586.364 184.656 648.455 199.233 712.893C214.289 771.192 232.331 828.457 258.764 882.765C271.549 915.541 279.953 949.854 293.097 982.537C305.616 1015.46 322.411 1046.51 337.44 1078.32C340.759 1085.12 344.21 1091.84 347.702 1098.57C348.578 1099.64 349.508 1101.84 351.127 1101.5C352.415 1100.61 351.406 1098.17 351.366 1096.88C340.506 1051.11 326.646 1006.16 309.785 962.265C301.594 940.069 286.312 920.844 279.767 898.039C273.567 872.834 265.296 848.186 254.595 824.479C248.223 812.732 246.284 799.698 244.107 786.705C240.868 777.676 239.128 768.302 237.841 758.875C234.469 738.403 228.295 719.377 227.83 698.07L227.791 698.096ZM-1117.76 726.139C-1175.45 727.027 -1232.66 735.619 -1289.2 746.451C-1302.2 748.572 -1345.47 752.868 -1343.42 767.837C-1340.9 780.234 -1323.16 778.856 -1313.64 783.258C-1245.3 795.681 -1181.72 825.129 -1121.95 859.721C-1113.14 863.778 -1119.34 857.48 -1122.24 855.12C-1144.75 834.874 -1168.74 816.179 -1189.97 794.554C-1191.26 793.069 -1193 791.65 -1194.9 792.287C-1199.73 798.505 -1190.5 806.208 -1192 812.493C-1221.53 799.95 -1249.4 777.689 -1280.62 766.22C-1281.62 765.239 -1281.47 763.727 -1280.12 763.276C-1265.17 759.233 -1250.13 755.547 -1234.86 753.041C-1189.03 745.51 -1142.5 741.24 -1096.18 746.239C-1074.73 746.822 -1053.25 748.891 -1033.59 758.265C-1026.05 761.155 -1021.38 766.498 -1016.82 772.863C-1009.6 781.401 -1002.37 789.94 -995.143 798.492C-980.433 817.014 -963.439 833.919 -950.787 853.967C-890.048 950.199 -807.363 1030.04 -729.989 1112.75C-696.665 1150.27 -655.549 1183.66 -634.001 1229.77C-626.659 1246.55 -617.446 1263.37 -601.952 1273.91C-571.709 1295.63 -565.827 1262.4 -557.503 1274.72C-505.473 1339.77 -442.809 1401 -367.307 1438.03C-362.195 1439.45 -356.327 1443.51 -351.495 1440.67C-351.588 1439.79 -351.84 1438.43 -352.411 1438.18C-367.758 1433.05 -381.765 1424.65 -394.204 1414.36C-414.584 1395.81 -439.078 1379.44 -453.629 1355.68C-468.061 1324.47 -481.363 1292.83 -494.919 1261.04C-497.614 1251.02 -505.632 1237.29 -508.673 1227.44C-513.439 1213.23 -518.643 1199.09 -524.472 1185.15C-538.558 1144.59 -552.219 1103.59 -562.8 1061.97C-567.739 1041.92 -573.036 1021.9 -578.573 1002C-582.131 992.031 -584.826 977.91 -597.77 977.486C-599.496 977.287 -601.939 978.653 -602.603 980.323C-622.106 1064.69 -582.051 1160.79 -564.141 1243.29C-560.703 1253.35 -567.301 1262.86 -575.891 1267.84C-591.145 1272.81 -605.683 1253.57 -613.078 1242.25C-623.805 1221.85 -631.372 1199.84 -646.733 1182.15C-700.436 1117.63 -762.131 1060.11 -809.965 990.811C-832.07 966.083 -854.029 941.263 -878.046 918.245C-897.881 898.291 -911.396 873.285 -930.527 852.853C-941.879 840.125 -929.85 822.862 -926.465 809.086C-923.531 802.416 -929.651 793.599 -921.287 789.449C-903.112 774.241 -878.537 775.488 -858.464 786.745C-834.248 800.056 -810.271 813.991 -785.949 827.038C-778.992 827.834 -804.668 805.28 -806.248 801.303C-817.958 783.96 -797.366 785.565 -787.767 793.507C-771.411 802.827 -659.518 884.714 -731.383 823.233C-742.19 810.902 -758.705 806.063 -770.389 794.912C-786.453 784.093 -804.655 776.496 -819.392 763.634C-829.269 757.005 -837.474 748.427 -846.382 740.71C-853.366 734.757 -861.823 722.638 -871.209 722.665C-877.847 723.009 -882.454 727.663 -886.941 732.025C-903.948 746.836 -921.354 765.318 -945.477 765.703C-959.032 767.055 -970.224 757.854 -982.292 753.08C-1024.18 732.118 -1071.4 726.828 -1117.75 726.099L-1117.76 726.139ZM-296 770.37C-296 770.37 -296.079 770.37 -296.119 770.37C-296.119 778.272 -297.128 786.572 -290.782 792.552C-284.542 799.354 -277.652 805.466 -271.12 811.963C-265.451 817.598 -262.982 817.943 -256.556 813.315C-210.753 784.862 -167.498 752.55 -123.633 721.233C-115.362 715.28 -107.171 709.141 -98.342 704.089C-92.0092 699.21 -87.8803 704.155 -81.0032 706.237C-76.9672 707.709 -75.7589 711.965 -74.896 715.757C-72.878 725.25 -66.0275 732.596 -63.3988 741.85C-58.3007 756.448 -53.8001 771.232 -46.3388 784.875C-10.0679 852.76 28.5264 919.319 63.5493 987.894C85.8269 1028.19 106.565 1069.36 129.426 1109.32C134.352 1115.83 137.976 1104.72 135.998 1100.28C130.754 1082.63 125.709 1064.91 121.102 1047.08C107.056 996.711 91.5225 946.712 71.8735 898.225C65.8063 883.295 59.1415 868.604 52.4237 853.953C43.8074 837.539 37.9659 818.685 23.9195 805.904C-13.9445 771.245 -49.5782 734.213 -83.9904 696.174C-102.989 673.488 -123.687 652.313 -142.087 629.097C-153.837 615.852 -164.1 601.081 -177.721 589.652C-177.907 589.48 -179.128 589.944 -179.235 590.302C-178.916 613.624 -170.844 636.893 -166.688 659.937C-163.887 674.058 -159.426 688.099 -158.245 702.432C-159.227 718.475 -176.42 716.765 -185.567 707.391C-244.196 670.995 -231.039 609.381 -253.688 553.535C-266.978 524.087 -287.569 498.737 -304.709 471.503C-315.675 455.526 -309.767 475.03 -308.294 482.084C-305.426 495.966 -304.032 510.033 -303.129 524.154C-302.518 533.621 -303.195 532.295 -295.548 539.043C-291.353 542.743 -287.224 546.521 -283.188 550.393C-271.093 561.172 -271.651 575.982 -288.976 579.31C-295.376 585.091 -291.725 597.661 -293.159 605.682C-296.239 628.527 -270.775 646.374 -261.017 665.997C-246.147 689.146 -232.486 713.768 -226.1 740.71C-222.157 753.147 -233.428 760.492 -238.726 770.211C-249.851 787.301 -272.049 771.351 -281.674 760.28C-295.11 745.629 -296.066 756.713 -295.973 770.357L-296 770.37ZM469.048 1099.23C469.937 1083.46 467.149 1067.02 476.575 1053.1C486.878 1036.67 496.676 1019.89 505.584 1002.74C507.443 998.024 504.548 993.688 500.751 990.89C495.136 987.045 492.679 980.668 488.219 975.802C482.178 969.716 476.376 963.458 471.65 956.285C440.291 918.63 407.857 881.916 376.167 844.513C362.997 830.552 330.629 779.2 349.733 834.37C356.013 855.332 361.695 877.037 362.519 898.98C363.448 933.201 365.227 967.25 370.551 1001.15C376.99 1055.7 381.411 1110.45 387.611 1165.02C402.361 1209.08 405.136 1256.58 413.978 1302.25C422.594 1342.85 425.687 1388.07 437.49 1426.35C439.229 1425.7 439.256 1423.75 439.441 1422.2C441.207 1401.56 442.933 1380.91 444.513 1360.25C449.054 1305.51 452.187 1250.68 453.674 1195.77C454.351 1176.73 456.488 1157.65 454.391 1138.62C452.134 1115.4 446.889 1112.78 469.048 1099.21V1099.23ZM-1488.64 1770.26C-1488.64 1770.26 -1488.64 1770.18 -1488.64 1770.12C-1455.9 1769.73 -1420.9 1769.46 -1391.43 1753.46C-1374.59 1743.3 -1348.93 1727.59 -1352.63 1704.93C-1353.23 1702.08 -1353.7 1698.7 -1351.04 1696.74C-1323.85 1672.35 -1331.88 1630.71 -1338.14 1598.86C-1341.36 1596.38 -1340.14 1605.12 -1340.47 1606.92C-1342.13 1628.36 -1337.14 1677.78 -1359.58 1687.84C-1370.58 1690.45 -1383.3 1668.97 -1391.48 1662.3C-1404.03 1648.79 -1416.87 1635.56 -1430.02 1622.65C-1470.59 1584.51 -1512.88 1543.96 -1566.41 1525.26C-1587.76 1518.06 -1618.15 1517.68 -1629.6 1540.83C-1636.93 1553.17 -1598.52 1565.42 -1589.62 1566.6C-1561.15 1575.37 -1524.24 1574.33 -1508.68 1604.65C-1499.87 1632.47 -1496.68 1663.78 -1505.98 1691.88C-1513.09 1713.72 -1526.2 1733.42 -1532.61 1755.51C-1532.97 1769.91 -1499.03 1770.97 -1488.64 1770.23V1770.26ZM-1145.43 1583.12C-1179.25 1584.85 -1077.43 1647.89 -1070.37 1653.38C-1001.95 1696.15 -928.815 1730.69 -858.928 1770.93C-854.534 1772.01 -826.574 1794.8 -830.876 1781.5C-834.473 1771.52 -839.558 1762.34 -846.05 1753.95C-847.431 1751.34 -851.414 1748.92 -850.697 1745.78C-849.608 1742.69 -826.189 1749.41 -823.68 1751.32C-801.243 1765.8 -785.471 1788.62 -771.198 1810.79C-761.918 1826.26 -763.936 1823.42 -750.74 1831.33C-727.254 1845.38 -704.658 1860.71 -683.309 1877.84C-676.91 1881.9 -629.554 1925.53 -649.508 1900.43C-681.145 1865.6 -711.415 1829.5 -742.163 1794C-786.028 1760.64 -832.216 1729.79 -879.307 1701.22C-926.226 1670.96 -975.813 1644.56 -1026.85 1622.05C-1064.37 1604.3 -1103.8 1587.43 -1145.44 1583.12H-1145.43ZM720.076 1309.87C720.62 1346.01 722.147 1382.16 721.098 1418.31C719.718 1425.43 724.271 1427.46 729.091 1421.97C758.086 1400.36 787.639 1379.41 816.236 1357.3C823.724 1350.34 818.122 1338.88 819.462 1329.91C819.741 1322.32 818.799 1314.83 817.67 1307.37C818.374 1281.47 816.396 1255.52 814.139 1229.7C815.347 1218.77 807.62 1214.77 798.924 1210.79C777.071 1199.69 757.183 1185.82 739.42 1168.9C735.37 1165.2 731.281 1159.54 727.989 1167.6C715.868 1213.68 721.337 1262.63 720.076 1309.87ZM-153.372 437.11C-152.629 448.711 -154.222 453.696 -161.75 443.209C-179.42 418.295 -200.317 395.384 -214.961 368.495C-215.824 366.321 -218.944 361.879 -220.776 365.38C-221.015 371.956 -217.059 378.015 -213.992 383.584C-188.541 424.766 -158.006 462.487 -127.722 500.182C-58.8317 586.483 9.71381 673.581 86.4243 753.226C110.853 775.7 78.9498 708.836 76.4937 703.002C64.1865 678.261 49.9942 654.461 34.2087 631.789C-12.285 564.514 -69.0677 505.525 -124.43 445.595C-135.224 435.744 -160.462 397.4 -153.372 437.123V437.11ZM-321.318 509.927C-323.575 486.074 -344.405 398.513 -362.753 386.289C-413.083 360.129 -459.564 324.065 -515.63 310.488C-521.206 311.628 -516.068 318.006 -515.045 321.122C-506.92 336.9 -500.388 353.42 -495.516 370.484C-488.639 388.423 -504.318 398.778 -495.264 402.398C-434.657 429.367 -380.702 468.533 -329.509 510.232C-326.681 512.619 -320.959 517.206 -321.331 509.927H-321.318ZM-72.9577 925.803C-75.5465 932.618 -71.0592 941.342 -69.6519 948.436C-65.7221 961.337 -61.0753 973.986 -56.1631 986.542C-21.6049 1070.23 14.1615 1155.66 64.3061 1231.03C66.0188 1231.76 67.3065 1229.72 67.187 1228.17C65.4079 1210.4 68.8598 1190.38 74.3828 1174.06C101.294 1125.15 108.729 1160.83 52.5697 1090.95C7.60288 1038.52 -33.3146 981.304 -72.9577 925.803ZM-176.354 1430.55C-186.523 1335.74 -229.817 1247.85 -271.731 1163.39C-290.742 1128.09 -309.143 1092.39 -330.08 1058.18C-331.461 1055.82 -336.014 1052.2 -336.705 1057.25C-327.212 1110.79 -307.006 1162.17 -289.547 1213.57C-269.407 1267.31 -247.581 1320.77 -219.488 1370.99C-214.364 1377.27 -181.677 1450.12 -176.354 1430.55ZM311.405 652.048C317.764 699.17 360.846 745.271 396.546 774.401C435.007 806.315 473.03 838.732 511.598 870.514C528.313 879.901 506.42 847.51 503.898 843.784C484.767 816.895 471.477 786.731 454.709 758.464C441.898 737.064 422.342 720.57 405.653 702.22C389.124 684.718 372.489 665.546 349.256 657.06C338.157 653.122 327.23 648.004 315.613 645.923C312.546 645.605 311.524 649.861 311.391 652.048H311.405ZM-1161.81 1726.4C-1159.34 1736.41 -1157.35 1748.02 -1149.91 1755.73C-1137.69 1767.68 -1125.93 1780.11 -1113.94 1792.28C-1105.77 1801.88 -1098.73 1812.11 -1095.33 1824.46C-1095.09 1826.29 -1092.95 1828.53 -1091.26 1826.87C-1071.11 1794.73 -1058.26 1747.52 -1017.05 1737.03C-1012.11 1736.04 -1013.97 1734.11 -1016.86 1731.74C-1020.06 1727.28 -1024.56 1724.74 -1029.44 1722.54C-1065.87 1704.89 -1100.94 1684.58 -1135.26 1663.11C-1142.09 1658.25 -1147.45 1658.51 -1146.24 1668.35C-1144.1 1676.66 -1144.86 1685.16 -1144.34 1693.65C-1146 1706.06 -1161.47 1713.16 -1161.83 1726.4H-1161.81ZM-1000.2 1278.43C-1000.59 1298.47 -995.422 1317.6 -985.903 1335.12C-981.309 1345.7 -981.376 1345.75 -972.481 1352.86C-943.724 1378.84 -904.214 1361.66 -872.072 1352.3C-852.901 1344.7 -830.982 1343.5 -813.165 1333.05C-802.69 1324.58 -813.669 1302.1 -817.228 1291.47C-822.379 1276.7 -837.965 1238.66 -850.392 1231.74C-857.853 1240.82 -854.428 1260.08 -857.309 1271.84C-859.048 1286.55 -861.544 1301.13 -864.557 1315.63C-866.257 1322.33 -861.464 1327.31 -858.105 1332.45C-855.556 1340.5 -909.697 1344.7 -917.41 1346.03C-925.429 1345.88 -945.105 1346.44 -944.72 1335.24C-942.011 1323.04 -938.44 1311.1 -935.134 1299.2C-933.581 1292.83 -933.966 1286.76 -937.431 1281.11C-946.34 1267.32 -954.066 1252.65 -963.997 1239.56C-968.896 1235.16 -980.287 1245.88 -986.022 1247.53C-998.303 1252.98 -1001.38 1266.09 -1000.16 1278.41L-1000.2 1278.43ZM-372.803 864.176C-379.295 875.592 -375.432 890.853 -379.415 903.515C-380.941 909.945 -378.897 915.819 -374.131 920.659C-358.69 934.965 -357.615 945.201 -334.594 946.341C-311.865 950.531 -294.884 966.043 -286.574 987.417C-279.311 1003.76 -277.28 1021.61 -274.452 1039.09C-271.93 1051.15 -270.881 1084.44 -262.251 1051.84C-253.794 1015.96 -244.328 978.48 -254.193 942.138C-253.343 928.64 -240.704 936.529 -238.898 928.866C-236.429 919.956 -233.097 911.404 -228.835 903.21C-228.171 901.553 -227.016 899.285 -228.33 897.681C-232.592 893.054 -238.819 893.292 -243.479 896.726C-257.366 905.597 -272.169 912.823 -286.706 920.526C-308.745 932.87 -340.967 930.245 -355.995 908.593C-362.341 895.228 -367.121 881.227 -370.613 866.841C-371.13 865.847 -371.396 864.043 -372.803 864.189V864.176ZM-992.183 1873.12C-993.032 1878.66 -989.952 1881.68 -984.456 1876.69C-969.865 1865.44 -955.314 1854.16 -940.697 1842.95C-925.695 1831.15 -909.83 1820.53 -895.398 1808.08C-892.504 1804.53 -875.351 1797.32 -880.383 1792.76C-917.026 1774.96 -954.252 1758.07 -991.346 1741.25C-996.458 1740.93 -993.285 1748.03 -993.298 1750.98C-990.098 1767.83 -988.465 1784.83 -988.864 1801.97C-989.434 1826.67 -990.603 1847.42 -992.183 1873.12ZM-1213.63 1278.37C-1210.06 1296.25 -1198.18 1310.88 -1190.82 1327.27C-1186.83 1334.63 -1177.71 1350.35 -1169.45 1338.84C-1155.77 1320.31 -1147.14 1326.75 -1135.87 1312.56C-1131 1303.47 -1117.55 1295.64 -1120.13 1284.44C-1128.19 1259.62 -1151.42 1244.09 -1169.29 1226.46C-1172.29 1224.46 -1178.33 1217.01 -1181.21 1222.07C-1183.43 1258.96 -1207.05 1240.24 -1213.64 1278.35L-1213.63 1278.37ZM-981.482 1215.36C-992.355 1198.35 -1004.38 1179.15 -1022.8 1169.38C-1045.73 1159.52 -1067.66 1147.46 -1089.31 1135.17C-1099.43 1129.98 -1092.05 1145.34 -1090.15 1149.09C-1067.43 1196.56 -1039.47 1241.12 -1012.19 1286.02C-1011.5 1287.05 -1009.56 1289.31 -1008.63 1287.46C-1011.84 1264.47 -1010.5 1242.17 -992.076 1225.77C-988.585 1222.26 -983.022 1220.35 -981.495 1215.36H-981.482ZM-390.792 239.023C-393.249 217.769 -400.338 194.991 -394.682 174.267C-397.842 152.973 -386.663 132.687 -383.769 112.017C-384.314 109.776 -387.062 110.519 -388.27 111.951C-394.51 120.012 -403.339 125.634 -409.724 133.642C-430.502 156.938 -452.156 179.504 -472.296 203.344C-475.947 209.748 -450.377 219.559 -445.703 224.001C-429.652 231.625 -413.017 237.75 -396.116 243.2C-393.315 244.141 -390.885 241.913 -390.792 239.01V239.023ZM-863.867 1086.21C-864.704 1053.3 -910.746 1013.62 -937.059 996.565C-939.834 998.422 -934.949 1001.68 -933.621 1003.17C-909.724 1026.49 -876.493 1065.23 -886.742 1100.83C-893.646 1124.13 -909.976 1142.81 -925.456 1160.96C-964.342 1208.93 -991.267 1154.37 -935.572 1231.84C-932.346 1235.09 -926.571 1246.64 -921.606 1243.42C-915.419 1228.06 -913.255 1208.81 -921.991 1193.99C-927.062 1185.44 -929.638 1182.8 -920.424 1176.17C-894.257 1152.08 -863.907 1124.65 -863.854 1086.22L-863.867 1086.21ZM-589.672 179.663C-591.238 173.843 -608.564 182.143 -613.277 182.673C-652.176 195.189 -688.288 214.945 -721.943 237.896C-726.856 242.006 -720.071 246.726 -717.031 249.511C-705.999 257.798 -695.749 267.185 -684.146 274.663C-672.781 282.366 -663.408 292.973 -651.898 300.491C-639.856 307.929 -630.111 318.642 -616.45 323.468C-613.264 325.272 -606.121 324.436 -609.559 319.597C-625.212 297.229 -643.985 277.381 -661.788 256.763C-664.882 251.433 -686.23 233.706 -681.185 229.158C-652.07 210.265 -621.11 193.201 -589.658 179.663H-589.672ZM-158.431 905.729C-157.767 913.207 -161.564 937.047 -154.979 940.083C-149.084 940.719 -143.123 939.738 -137.334 941.515C-136.113 941.859 -134.507 940.931 -134.082 939.804C-125.797 916.615 -120.859 892.258 -112.203 869.214C-107.396 861.471 -111.512 857.547 -115.017 850.122C-121.509 843.413 -123.859 819.428 -135.091 823.021C-220.351 880.537 -145.831 823.432 -158.431 905.742V905.729ZM-183.536 673.819C-186.922 641.508 -192.723 609.395 -197.118 577.176C-198.18 569.963 -200.078 563.068 -204.698 557.115C-237.053 516.716 -261.189 470.151 -293.318 429.565C-295.495 426.9 -313.007 409.028 -310.511 417.792C-274.532 472.789 -230.348 526.421 -218.811 592.874C-211.562 620.426 -209.823 654.143 -187.546 674.27C-186.377 675.264 -184.107 675.742 -183.536 673.806V673.819ZM-1379.51 953.235C-1385.39 927.275 -1386.97 846.661 -1410.8 836.333C-1424.02 833.747 -1437.52 832.885 -1450.52 829.12C-1452.25 828.629 -1455.07 829.822 -1454.78 831.904C-1434.8 871.959 -1408.94 909.137 -1387.9 948.767C-1386.37 951.83 -1381.07 960.767 -1379.51 953.249V953.235ZM-1341.44 1410.04C-1340.25 1437.5 -1337.8 1468.55 -1318.54 1489.87C-1311.88 1497.17 -1305.64 1504.82 -1299.85 1512.84C-1274.21 1552.72 -1272.63 1524.11 -1257.18 1498C-1255.03 1491.37 -1244.38 1475.82 -1246.25 1470.3C-1254.19 1472.61 -1266.74 1505.57 -1274.36 1502.31C-1286.44 1489.83 -1297.72 1476.47 -1308.64 1462.96C-1315.87 1453.3 -1325.39 1444.58 -1327.54 1432.24C-1331.84 1408.26 -1332.44 1382.53 -1326.17 1358.88C-1324.97 1353.6 -1329.15 1354.53 -1330.95 1358.32C-1339.56 1374.06 -1340.74 1392.49 -1341.43 1410.04H-1341.44ZM-847.843 1839.8C-843.886 1855.3 -862.247 1866.03 -872.085 1876.02C-891.88 1895.22 -815.86 1878.9 -807.456 1886.36C-790.064 1892.21 -806.553 1864.04 -806.938 1856.73C-812.554 1843.43 -810.642 1823.08 -824.875 1815.68C-830.676 1813.88 -857.083 1798.82 -849.343 1815.38C-847.431 1816.72 -846.595 1818.03 -847.312 1820.24C-850.471 1827.24 -847.351 1832.18 -847.829 1839.83L-847.843 1839.8ZM822.941 1407.95C822.941 1407.95 823.007 1407.95 823.034 1407.95C821.693 1402.68 824.361 1387.69 819.462 1385.63C787.506 1404.75 759.108 1431.16 728.506 1452.92C719.04 1460.15 719.904 1458.54 719.837 1471.95C719.731 1473.22 720.939 1474.51 722.107 1474.56C752.311 1460.4 781.811 1444.1 813.966 1434.05C828.012 1431.8 822.33 1418.08 822.941 1407.96V1407.95ZM-1144.81 984.354C-1145.11 989.763 -1145.17 993.065 -1140.28 995.584C-1131.76 1000.54 -1123.43 1005.85 -1114.86 1010.7C-1072.72 1033.72 -1031.56 1058.59 -987.164 1077.17C-985.186 1077.82 -980.101 1080.86 -980.592 1077.13C-1031.14 1047.25 -1082.01 1016.56 -1123.88 974.9C-1136.2 966.508 -1108.22 928.004 -1110.47 913.154C-1111.55 911.192 -1113.24 913.645 -1113.83 914.798C-1123.31 937.696 -1140.6 960.037 -1144.83 984.354H-1144.81ZM-36.6869 1061.93C-61.0622 1008.15 -87.2828 954.031 -101.515 896.965C-102.816 896.66 -104.13 899.179 -104.343 900.505C-108.724 916.654 -113.092 932.817 -117.46 948.966C-118.376 952.122 -119.186 955.556 -116.849 958.34C-91.0666 991.553 -65.1113 1024.62 -41.2273 1059.24C-40.0191 1060.49 -37.9215 1065.17 -36.6736 1061.9L-36.6869 1061.93ZM-1288.34 863.725C-1293.16 863.261 -1294.11 868.578 -1291.58 871.614C-1288.06 876.242 -1274.6 897.191 -1277.65 878.84C-1276.32 873.126 -1252.42 891.052 -1247.94 892.576C-1237.91 899.405 -1230.8 903.223 -1239.41 915.395C-1254.11 941.011 -1269.3 966.547 -1287.34 989.976C-1292.72 996.976 -1301.32 983.161 -1304.67 979.13C-1316.47 967.502 -1309.78 987.841 -1308.25 993.224C-1306.51 1000.16 -1302.95 1006.66 -1303.38 1014.11C-1303.46 1015.45 -1300.68 1016.89 -1299.49 1016.2C-1294.23 1012.32 -1285.63 1010.54 -1284.34 1003.25C-1267.56 972.951 -1243.1 946.261 -1224.64 916.562C-1214.56 904.363 -1221.44 893.876 -1233.92 887.671C-1251.11 878.363 -1269.06 867.491 -1288.34 863.739V863.725ZM-1616.24 1309.39C-1615.45 1323.12 -1587.32 1288.44 -1583.02 1285.62C-1574.43 1275.24 -1591.78 1257.58 -1594.49 1246.1C-1604.9 1221.59 -1617.32 1198.06 -1628.25 1173.8C-1633.53 1163.22 -1637.97 1152.21 -1642.27 1141.25C-1645.5 1137.85 -1646.73 1144.35 -1646.03 1146.71C-1643.35 1162.95 -1635.73 1177.87 -1630.08 1193.22C-1624.24 1211.7 -1610.93 1228.86 -1610.99 1248.64C-1612.61 1268.86 -1614.07 1289.27 -1616.25 1309.41L-1616.24 1309.39ZM-439.809 138.534C-464.994 140.696 -490.936 153.172 -516.652 157.667C-521.856 159.722 -541.757 161.671 -530.99 169.6C-522.932 175.314 -514.129 179.822 -506.11 185.577C-499.074 188.587 -487.895 202.429 -482.08 192.524C-468.724 174.32 -450.363 157.906 -439.795 138.521L-439.809 138.534ZM-180.682 957.279C-182.076 944.551 -182.527 931.783 -183.098 919.028C-186.351 912.995 -196.095 912.876 -201.857 909.521C-214.921 904.403 -223.644 946.58 -224.533 955.967C-224.839 963.538 -219.581 970.14 -217.245 977.141C-215.2 982.551 -209.119 980.204 -205.535 977.884C-197.689 971.4 -182.593 968.324 -180.682 957.293V957.279ZM614.981 1229.24C615.087 1229.24 615.193 1229.23 615.3 1229.22C613.905 1211.52 609.298 1194.27 606.046 1176.83C601.412 1152.5 598.014 1175.37 595.332 1185.19C594.854 1192.45 569.509 1284.18 580.316 1275.52C596.181 1264.22 617.742 1251.73 614.981 1229.24ZM899.651 1270.2C900.169 1275.09 896.08 1298.32 903.316 1297.06C926.244 1283.17 948.933 1268.23 970.64 1252.51C975.18 1246.71 924.624 1246.64 918.504 1244.12C913.3 1243.51 908.108 1242.46 902.851 1242.48C894.885 1245.78 900.395 1262.95 899.665 1270.2H899.651ZM-1189.69 1220.12C-1188.75 1202.13 -1210.06 1196.08 -1220.92 1185.19C-1227.12 1180.27 -1230.47 1181.33 -1232.88 1188.88C-1236.44 1199.65 -1241.86 1210.89 -1236.88 1222.11C-1234.32 1228.12 -1232.66 1234.59 -1229.62 1240.34C-1225.77 1244.37 -1220.84 1237.27 -1217.04 1235.86C-1200.91 1227.04 -1193.6 1252.88 -1189.69 1220.12ZM-508.845 756.899C-511.58 738.363 -512.018 718.289 -523.516 702.246C-525.507 697.659 -544.519 676.246 -548.156 682.013C-546.935 700.801 -536.049 717.998 -534.482 737.037C-531.654 745.709 -534.376 763.78 -524.631 767.334C-517.608 768.66 -508.474 765.928 -508.845 756.886V756.899ZM609.484 1287.17C611.635 1264.87 587.22 1292.33 579.56 1295.68C572.138 1301 572.019 1301.13 571.527 1310.16C568.978 1319.42 590.924 1323.93 597.695 1326.8C609.75 1326.17 606.75 1296.19 609.471 1287.17H609.484ZM-335.218 973.402C-342.865 974.344 -326.535 994.537 -325.393 999.045C-317.6 1013.15 -309.82 1027.29 -302.027 1041.39C-292.057 1053.63 -308.479 1005.89 -309.714 1003.29C-314.706 991.434 -321.955 977.075 -335.231 973.415L-335.218 973.402ZM254.064 534.244C253.759 537.333 262.521 564.726 266.358 553.336C265.88 548.391 266.557 543.631 267.301 538.805C265.15 532.746 267.115 526.395 265.721 520.322C259.282 512.552 253.281 527.575 254.064 534.244ZM641.44 1345.42C641.095 1351.74 646.698 1353.29 650.575 1356.66C658.713 1359.95 648.583 1338.02 648.039 1334.63C643.18 1327 641.905 1343.08 641.44 1345.42ZM-179.314 884.184C-181.106 876.135 -187.426 885.655 -190.188 888.413C-191.94 892.165 -187.054 895.467 -184.187 897.137C-179.673 898.317 -180.748 886.968 -179.314 884.17V884.184ZM713.916 1145.09C711.234 1145.33 709.959 1150.78 713.252 1150.29C716.385 1149.2 716.691 1146.85 713.916 1145.09ZM-486.01 1757.04C-485.97 1756.08 -486.754 1755.61 -487.364 1755C-487.709 1756.24 -487.444 1757.09 -486.342 1757.82C-486.236 1757.55 -486.13 1757.29 -486.023 1757.02L-486.01 1757.04ZM-758.374 1198.14L-758.958 1198.56L-758.307 1198.87L-758.36 1198.13L-758.374 1198.14Z" fill="#FF0009"/>
<path d="M455.333 0.166166C456.302 1.49205 457.125 2.95052 458.267 4.10403C462.449 8.29382 466.817 12.298 470.972 16.501C477.212 22.8255 483.014 29.5079 488.072 36.8533C492.174 42.8065 496.502 48.6139 501.096 54.1958C509.234 64.1002 517.253 74.084 524.9 84.3861C531.379 93.1104 537.566 101.981 543.447 111.116C549.143 119.946 555.356 128.458 561.304 137.13C562.605 139.026 563.694 141.054 564.995 142.964C572.005 153.305 578.258 164.111 584.909 174.679C587.007 178.007 588.905 181.467 590.817 184.914C593.526 189.807 596.115 194.752 598.823 199.645C602.169 205.678 605.607 211.671 608.979 217.69C609.298 218.247 609.417 218.923 609.643 219.533C610.068 220.687 609.298 222.41 608.076 222.755C605.235 223.551 602.381 224.346 599.5 225.009C586.556 227.966 574.381 232.752 563.123 239.846C552.953 246.25 544.364 254.258 537.606 264.189C536.504 265.82 535.349 267.424 534.167 268.989C533.065 270.46 530.968 270.5 529.945 269.042C527.874 266.085 525.83 263.102 523.891 260.052C519.47 253.131 515.076 246.17 510.735 239.196C508.823 236.133 507.177 232.898 505.225 229.862C502.025 224.89 498.64 220.037 495.427 215.078C489.904 206.54 484.501 197.908 478.938 189.383C476.973 186.36 474.65 183.562 472.618 180.579C464.679 168.898 456.806 157.164 448.88 145.469C448.522 144.939 447.964 144.528 447.46 144.13C447.221 143.931 446.796 143.719 446.57 143.799C446.013 144.011 445.163 144.303 445.057 144.727C443.875 149.182 443.211 153.663 443.636 158.357C444.38 166.524 444.884 174.692 446.477 182.793C448.19 191.491 449.265 200.321 450.5 209.112C451.097 213.341 451.297 217.597 450.673 221.893C450.301 224.479 450.248 227.131 450.234 229.756C450.208 235.364 450.009 240.946 448.429 246.356C447.353 250.015 447.712 253.555 449.332 256.923C451.894 262.253 454.616 267.504 457.298 272.781C459.82 277.766 462.409 282.725 464.905 287.723C466.392 290.707 467.268 293.875 466.923 297.243C466.856 297.84 466.485 298.768 466.06 298.887C465.21 299.126 464.108 299.179 463.338 298.821C462.183 298.264 461.148 297.362 460.205 296.461C458.784 295.095 457.444 293.637 456.142 292.165C453.262 288.93 450.062 286.212 445.827 284.806C443.981 284.196 442.322 283.03 440.636 282.009C429.351 275.194 417.721 269.081 405.493 264.109C398.776 261.378 392.376 258.024 386.256 254.099C380.521 250.426 376.378 245.547 373.696 239.302C370.829 232.633 368.585 225.778 366.753 218.777C363.819 207.614 362.345 196.211 360.978 184.782C359.81 174.997 358.469 165.212 357.752 155.387C357.061 145.894 356.889 136.347 356.849 126.828C356.822 120.264 357.42 113.715 357.739 107.152C357.765 106.502 357.951 105.826 357.885 105.189C356.836 94.5689 359.597 84.3066 360.885 73.9117C361.575 68.343 364.363 63.5168 367.775 58.8894C371.041 54.461 374.812 51.4645 380.016 49.6746C387.477 47.1024 394.328 43.0717 401.258 39.346C404.962 37.3571 408.188 34.3872 411.348 31.5365C412.742 30.2769 413.764 28.3544 414.375 26.5379C417.004 18.755 419.433 10.9191 421.85 3.06985C422.115 2.18151 421.797 1.1208 421.744 0.139648C432.949 0.139648 444.154 0.139648 455.359 0.139648L455.333 0.166166Z" fill="#FF0009"/>
<path d="M164.738 31.5771C164.738 31.5771 164.594 31.7595 164.594 31.7465L164.738 31.5771Z" fill="#FF0009"/>
</g>
<defs>
<clipPath id="clip0_230_52">
<rect width="989" height="457" fill="white" transform="matrix(-1 0 0 1 989 0)"/>
</clipPath>
</defs>
</svg>
